<svg width="120" height="120" viewBox="0 0 120 120" fill="none" xmlns="http://www.w3.org/2000/svg">
<g clip-path="url(#clip0_1403_158)">
<path fill-rule="evenodd" clip-rule="evenodd" d="M94.0001 120H26.0001C22.5838 120.007 19.1998 119.339 16.0422 118.035C12.8847 116.731 10.0157 114.816 7.60005 112.4C5.18437 109.984 3.26948 107.115 1.96528 103.958C0.661075 100.8 -0.0067749 97.4163 5.1812e-05 94.0001V26.0001C-0.0067749 22.5838 0.661075 19.1998 1.96528 16.0422C3.26948 12.8847 5.18437 10.0157 7.60005 7.60005C10.0157 5.18437 12.8847 3.26948 16.0422 1.96528C19.1998 0.661075 22.5838 -0.0067749 26.0001 5.1812e-05H94.0001C97.4163 -0.0067749 100.8 0.661075 103.958 1.96528C107.115 3.26948 109.984 5.18437 112.4 7.60005C114.816 10.0157 116.731 12.8847 118.035 16.0422C119.339 19.1998 120.007 22.5838 120 26.0001V94.0001C120.007 97.4163 119.339 100.8 118.035 103.958C116.731 107.115 114.816 109.984 112.4 112.4C109.984 114.816 107.115 116.731 103.958 118.035C100.8 119.339 97.4163 120.007 94.0001 120Z" fill="url(#paint0_linear_1403_158)"/>
<path fill-rule="evenodd" clip-rule="evenodd" d="M88 72.5V76C87.9988 78.2467 87.798 80.4889 87.4 82.7C87.2058 83.8271 86.787 84.9036 86.1686 85.8656C85.5502 86.8276 84.7447 87.6555 83.8 88.3H83.7C81.7063 89.813 79.3001 90.6848 76.8 90.8L74.9 91C73.4089 91.0914 71.9173 90.8314 70.5451 90.2408C69.1729 89.6503 67.9586 88.7457 67 87.6C66.0025 86.3916 65.3467 84.9383 65.1005 83.3909C64.8543 81.8434 65.0268 80.2583 65.6 78.8V78.7C66.1236 77.2737 66.9906 75.9984 68.1243 74.9868C69.258 73.9752 70.6235 73.2585 72.1 72.9L79.6 70.9C80.5434 70.6752 81.3829 70.1378 81.9821 69.3753C82.5813 68.6127 82.9048 67.6698 82.9 66.7V61.6V40.1C82.9068 39.8518 82.8563 39.6053 82.7522 39.3798C82.6481 39.1543 82.4934 38.9559 82.3 38.8C82.1014 38.6533 81.8738 38.5507 81.6324 38.4989C81.3909 38.4472 81.1413 38.4476 80.9 38.5L48.9 45C48.3328 45.0907 47.8177 45.3838 47.45 45.825C47.0823 46.2663 46.8869 46.8258 46.9 47.4V81.6V84.1C46.8988 86.3467 46.698 88.5889 46.3 90.8C46.1058 91.9271 45.687 93.0036 45.0686 93.9656C44.4502 94.9276 43.6447 95.7555 42.7 96.4H42.6C40.6063 97.913 38.2001 98.7848 35.7 98.9L33.9 99C32.4089 99.0914 30.9173 98.8314 29.5451 98.2408C28.1729 97.6503 26.9586 96.7457 26 95.6C25.0025 94.3916 24.3467 92.9383 24.1005 91.3909C23.8543 89.8434 24.0268 88.2583 24.6 86.8V86.7C25.1236 85.2737 25.9906 83.9984 27.1243 82.9868C28.258 81.9752 29.6235 81.2585 31.1 80.9L38.6 78.9C39.5434 78.6752 40.3829 78.1378 40.9821 77.3753C41.5813 76.6127 41.9048 75.6698 41.9 74.7V69.6V29.9C41.9111 29.0469 42.2153 28.2235 42.7615 27.568C43.3078 26.9125 44.0628 26.4648 44.9 26.3L85 19C85.7371 18.9136 86.4809 19.0907 87.1 19.5C87.3809 19.7307 87.6073 20.0207 87.7629 20.3492C87.9185 20.6777 87.9995 21.0365 88 21.4V72.5Z" fill="#BB58BB"/>
<path fill-rule="evenodd" clip-rule="evenodd" d="M88 72.5V76C87.9988 78.2467 87.798 80.4889 87.4 82.7C87.2058 83.8271 86.787 84.9036 86.1686 85.8656C85.5502 86.8276 84.7447 87.6555 83.8 88.3H83.7C81.7063 89.813 79.3001 90.6848 76.8 90.8L74.9 91C73.4089 91.0914 71.9173 90.8314 70.5451 90.2408C69.1729 89.6503 67.9586 88.7457 67 87.6C66.0025 86.3916 65.3467 84.9383 65.1005 83.3909C64.8543 81.8434 65.0268 80.2583 65.6 78.8V78.7C66.1236 77.2737 66.9906 75.9984 68.1243 74.9868C69.258 73.9752 70.6235 73.2585 72.1 72.9L79.6 70.9C80.5434 70.6752 81.3829 70.1378 81.9821 69.3753C82.5813 68.6127 82.9048 67.6698 82.9 66.7V61.6V40.1C82.9068 39.8518 82.8563 39.6053 82.7522 39.3798C82.6481 39.1543 82.4934 38.9559 82.3 38.8C82.1014 38.6533 81.8738 38.5507 81.6324 38.4989C81.3909 38.4472 81.1413 38.4476 80.9 38.5L48.9 45C48.3328 45.0907 47.8177 45.3838 47.45 45.825C47.0823 46.2663 46.8869 46.8258 46.9 47.4V81.6V84.1C46.8988 86.3467 46.698 88.5889 46.3 90.8C46.1058 91.9271 45.687 93.0036 45.0686 93.9656C44.4502 94.9276 43.6447 95.7555 42.7 96.4H42.6C40.6063 97.913 38.2001 98.7848 35.7 98.9L33.9 99C32.4089 99.0914 30.9173 98.8314 29.5451 98.2408C28.1729 97.6503 26.9586 96.7457 26 95.6C25.0025 94.3916 24.3467 92.9383 24.1005 91.3909C23.8543 89.8434 24.0268 88.2583 24.6 86.8V86.7C25.1236 85.2737 25.9906 83.9984 27.1243 82.9868C28.258 81.9752 29.6235 81.2585 31.1 80.9L38.6 78.9C39.5434 78.6752 40.3829 78.1378 40.9821 77.3753C41.5813 76.6127 41.9048 75.6698 41.9 74.7V69.6V29.9C41.9111 29.0469 42.2153 28.2235 42.7615 27.568C43.3078 26.9125 44.0628 26.4648 44.9 26.3L85 19C85.7371 18.9136 86.4809 19.0907 87.1 19.5C87.3809 19.7307 87.6073 20.0207 87.7629 20.3492C87.9185 20.6777 87.9995 21.0365 88 21.4V72.5Z" fill="url(#paint1_radial_1403_158)"/>
<path fill-rule="evenodd" clip-rule="evenodd" d="M88 72.5V76C87.9988 78.2467 87.798 80.4889 87.4 82.7C87.2058 83.8271 86.787 84.9036 86.1686 85.8656C85.5502 86.8276 84.7447 87.6555 83.8 88.3H83.7C81.7063 89.813 79.3001 90.6848 76.8 90.8L74.9 91C73.4089 91.0914 71.9173 90.8314 70.5451 90.2408C69.1729 89.6503 67.9586 88.7457 67 87.6C66.0025 86.3916 65.3467 84.9383 65.1005 83.3909C64.8543 81.8434 65.0268 80.2583 65.6 78.8V78.7C66.1236 77.2737 66.9906 75.9984 68.1243 74.9868C69.258 73.9752 70.6235 73.2585 72.1 72.9L79.6 70.9C80.5434 70.6752 81.3829 70.1378 81.9821 69.3753C82.5813 68.6127 82.9048 67.6698 82.9 66.7V61.6V40.1C82.9068 39.8518 82.8563 39.6053 82.7522 39.3798C82.6481 39.1543 82.4934 38.9559 82.3 38.8C82.1014 38.6533 81.8738 38.5507 81.6324 38.4989C81.3909 38.4472 81.1413 38.4476 80.9 38.5L48.9 45C48.3328 45.0907 47.8177 45.3838 47.45 45.825C47.0823 46.2663 46.8869 46.8258 46.9 47.4V81.6V84.1C46.8988 86.3467 46.698 88.5889 46.3 90.8C46.1058 91.9271 45.687 93.0036 45.0686 93.9656C44.4502 94.9276 43.6447 95.7555 42.7 96.4H42.6C40.6063 97.913 38.2001 98.7848 35.7 98.9L33.9 99C32.4089 99.0914 30.9173 98.8314 29.5451 98.2408C28.1729 97.6503 26.9586 96.7457 26 95.6C25.0025 94.3916 24.3467 92.9383 24.1005 91.3909C23.8543 89.8434 24.0268 88.2583 24.6 86.8V86.7C25.1236 85.2737 25.9906 83.9984 27.1243 82.9868C28.258 81.9752 29.6235 81.2585 31.1 80.9L38.6 78.9C39.5434 78.6752 40.3829 78.1378 40.9821 77.3753C41.5813 76.6127 41.9048 75.6698 41.9 74.7V69.6V29.9C41.9111 29.0469 42.2153 28.2235 42.7615 27.568C43.3078 26.9125 44.0628 26.4648 44.9 26.3L85 19C85.7371 18.9136 86.4809 19.0907 87.1 19.5C87.3809 19.7307 87.6073 20.0207 87.7629 20.3492C87.9185 20.6777 87.9995 21.0365 88 21.4V72.5Z" fill="url(#paint2_radial_1403_158)"/>
<path fill-rule="evenodd" clip-rule="evenodd" d="M88 72.5V76C87.9988 78.2467 87.798 80.4889 87.4 82.7C87.2058 83.8271 86.787 84.9036 86.1686 85.8656C85.5502 86.8276 84.7447 87.6555 83.8 88.3H83.7C81.7063 89.813 79.3001 90.6848 76.8 90.8L74.9 91C73.4089 91.0914 71.9173 90.8314 70.5451 90.2408C69.1729 89.6503 67.9586 88.7457 67 87.6C66.0025 86.3916 65.3467 84.9383 65.1005 83.3909C64.8543 81.8434 65.0268 80.2583 65.6 78.8V78.7C66.1236 77.2737 66.9906 75.9984 68.1243 74.9868C69.258 73.9752 70.6235 73.2585 72.1 72.9L79.6 70.9C80.5434 70.6752 81.3829 70.1378 81.9821 69.3753C82.5813 68.6127 82.9048 67.6698 82.9 66.7V61.6V40.1C82.9068 39.8518 82.8563 39.6053 82.7522 39.3798C82.6481 39.1543 82.4934 38.9559 82.3 38.8C82.1014 38.6533 81.8738 38.5507 81.6324 38.4989C81.3909 38.4472 81.1413 38.4476 80.9 38.5L48.9 45C48.3328 45.0907 47.8177 45.3838 47.45 45.825C47.0823 46.2663 46.8869 46.8258 46.9 47.4V81.6V84.1C46.8988 86.3467 46.698 88.5889 46.3 90.8C46.1058 91.9271 45.687 93.0036 45.0686 93.9656C44.4502 94.9276 43.6447 95.7555 42.7 96.4H42.6C40.6063 97.913 38.2001 98.7848 35.7 98.9L33.9 99C32.4089 99.0914 30.9173 98.8314 29.5451 98.2408C28.1729 97.6503 26.9586 96.7457 26 95.6C25.0025 94.3916 24.3467 92.9383 24.1005 91.3909C23.8543 89.8434 24.0268 88.2583 24.6 86.8V86.7C25.1236 85.2737 25.9906 83.9984 27.1243 82.9868C28.258 81.9752 29.6235 81.2585 31.1 80.9L38.6 78.9C39.5434 78.6752 40.3829 78.1378 40.9821 77.3753C41.5813 76.6127 41.9048 75.6698 41.9 74.7V69.6V29.9C41.9111 29.0469 42.2153 28.2235 42.7615 27.568C43.3078 26.9125 44.0628 26.4648 44.9 26.3L85 19C85.7371 18.9136 86.4809 19.0907 87.1 19.5C87.3809 19.7307 87.6073 20.0207 87.7629 20.3492C87.9185 20.6777 87.9995 21.0365 88 21.4V72.5Z" fill="url(#paint3_linear_1403_158)"/>
<path fill-rule="evenodd" clip-rule="evenodd" d="M88 72.5V76C87.9988 78.2467 87.798 80.4889 87.4 82.7C87.2058 83.8271 86.787 84.9036 86.1686 85.8656C85.5502 86.8276 84.7447 87.6555 83.8 88.3H83.7C81.7063 89.813 79.3001 90.6848 76.8 90.8L74.9 91C73.4089 91.0914 71.9173 90.8314 70.5451 90.2408C69.1729 89.6503 67.9586 88.7457 67 87.6C66.0025 86.3916 65.3467 84.9383 65.1005 83.3909C64.8543 81.8434 65.0268 80.2583 65.6 78.8V78.7C66.1236 77.2737 66.9906 75.9984 68.1243 74.9868C69.258 73.9752 70.6235 73.2585 72.1 72.9L79.6 70.9C80.5434 70.6752 81.3829 70.1378 81.9821 69.3753C82.5813 68.6127 82.9048 67.6698 82.9 66.7V61.6V40.1C82.9068 39.8518 82.8563 39.6053 82.7522 39.3798C82.6481 39.1543 82.4934 38.9559 82.3 38.8C82.1014 38.6533 81.8738 38.5507 81.6324 38.4989C81.3909 38.4472 81.1413 38.4476 80.9 38.5L48.9 45C48.3328 45.0907 47.8177 45.3838 47.45 45.825C47.0823 46.2663 46.8869 46.8258 46.9 47.4V81.6V84.1C46.8988 86.3467 46.698 88.5889 46.3 90.8C46.1058 91.9271 45.687 93.0036 45.0686 93.9656C44.4502 94.9276 43.6447 95.7555 42.7 96.4H42.6C40.6063 97.913 38.2001 98.7848 35.7 98.9L33.9 99C32.4089 99.0914 30.9173 98.8314 29.5451 98.2408C28.1729 97.6503 26.9586 96.7457 26 95.6C25.0025 94.3916 24.3467 92.9383 24.1005 91.3909C23.8543 89.8434 24.0268 88.2583 24.6 86.8V86.7C25.1236 85.2737 25.9906 83.9984 27.1243 82.9868C28.258 81.9752 29.6235 81.2585 31.1 80.9L38.6 78.9C39.5434 78.6752 40.3829 78.1378 40.9821 77.3753C41.5813 76.6127 41.9048 75.6698 41.9 74.7V69.6V29.9C41.9111 29.0469 42.2153 28.2235 42.7615 27.568C43.3078 26.9125 44.0628 26.4648 44.9 26.3L85 19C85.7371 18.9136 86.4809 19.0907 87.1 19.5C87.3809 19.7307 87.6073 20.0207 87.7629 20.3492C87.9185 20.6777 87.9995 21.0365 88 21.4V72.5Z" fill="white"/>
</g>
<defs>
<linearGradient id="paint0_linear_1403_158" x1="60.0001" y1="120" x2="60.0001" y2="5.72205e-05" gradientUnits="userSpaceOnUse">
<stop stop-color="#FD355A"/>
<stop offset="1" stop-color="#FD5163"/>
</linearGradient>
<radialGradient id="paint1_radial_1403_158" cx="0" cy="0" r="1" gradientUnits="userSpaceOnUse" gradientTransform="translate(37.62 90.3884) rotate(90) scale(50.6131)">
<stop stop-color="#7470F9"/>
<stop offset="1" stop-color="#7A70FE" stop-opacity="0"/>
</radialGradient>
<radialGradient id="paint2_radial_1403_158" cx="0" cy="0" r="1" gradientUnits="userSpaceOnUse" gradientTransform="translate(77.5512 78.8361) rotate(-105.538) scale(40.854 40.854)">
<stop stop-color="#4CA3F8"/>
<stop offset="0.362" stop-color="#4CA4F7"/>
<stop offset="1" stop-color="#4AA2F9" stop-opacity="0"/>
</radialGradient>
<linearGradient id="paint3_linear_1403_158" x1="48.3018" y1="34.384" x2="65.9269" y2="66.381" gradientUnits="userSpaceOnUse">
<stop stop-color="#FF6380"/>
<stop offset="1" stop-color="#F65E79" stop-opacity="0"/>
</linearGradient>
<clipPath id="clip0_1403_158">
<rect width="120" height="120" fill="white"/>
</clipPath>
</defs>
</svg>
