<svg width="120" height="120" viewBox="0 0 120 120" fill="none" xmlns="http://www.w3.org/2000/svg">
<g clip-path="url(#clip0_1404_184)">
<path d="M94 0H26C11.6406 0 0 11.6406 0 26V94C0 108.359 11.6406 120 26 120H94C108.359 120 120 108.359 120 94V26C120 11.6406 108.359 0 94 0Z" fill="url(#paint0_linear_1404_184)"/>
<path fill-rule="evenodd" clip-rule="evenodd" d="M46.55 58.8401C46.57 57.1805 47.0108 55.5531 47.831 54.1102C48.6513 52.6673 49.8242 51.4562 51.24 50.5901C50.3397 49.31 49.1553 48.2557 47.7795 47.5097C46.4038 46.7637 44.874 46.3462 43.31 46.2901C39.94 45.9501 36.72 48.2901 35.01 48.2901C33.3 48.2901 30.66 46.3501 27.86 46.4101C26.0168 46.4525 24.2166 46.9759 22.638 47.9283C21.0593 48.8808 19.757 50.2292 18.86 51.8401C15.04 58.4701 17.86 68.3001 21.61 73.6801C23.43 76.3001 25.61 79.2701 28.45 79.1601C31.29 79.0501 32.23 77.3901 35.55 77.3901C38.87 77.3901 39.8 79.1601 42.71 79.1001C45.62 79.0401 47.53 76.4201 49.34 73.7801C50.635 71.8804 51.6456 69.8018 52.34 67.6101C50.6215 66.8768 49.1564 65.6545 48.1269 64.0953C47.0975 62.536 46.5491 60.7085 46.55 58.8401ZM41.1 42.7401C42.7373 40.8187 43.5464 38.3268 43.35 35.8101C40.8922 36.0599 38.6217 37.2363 37 39.1001C36.1834 40.0032 35.5585 41.0626 35.1631 42.2143C34.7678 43.3659 34.6102 44.5858 34.7 45.8001C35.9303 45.8165 37.1477 45.5489 38.2577 45.0182C39.3677 44.4875 40.3404 43.7079 41.1 42.7401Z" fill="#F9F9F9"/>
<path d="M72 52.8501V47.8501H65.91V40.8501H60.5V47.8501H55.78V52.8501H60.5V71.0001C60.5027 73.1528 61.359 75.2167 62.8812 76.7389C64.4035 78.2611 66.4673 79.1175 68.62 79.1201H71.33V73.7401H68.62C68.262 73.7388 67.9077 73.6668 67.5776 73.5283C67.2474 73.3898 66.9478 73.1874 66.6961 72.9328C66.4443 72.6783 66.2452 72.3765 66.1104 72.0448C65.9755 71.7132 65.9074 71.3581 65.91 71.0001V52.8501H72ZM97.3 46.4501L89.18 70.8301L81.05 46.4501H75.63L86.47 79.0001H91.89L102.72 46.4901L97.3 46.4501Z" fill="#F9F9F9"/>
</g>
<defs>
<linearGradient id="paint0_linear_1404_184" x1="60" y1="1.51" x2="60" y2="121.36" gradientUnits="userSpaceOnUse">
<stop stop-color="#333333"/>
<stop offset="1" stop-color="#111111"/>
</linearGradient>
<clipPath id="clip0_1404_184">
<rect width="120" height="120" fill="white"/>
</clipPath>
</defs>
</svg>
