<svg width="120" height="120" viewBox="0 0 120 120" fill="none" xmlns="http://www.w3.org/2000/svg">
<g clip-path="url(#clip0_1403_136)">
<path d="M94 0H26C11.6406 0 0 11.6406 0 26V94C0 108.359 11.6406 120 26 120H94C108.359 120 120 108.359 120 94V26C120 11.6406 108.359 0 94 0Z" fill="url(#paint0_linear_1403_136)"/>
<path d="M83 15H37C32.5817 15 29 18.5817 29 23V97C29 101.418 32.5817 105 37 105H83C87.4183 105 91 101.418 91 97V23C91 18.5817 87.4183 15 83 15Z" fill="#1C1C1C"/>
<path d="M81 21H39C36.7909 21 35 22.7909 35 25V38C35 40.2091 36.7909 42 39 42H81C83.2091 42 85 40.2091 85 38V25C85 22.7909 83.2091 21 81 21Z" fill="#505050"/>
<path d="M41 61C44.3137 61 47 58.3137 47 55C47 51.6863 44.3137 49 41 49C37.6863 49 35 51.6863 35 55C35 58.3137 37.6863 61 41 61Z" fill="#D4D4D2"/>
<path d="M60 61C63.3137 61 66 58.3137 66 55C66 51.6863 63.3137 49 60 49C56.6863 49 54 51.6863 54 55C54 58.3137 56.6863 61 60 61Z" fill="#D4D4D2"/>
<path d="M79 61C82.3137 61 85 58.3137 85 55C85 51.6863 82.3137 49 79 49C75.6863 49 73 51.6863 73 55C73 58.3137 75.6863 61 79 61Z" fill="#FE9500"/>
<path d="M41 80C44.3137 80 47 77.3137 47 74C47 70.6863 44.3137 68 41 68C37.6863 68 35 70.6863 35 74C35 77.3137 37.6863 80 41 80Z" fill="#D4D4D2"/>
<path d="M60 80C63.3137 80 66 77.3137 66 74C66 70.6863 63.3137 68 60 68C56.6863 68 54 70.6863 54 74C54 77.3137 56.6863 80 60 80Z" fill="#D4D4D2"/>
<path d="M79 80C82.3137 80 85 77.3137 85 74C85 70.6863 82.3137 68 79 68C75.6863 68 73 70.6863 73 74C73 77.3137 75.6863 80 79 80Z" fill="#FE9500"/>
<path d="M41 99C39.4087 99 37.8826 98.3679 36.7574 97.2426C35.6321 96.1174 35 94.5913 35 93C35 91.4087 35.6321 89.8826 36.7574 88.7574C37.8826 87.6321 39.4087 87 41 87H60C61.5913 87 63.1174 87.6321 64.2426 88.7574C65.3679 89.8826 66 91.4087 66 93C66 94.5913 65.3679 96.1174 64.2426 97.2426C63.1174 98.3679 61.5913 99 60 99H41Z" fill="#D4D4D2"/>
<path d="M79 99C82.3137 99 85 96.3137 85 93C85 89.6863 82.3137 87 79 87C75.6863 87 73 89.6863 73 93C73 96.3137 75.6863 99 79 99Z" fill="#FE9500"/>
</g>
<defs>
<linearGradient id="paint0_linear_1403_136" x1="59.25" y1="119.1" x2="60.76" y2="-0.160001" gradientUnits="userSpaceOnUse">
<stop stop-color="#D4D4D2"/>
<stop offset="1" stop-color="#D4D4D2"/>
</linearGradient>
<clipPath id="clip0_1403_136">
<rect width="120" height="120" fill="white"/>
</clipPath>
</defs>
</svg>
