<svg width="120" height="120" viewBox="0 0 120 120" fill="none" xmlns="http://www.w3.org/2000/svg">
<g clip-path="url(#clip0_1403_77)">
<path d="M26.0001 5.1832e-05H94.0001C97.4163 -0.00677356 100.8 0.661078 103.958 1.96528C107.115 3.26949 109.984 5.18437 112.4 7.60005C114.816 10.0157 116.731 12.8847 118.035 16.0422C119.339 19.1998 120.007 22.5838 120 26.0001V94.0001C120.007 97.4163 119.339 100.8 118.035 103.958C116.731 107.115 114.816 109.984 112.4 112.4C109.984 114.816 107.115 116.731 103.958 118.035C100.8 119.339 97.4163 120.007 94.0001 120H26.0001C22.5838 120.007 19.1998 119.339 16.0422 118.035C12.8847 116.731 10.0157 114.816 7.60005 112.4C5.18437 109.984 3.26949 107.115 1.96528 103.958C0.661078 100.8 -0.00677356 97.4163 5.1832e-05 94.0001V26.0001C-0.0067762 22.5838 0.661073 19.1998 1.96528 16.0422C3.26948 12.8847 5.18437 10.0157 7.60005 7.60005C10.0157 5.18437 12.8847 3.26948 16.0422 1.96528C19.1998 0.661073 22.5838 -0.0067762 26.0001 5.1832e-05Z" fill="url(#paint0_linear_1403_77)"/>
<path fill-rule="evenodd" clip-rule="evenodd" d="M35.1 36C41 36 42.4 31.2 43.1 30.1C43.8077 28.8653 44.8261 27.8373 46.0541 27.118C47.2821 26.3988 48.6769 26.0133 50.1 26H70.1C71.5381 25.999 72.9493 26.3893 74.1825 27.1292C75.4156 27.8691 76.4242 28.9306 77.1 30.2C77.7 31.3 79 36 85 36H98.1C99.6898 36.0047 101.213 36.6383 102.337 37.7625C103.462 38.8867 104.095 40.4101 104.1 42V85C104.095 86.5899 103.462 88.1133 102.337 89.2375C101.213 90.3617 99.6898 90.9953 98.1 91H22.1C20.5101 90.9953 18.9867 90.3617 17.8625 89.2375C16.7383 88.1133 16.1046 86.5899 16.1 85V42C16.1046 40.4101 16.7383 38.8867 17.8625 37.7625C18.9867 36.6383 20.5101 36.0047 22.1 36H35.1ZM60 81C63.6589 81 67.2357 79.915 70.278 77.8822C73.3203 75.8494 75.6915 72.9601 77.0918 69.5796C78.492 66.1992 78.8583 62.4795 78.1445 58.8908C77.4307 55.3022 75.6687 52.0058 73.0815 49.4185C70.4942 46.8313 67.1978 45.0693 63.6091 44.3555C60.0205 43.6416 56.3008 44.008 52.9203 45.4082C49.5399 46.8085 46.6506 49.1796 44.6178 52.222C42.585 55.2643 41.5 58.841 41.5 62.5C41.5058 67.4047 43.4568 72.1069 46.925 75.575C50.3931 79.0432 55.0953 80.9941 60 81ZM60 78C56.9344 78 53.9376 77.0909 51.3886 75.3878C48.8397 73.6846 46.853 71.2639 45.6798 68.4316C44.5067 65.5993 44.1997 62.4828 44.7978 59.4761C45.3959 56.4694 46.8721 53.7076 49.0398 51.5398C51.2075 49.3721 53.9694 47.8959 56.9761 47.2978C59.9828 46.6998 63.0993 47.0067 65.9316 48.1799C68.7638 49.353 71.1846 51.3397 72.8878 53.8887C74.5909 56.4376 75.5 59.4344 75.5 62.5C75.5066 64.5374 75.1103 66.5559 74.3337 68.4395C73.5571 70.323 72.4156 72.0344 70.975 73.475C69.5343 74.9156 67.823 76.0571 65.9394 76.8337C64.0559 77.6103 62.0373 78.0067 60 78ZM26 30H33C33.1334 29.9919 33.267 30.0123 33.392 30.0597C33.517 30.1071 33.6305 30.1805 33.725 30.275C33.8195 30.3695 33.8929 30.483 33.9403 30.608C33.9877 30.733 34.008 30.8666 34 31V34H25V31C24.9919 30.8666 25.0123 30.733 25.0597 30.608C25.1071 30.483 25.1805 30.3695 25.275 30.275C25.3695 30.1805 25.483 30.1071 25.608 30.0597C25.7329 30.0123 25.8666 29.9919 26 30Z" fill="#2E2E2F"/>
<path d="M82 47.2001C83.215 47.2001 84.2 46.2151 84.2 45C84.2 43.785 83.215 42.8 82 42.8C80.785 42.8 79.8 43.785 79.8 45C79.8 46.2151 80.785 47.2001 82 47.2001Z" fill="#FFCC00"/>
</g>
<defs>
<linearGradient id="paint0_linear_1403_77" x1="60.0001" y1="120" x2="60.0001" y2="5.72205e-05" gradientUnits="userSpaceOnUse">
<stop stop-color="#8E8E93"/>
<stop offset="1" stop-color="#E5E5EA"/>
</linearGradient>
<clipPath id="clip0_1403_77">
<rect width="120" height="120" fill="white"/>
</clipPath>
</defs>
</svg>
