<svg width="120" height="120" viewBox="0 0 120 120" fill="none" xmlns="http://www.w3.org/2000/svg">
<g clip-path="url(#clip0_1402_52)">
<path fill-rule="evenodd" clip-rule="evenodd" d="M5.17919e-05 94.0001V26.0001C-0.0067736 22.5838 0.661078 19.1998 1.96528 16.0422C3.26949 12.8847 5.18437 10.0157 7.60005 7.60005C10.0157 5.18437 12.8847 3.26949 16.0422 1.96528C19.1998 0.661078 22.5838 -0.0067736 26.0001 5.17919e-05H94.0001C97.4163 -0.0067736 100.8 0.661078 103.958 1.96528C107.115 3.26949 109.984 5.18437 112.4 7.60005C114.816 10.0157 116.731 12.8847 118.035 16.0422C119.339 19.1998 120.007 22.5838 120 26.0001V94.0001C120.007 97.4163 119.339 100.8 118.035 103.958C116.731 107.115 114.816 109.984 112.4 112.4C109.984 114.816 107.115 116.731 103.958 118.035C100.8 119.339 97.4163 120.007 94.0001 120H26.0001C19.1054 119.997 12.494 117.257 7.61879 112.381C2.74353 107.506 0.00323174 100.895 5.17919e-05 94.0001Z" fill="#202021"/>
<path d="M60.1 112C88.8188 112 112.1 88.7188 112.1 60C112.1 31.2812 88.8188 8 60.1 8C31.3812 8 8.09998 31.2812 8.09998 60C8.09998 88.7188 31.3812 112 60.1 112Z" fill="#F6F5F8"/>
<path d="M82.0754 29.001H83.6067V19.1367H82.0754L79.4778 20.9824V22.4863L81.9592 20.7158H82.0754V29.001Z" fill="black"/>
<path d="M94.7294 44.001H101.374V42.6953H96.8143V42.5586L98.9061 40.4736C100.697 38.6963 101.217 37.835 101.217 36.7139V36.6934C101.217 35.0664 99.8632 33.8975 98.0243 33.8975C96.0419 33.8975 94.6473 35.1689 94.6405 36.9736L94.6542 36.9873H96.0897L96.0966 36.9668C96.0966 35.8867 96.8348 35.1621 97.9423 35.1621C99.0223 35.1621 99.6854 35.873 99.6854 36.8369V36.8574C99.6854 37.6572 99.3094 38.1631 98.0038 39.5234L94.7294 42.9619V44.001Z" fill="black"/>
<path d="M103.03 65.1855C105.122 65.1855 106.605 63.9688 106.605 62.2734V62.2598C106.605 60.8789 105.635 60.0039 104.185 59.874V59.8398C105.388 59.5869 106.263 58.7666 106.263 57.543V57.5293C106.263 56.0049 104.978 54.9521 103.016 54.9521C101.089 54.9521 99.7761 56.0527 99.6257 57.7139L99.6189 57.7891H101.054L101.061 57.7207C101.157 56.791 101.923 56.21 103.016 56.21C104.131 56.21 104.773 56.7705 104.773 57.7275V57.7412C104.773 58.6572 104.008 59.3203 102.88 59.3203H101.724V60.5098H102.927C104.24 60.5098 105.047 61.1318 105.047 62.2461V62.2598C105.047 63.2305 104.233 63.9072 103.03 63.9072C101.806 63.9072 100.979 63.2783 100.884 62.3828L100.877 62.3145H99.4138L99.4207 62.3965C99.5505 64.0303 100.925 65.1855 103.03 65.1855Z" fill="black"/>
<path d="M97.9539 86.001H99.4304V84.0391H100.791V82.7402H99.4304V76.1367H97.2498C95.8894 78.1807 94.4402 80.5117 93.1414 82.7402V84.0391H97.9539V86.001ZM94.6111 82.7676V82.6719C95.6228 80.9424 96.8259 79.0215 97.8855 77.4287H97.9744V82.7676H94.6111Z" fill="black"/>
<path d="M81.0204 101.24C83.0985 101.24 84.5614 99.8457 84.5614 97.8223V97.8086C84.5614 95.915 83.2352 94.5342 81.3827 94.5342C80.4735 94.5342 79.701 94.917 79.2841 95.5801H79.1678L79.4686 92.4355H84.0009V91.1367H78.2655L77.7733 96.8652H79.0927C79.2089 96.6396 79.3661 96.4482 79.5438 96.291C79.9335 95.9355 80.4462 95.7578 81.0477 95.7578C82.2372 95.7578 83.0985 96.6191 83.0985 97.8359V97.8496C83.0985 99.0869 82.2509 99.9551 81.0341 99.9551C79.954 99.9551 79.1678 99.2646 79.038 98.3965L79.0311 98.3418H77.5956L77.6024 98.4307C77.7391 100.03 79.079 101.24 81.0204 101.24Z" fill="black"/>
<path d="M60.11 107.24C62.1813 107.24 63.6783 105.791 63.6783 103.809V103.795C63.6783 101.908 62.3317 100.514 60.4518 100.514C59.1051 100.514 58.2164 101.218 57.8541 102.011H57.7242C57.7242 101.936 57.7242 101.86 57.7311 101.785C57.8063 99.8164 58.4967 98.1963 60.1578 98.1963C61.0875 98.1963 61.7301 98.6748 62.0035 99.4268L62.0309 99.4951H63.5485L63.5348 99.4131C63.2067 97.9229 61.9078 96.8975 60.1647 96.8975C57.7242 96.8975 56.2682 98.8662 56.2682 102.202V102.216C56.2682 105.846 58.1276 107.24 60.11 107.24ZM58.025 103.809V103.802C58.025 102.612 58.9274 101.751 60.11 101.751C61.3063 101.751 62.1676 102.626 62.1676 103.836V103.85C62.1676 105.032 61.2516 105.955 60.0963 105.955C58.9342 105.955 58.025 105.012 58.025 103.809Z" fill="black"/>
<path d="M36.4064 101.001H38.0128L42.3058 92.4629V91.1367H35.5861V92.4287H40.754V92.5381L36.4064 101.001Z" fill="black"/>
<path d="M22.9595 86.1855C25.1538 86.1855 26.6987 85.0098 26.6987 83.335V83.3213C26.6987 82.0771 25.8032 81.0859 24.5112 80.8057V80.7715C25.6187 80.457 26.3364 79.6299 26.3364 78.584V78.5703C26.3364 77.0596 24.9282 75.9521 22.9595 75.9521C20.9976 75.9521 19.5825 77.0596 19.5825 78.5703V78.584C19.5825 79.6299 20.3071 80.457 21.4146 80.7715V80.8057C20.1226 81.0859 19.2271 82.0771 19.2271 83.3213V83.335C19.2271 85.0098 20.772 86.1855 22.9595 86.1855ZM22.9595 80.2588C21.8589 80.2588 21.1001 79.6162 21.1001 78.7139V78.7002C21.1001 77.7979 21.8589 77.1689 22.9595 77.1689C24.0601 77.1689 24.8188 77.7979 24.8188 78.7002V78.7139C24.8188 79.6162 24.0669 80.2588 22.9595 80.2588ZM22.9595 84.9551C21.7017 84.9551 20.8062 84.2373 20.8062 83.2393V83.2256C20.8062 82.2139 21.6948 81.4824 22.9595 81.4824C24.231 81.4824 25.1196 82.2139 25.1196 83.2256V83.2393C25.1196 84.2373 24.2241 84.9551 22.9595 84.9551Z" fill="black"/>
<path d="M15.8434 54.8975C13.7721 54.8975 12.2682 56.3467 12.2682 58.3291V58.3428C12.2682 60.2295 13.6217 61.624 15.5016 61.624C16.8414 61.624 17.7369 60.9199 18.0924 60.127H18.2291C18.2291 60.2021 18.2223 60.2773 18.2223 60.3525C18.1471 62.3213 17.4498 63.9414 15.7887 63.9414C14.8658 63.9414 14.2233 63.4629 13.943 62.7109L13.9225 62.6426H12.3981L12.4186 62.7246C12.7399 64.2148 14.0387 65.2402 15.7887 65.2402C18.2291 65.2402 19.6852 63.2715 19.6852 59.9287V59.915C19.6852 56.292 17.819 54.8975 15.8434 54.8975ZM15.8365 60.3867C14.6471 60.3867 13.7789 59.5117 13.7789 58.3018V58.2881C13.7789 57.1055 14.7018 56.1826 15.8571 56.1826C17.0192 56.1826 17.9283 57.126 17.9283 58.3291V58.3359C17.9283 59.5254 17.0192 60.3867 15.8365 60.3867Z" fill="black"/>
<path d="M19.4244 45.001H20.9557V35.1367H19.4244L16.8268 36.9824V38.4863L19.3082 36.7158H19.4244V45.001ZM27.2311 45.2402C29.5006 45.2402 30.8746 43.251 30.8746 40.0723V40.0586C30.8746 36.8799 29.5006 34.8975 27.2311 34.8975C24.9547 34.8975 23.5875 36.8799 23.5875 40.0586V40.0723C23.5875 43.251 24.9547 45.2402 27.2311 45.2402ZM27.2311 43.9688C25.9049 43.9688 25.1324 42.4854 25.1324 40.0723V40.0586C25.1324 37.6455 25.9049 36.1758 27.2311 36.1758C28.5504 36.1758 29.3297 37.6455 29.3297 40.0586V40.0723C29.3297 42.4854 28.5504 43.9688 27.2311 43.9688Z" fill="black"/>
<path d="M35.6025 29.001H37.1338V19.1367H35.6025L33.0049 20.9824V22.4863L35.4863 20.7158H35.6025V29.001ZM42.3428 29.001H43.874V19.1367H42.3428L39.7451 20.9824V22.4863L42.2266 20.7158H42.3428V29.001Z" fill="black"/>
<path d="M55.6694 22.001H57.2007V12.1367H55.6694L53.0718 13.9824V15.4863L55.5532 13.7158H55.6694V22.001ZM59.9966 22.001H66.6411V20.6953H62.0815V20.5586L64.1733 18.4736C65.9644 16.6963 66.4839 15.835 66.4839 14.7139V14.6934C66.4839 13.0664 65.1304 11.8975 63.2915 11.8975C61.3091 11.8975 59.9146 13.1689 59.9077 14.9736L59.9214 14.9873H61.3569L61.3638 14.9668C61.3638 13.8867 62.1021 13.1621 63.2095 13.1621C64.2896 13.1621 64.9526 13.873 64.9526 14.8369V14.8574C64.9526 15.6572 64.5767 16.1631 63.271 17.5234L59.9966 20.9619V22.001Z" fill="black"/>
<path fill-rule="evenodd" clip-rule="evenodd" d="M60.1 59.5C60.2248 59.4624 60.356 59.4509 60.4854 59.4661C60.6148 59.4814 60.7397 59.5232 60.8523 59.5889C60.9649 59.6546 61.0628 59.7427 61.1398 59.8479C61.2168 59.953 61.2713 60.0729 61.3 60.2L73.8 104.5C73.8376 104.625 73.8492 104.756 73.8339 104.885C73.8186 105.015 73.7768 105.14 73.7111 105.252C73.6455 105.365 73.5573 105.463 73.4522 105.54C73.347 105.617 73.2271 105.671 73.1 105.7C72.9752 105.738 72.844 105.749 72.7146 105.734C72.5851 105.719 72.4602 105.677 72.3477 105.611C72.2351 105.546 72.1372 105.457 72.0602 105.352C71.9832 105.247 71.9286 105.127 71.9 105L59.4 60.7C59.3516 60.5756 59.332 60.4418 59.3425 60.3087C59.353 60.1756 59.3934 60.0466 59.4606 59.9313C59.5279 59.8159 59.6203 59.7173 59.731 59.6426C59.8417 59.5679 59.9678 59.5192 60.1 59.5Z" fill="black"/>
<path fill-rule="evenodd" clip-rule="evenodd" d="M72 15.5C72.1279 15.5347 72.2389 15.6147 72.3125 15.725C72.386 15.8353 72.4171 15.9685 72.4 16.1L58.7 67.3C58.6652 67.4279 58.5853 67.5389 58.475 67.6125C58.3646 67.686 58.2314 67.7171 58.0999 67.7C57.7999 67.7 57.7 67.4 57.7 67.1L71.4 15.9C71.4017 15.8293 71.4204 15.76 71.4545 15.6981C71.4887 15.6361 71.5372 15.5833 71.596 15.5441C71.6549 15.5049 71.7223 15.4804 71.7926 15.4727C71.8629 15.465 71.934 15.4744 72 15.5Z" fill="#FE9124"/>
<path fill-rule="evenodd" clip-rule="evenodd" d="M29.7 51.8C29.7286 51.6729 29.7832 51.553 29.8602 51.4478C29.9372 51.3427 30.035 51.2545 30.1476 51.1889C30.2602 51.1232 30.3851 51.0814 30.5145 51.0661C30.644 51.0508 30.7752 51.0624 30.9 51.1L59.9 58.9C60.0271 58.9287 60.147 58.9832 60.2521 59.0602C60.3573 59.1372 60.4454 59.2351 60.5111 59.3477C60.5768 59.4603 60.6186 59.5852 60.6338 59.7146C60.6491 59.844 60.6376 59.9752 60.6 60.1C60.5713 60.2271 60.5168 60.347 60.4397 60.4522C60.3627 60.5573 60.2649 60.6455 60.1523 60.7111C60.0397 60.7768 59.9148 60.8186 59.7854 60.8339C59.6559 60.8492 59.5247 60.8376 59.4 60.8L30.4 53C30.1615 52.9133 29.9609 52.7458 29.833 52.5266C29.7051 52.3074 29.6581 52.0503 29.7 51.8Z" fill="black"/>
<path d="M60.1 63C61.7568 63 63.1 61.6569 63.1 60C63.1 58.3431 61.7568 57 60.1 57C58.4431 57 57.1 58.3431 57.1 60C57.1 61.6569 58.4431 63 60.1 63Z" fill="black"/>
</g>
<defs>
<clipPath id="clip0_1402_52">
<rect width="120" height="120" fill="white"/>
</clipPath>
</defs>
</svg>
