<svg width="120" height="120" viewBox="0 0 120 120" fill="none" xmlns="http://www.w3.org/2000/svg">
<g clip-path="url(#clip0_1404_193)">
<path fill-rule="evenodd" clip-rule="evenodd" d="M24.6094 0H95.3906C101.912 0.0180396 108.161 2.6166 112.772 7.22785C117.383 11.8391 119.982 18.0881 120 24.6094V95.3906C119.982 101.912 117.383 108.161 112.772 112.772C108.161 117.383 101.912 119.982 95.3906 120H24.6094C18.0881 119.982 11.8391 117.383 7.22785 112.772C2.6166 108.161 0.0180396 101.912 0 95.3906L0 24.6094C0.0180396 18.0881 2.6166 11.8391 7.22785 7.22785C11.8391 2.6166 18.0881 0.0180396 24.6094 0Z" fill="#EA4C89"/>
<path fill-rule="evenodd" clip-rule="evenodd" d="M60 95.4981C52.9792 95.4981 46.116 93.4161 40.2784 89.5156C34.4407 85.615 29.8909 80.071 27.2041 73.5845C24.5173 67.0981 23.8144 59.9606 25.1841 53.0747C26.5538 46.1887 29.9346 39.8636 34.8991 34.8991C39.8636 29.9346 46.1887 26.5538 53.0747 25.1841C59.9606 23.8144 67.0981 24.5173 73.5845 27.2041C80.071 29.8909 85.615 34.4407 89.5156 40.2784C93.4161 46.116 95.4981 52.9792 95.4981 60C95.4903 69.4123 91.7479 78.4369 85.0924 85.0924C78.4369 91.7479 69.4123 95.4903 60 95.4981ZM83.4375 40.8789C82.793 41.7383 77.7051 48.2617 66.5039 52.832C67.207 54.2774 67.8906 55.7617 68.5156 57.2363C68.7403 57.7637 68.9551 58.2715 69.1699 58.7988C76.2172 58.0775 83.3326 58.4067 90.2832 59.7754C90.2244 52.8876 87.8123 46.2269 83.4473 40.8985L83.4375 40.8789ZM89.8926 64.8535C83.766 63.0724 77.3275 62.6327 71.0156 63.5645C73.5767 70.5895 75.5368 77.8192 76.875 85.1758C80.317 82.8592 83.246 79.8599 85.4803 76.3639C87.7146 72.868 89.2065 68.9501 89.8633 64.8535H89.8926ZM71.8457 87.9492C70.4353 80.1016 68.2871 72.4047 65.4297 64.961L65.2344 65.0391C48.0762 70.9961 41.9336 82.8516 41.3965 83.9844C45.6544 87.3052 50.7231 89.4268 56.0771 90.1291C61.431 90.8314 66.8754 90.0889 71.8457 87.9785V87.9492ZM37.4707 80.3125C38.1641 79.1016 46.4844 65.3613 62.1094 60.3028C62.5 60.1856 62.9004 60.0586 63.3008 59.9512C62.5391 58.2227 61.709 56.4942 60.8496 54.8047C50.7187 57.6956 40.2325 59.1518 29.6973 59.1309C29.6973 59.4434 29.6973 59.7461 29.6973 60.1074C29.7006 67.5938 32.4849 74.812 37.5098 80.3613L37.4707 80.3125ZM30.332 53.8281C39.7942 53.7676 49.2121 52.5309 58.3692 50.1465C54.9471 44.0836 51.1913 38.2152 47.1192 32.5684C42.8684 34.5738 39.1404 37.5371 36.2277 41.2259C33.315 44.9146 31.297 49.2282 30.332 53.8281ZM52.9004 30.5664C57.0534 36.2298 60.8342 42.157 64.2188 48.3106C75 44.2774 79.5606 38.1348 80.0781 37.3633C74.5422 32.4316 67.3848 29.7098 59.9707 29.7168C57.5799 29.7342 55.1985 30.0191 52.8711 30.5664H52.9004Z" fill="white"/>
</g>
<defs>
<clipPath id="clip0_1404_193">
<rect width="120" height="120" fill="white"/>
</clipPath>
</defs>
</svg>
