<svg width="120" height="120" viewBox="0 0 120 120" fill="none" xmlns="http://www.w3.org/2000/svg">
<path fill-rule="evenodd" clip-rule="evenodd" d="M91.4062 0C108.75 0 120 11.25 120 28.5938V91.4062C120 108.75 108.75 120 91.4062 120H28.5938C11.25 120 0 108.75 0 91.4062V28.5938C0 11.25 11.25 0 28.5938 0H91.4062Z" fill="#252525"/>
<g clip-path="url(#clip0_1404_207)">
<path d="M46.3333 100C53.6901 100 59.6667 94.0301 59.6667 86.6668V73.3335H46.3333C38.9766 73.3335 33 79.3036 33 86.6668C33 94.0301 38.9766 100 46.3333 100Z" fill="#0ACF83"/>
<path d="M33 59.9998C33 52.6431 38.9766 46.6665 46.3333 46.6665H59.6667V73.3332H46.3333C38.9766 73.3332 33 67.3631 33 59.9998Z" fill="#A259FF"/>
<path d="M33 33.3333C33 25.9766 38.9766 20 46.3333 20H59.6667V46.6667H46.3333C38.9766 46.6667 33 40.6966 33 33.3333Z" fill="#F24E1E"/>
<path d="M59.6666 20H73C80.3567 20 86.3333 25.9766 86.3333 33.3333C86.3333 40.6966 80.3632 46.6667 73 46.6667H59.6666V20Z" fill="#FF7262"/>
<path d="M86.3333 59.9998C86.3333 67.3631 80.3632 73.3332 73 73.3332C65.6367 73.3332 59.6666 67.3631 59.6666 59.9998C59.6666 52.6431 65.6367 46.6665 73 46.6665C80.3632 46.6665 86.3333 52.6431 86.3333 59.9998Z" fill="#1ABCFE"/>
</g>
<defs>
<clipPath id="clip0_1404_207">
<rect width="53.3333" height="80" fill="white" transform="translate(33 20)"/>
</clipPath>
</defs>
</svg>
