<svg width="120" height="120" viewBox="0 0 120 120" fill="none" xmlns="http://www.w3.org/2000/svg">
<path fill-rule="evenodd" clip-rule="evenodd" d="M91.4062 0C108.75 0 120 11.25 120 28.5938V91.4062C120 108.75 108.75 120 91.4062 120H28.5938C11.25 120 0 108.75 0 91.4062V28.5938C0 11.25 11.25 0 28.5938 0H91.4062Z" fill="url(#paint0_linear_1404_216)"/>
<mask id="mask0_1404_216" style="mask-type:alpha" maskUnits="userSpaceOnUse" x="0" y="0" width="120" height="120">
<path fill-rule="evenodd" clip-rule="evenodd" d="M91.4062 0C108.75 0 120 11.25 120 28.5938V91.4062C120 108.75 108.75 120 91.4062 120H28.5938C11.25 120 0 108.75 0 91.4062V28.5938C0 11.25 11.25 0 28.5938 0H91.4062Z" fill="white"/>
</mask>
<g mask="url(#mask0_1404_216)">
<path fill-rule="evenodd" clip-rule="evenodd" d="M117.486 12.9812L96.4281 33.6522C96.4281 33.6522 91.9101 37.8902 94.4291 40.1292C94.4291 40.1292 97.9691 44.9282 105.575 41.4492C105.575 41.4492 111.249 40.1262 109.614 50.9032C107.979 61.6812 93.6651 63.2482 93.6651 63.2482C93.6651 63.2482 86.1941 64.0322 86.6121 74.7412C86.6121 74.7412 88.9131 95.8362 73.9611 104.79C73.9611 104.79 56.2221 117.546 38.3991 107.409C20.5751 97.2722 15.6761 86.3752 15.6761 86.3752C15.6761 86.3752 10.5231 78.5202 10.0161 64.5822C9.50904 50.6442 21.1671 41.6902 21.1671 41.6902C21.1671 41.6902 29.7831 33.5812 44.7341 34.3412C44.7341 34.3412 55.4621 35.8612 57.5741 30.4552C57.5741 30.4552 60.8681 14.9122 71.0051 10.8582C71.0051 10.8582 81.3951 8.15519 79.0301 17.9532C76.6651 27.7522 81.5641 27.2452 81.5641 27.2452C81.5641 27.2452 83.2531 27.8372 85.1121 25.7252C86.9701 23.6132 108.764 2.24219 108.764 2.24219L117.486 12.9812ZM45.7565 61.0789C44.9312 60.2536 44.9312 58.9155 45.7565 58.0902C46.5818 57.2649 47.9198 57.2649 48.7451 58.0902L61.3832 70.7283C62.2085 71.5536 62.2085 72.8916 61.3832 73.7169C60.5579 74.5422 59.2198 74.5422 58.3945 73.7169L45.7565 61.0789ZM23.0127 52.5028C22.7968 51.5785 22.9378 50.1868 24.5105 49.94C26.9205 49.562 26.4395 52.05 26.4395 52.05C27.2925 52.383 32.1265 50.324 32.1265 50.324C37.4763 48.7003 38.9598 45.09 39.1169 44.6676L39.4227 50.7402C36.351 50.231 31.2607 52.4466 28.1015 53.908C24.9355 55.373 23.4715 53.341 23.4715 53.341C23.4715 53.341 23.1275 52.9943 23.0127 52.5028ZM39.4374 50.7426C39.4287 50.7662 39.4247 50.7785 39.4247 50.7785L39.4227 50.7402L39.4374 50.7426ZM39.4392 50.7379L39.4395 50.743L39.4374 50.7426L39.4392 50.7379ZM39.1334 44.6653C42.2052 45.1744 47.2954 42.9588 50.4547 41.4975C53.6207 40.0325 55.0847 42.0645 55.0847 42.0645C55.0847 42.0645 55.4287 42.4111 55.5434 42.9026C55.7593 43.8269 55.6184 45.2187 54.0457 45.4655C51.6357 45.8435 52.1167 43.3555 52.1167 43.3555C51.2637 43.0225 46.4297 45.0815 46.4297 45.0815C41.0799 46.7051 39.5963 50.3155 39.4392 50.7379L39.1334 44.6653ZM39.1187 44.6628C39.1274 44.6393 39.1315 44.627 39.1315 44.627L39.1334 44.6653L39.1187 44.6628ZM39.1187 44.6628L39.1167 44.6625L39.1169 44.6676L39.1187 44.6628ZM55.506 51.1243C55.506 51.1243 70.5343 65.8361 74.7642 71.0071C74.7642 71.0071 76.2082 72.5621 75.2588 74.3357C73.3047 79.0873 69.8913 80.2846 69.4752 80.4304C69.8229 83.5246 67.3439 88.4919 65.7192 91.5704C64.0905 94.6553 66.0431 96.2237 66.0431 96.2237C66.0431 96.2237 66.3713 96.5853 66.8561 96.7257C67.7678 96.9896 69.1651 96.9217 69.4938 95.3641C69.9974 92.9772 67.4877 93.3273 67.4877 93.3273C67.1998 92.4581 69.5089 87.7384 69.5089 87.7384C71.4104 82.4809 75.0934 81.1884 75.5266 81.0373C75.3329 79.3135 76.0165 77.0083 76.941 74.7723C77.0582 74.2291 78.0986 74.0811 78.9862 74.2291C78.9862 74.2291 80.5412 74.7851 82.4302 72.2851C82.4302 72.2851 85.3742 68.6181 86.7082 58.3401C86.7082 58.3401 86.6522 53.9521 91.2082 49.8411C91.2082 49.8411 95.8742 45.7851 92.3742 42.1741L78.4232 28.2451L71.2453 35.3989L81.8192 46.1191L73.4862 54.5071L62.8157 43.8493L55.506 51.1243ZM57.7188 50.9085L62.6686 45.9587L74.1577 57.4478L69.2079 62.3976L57.7188 50.9085ZM78.2663 30.3067L73.3166 35.2565L84.8057 46.7456L89.7554 41.7958L78.2663 30.3067Z" fill="white"/>
</g>
<defs>
<linearGradient id="paint0_linear_1404_216" x1="0" y1="0" x2="0" y2="120" gradientUnits="userSpaceOnUse">
<stop stop-color="#ED3342"/>
<stop offset="1" stop-color="#FABF30"/>
</linearGradient>
</defs>
</svg>
