<svg width="120" height="120" viewBox="0 0 120 120" fill="none" xmlns="http://www.w3.org/2000/svg">
<path fill-rule="evenodd" clip-rule="evenodd" d="M91.4062 0C108.75 0 120 11.25 120 28.5938V91.4062C120 108.75 108.75 120 91.4062 120H28.5938C11.25 120 0 108.75 0 91.4062V28.5938C0 11.25 11.25 0 28.5938 0H91.4062Z" fill="white"/>
<g clip-path="url(#clip0_1405_41)">
<path d="M80.9952 39.0015H38.9269V80.7305H80.9952V39.0015Z" fill="white"/>
<path d="M80.9951 99.5047L99.9219 80.7305H80.9951V99.5047Z" fill="#F72A25"/>
<path d="M99.9219 39.0015H80.9951V80.7305H99.9219V39.0015Z" fill="#FBBC04"/>
<path d="M80.9952 80.7305H38.9269V99.5047H80.9952V80.7305Z" fill="#34A853"/>
<path d="M20 80.7305V93.2466C20 96.7047 22.8228 99.5047 26.3089 99.5047H38.9268V80.7305H20Z" fill="#188038"/>
<path d="M99.9219 39.0012V26.4851C99.9219 23.0271 97.0992 20.2271 93.613 20.2271H80.9951V39.0012H99.9219Z" fill="#1967D2"/>
<path d="M80.9951 20.2271H26.3089C22.8228 20.2271 20 23.0271 20 26.4851V80.7303H38.9268V39.0012H80.9886V20.2271H80.9951Z" fill="#4285F4"/>
<path d="M47.5577 71.3691C45.9837 70.3174 44.8975 68.7755 44.3057 66.7432L47.9544 65.2529C48.2862 66.5045 48.865 67.4723 49.691 68.1626C50.5105 68.8529 51.5122 69.1884 52.6764 69.1884C53.8731 69.1884 54.8943 68.8271 55.7528 68.111C56.6114 67.3884 57.0406 66.4723 57.0406 65.3626C57.0406 64.2271 56.5853 63.2981 55.6813 62.5755C54.7772 61.8529 53.639 61.4981 52.2862 61.4981H50.1788V57.9174H52.0715C53.2357 57.9174 54.2244 57.6078 55.0244 56.9755C55.8244 56.3497 56.2211 55.4916 56.2211 54.4013C56.2211 53.4336 55.8634 52.6594 55.1479 52.0787C54.4325 51.4981 53.5284 51.2078 52.4292 51.2078C51.3561 51.2078 50.504 51.4916 49.8731 52.0594C49.2423 52.6271 48.7675 53.3497 48.4943 54.1497L44.8845 52.6594C45.3658 51.311 46.2439 50.1239 47.5317 49.0981C48.8195 48.0723 50.465 47.5562 52.4618 47.5562C53.9382 47.5562 55.2715 47.84 56.4488 48.4078C57.626 48.9755 58.5496 49.7626 59.2195 50.7626C59.8894 51.7691 60.2211 52.8981 60.2211 54.1497C60.2211 55.4271 59.9089 56.5045 59.291 57.3949C58.6731 58.2787 57.9057 58.9626 57.0016 59.4336V59.6465C58.1658 60.1239 59.187 60.911 59.9349 61.9174C60.6959 62.9368 61.0796 64.1497 61.0796 65.5691C61.0796 66.9884 60.7154 68.2529 59.9935 69.3626C59.265 70.4723 58.2634 71.3497 56.9886 71.9884C55.7138 72.6271 54.2764 72.9497 52.6829 72.9497C50.8357 72.9497 49.1317 72.4271 47.5577 71.3691ZM69.9707 53.4078L65.9642 56.2787L63.9609 53.2658L71.1479 48.1239H73.9057V72.382H69.9707V53.4078Z" fill="#1A73E8"/>
</g>
<defs>
<clipPath id="clip0_1405_41">
<rect width="80" height="80" fill="white" transform="translate(20 20)"/>
</clipPath>
</defs>
</svg>
