<svg width="120" height="120" viewBox="0 0 120 120" fill="none" xmlns="http://www.w3.org/2000/svg">
<path fill-rule="evenodd" clip-rule="evenodd" d="M91.2759 0.249023C108.548 0.249023 119.751 11.4523 119.751 28.7242V91.2759C119.751 108.548 108.548 119.751 91.2759 119.751H28.7242C11.4523 119.751 0.249023 108.548 0.249023 91.2759V28.7242C0.249023 11.4523 11.4523 0.249023 28.7242 0.249023H91.2759Z" fill="white"/>
<path fill-rule="evenodd" clip-rule="evenodd" d="M91.2759 0.249023C108.548 0.249023 119.751 11.4523 119.751 28.7242V91.2759C119.751 108.548 108.548 119.751 91.2759 119.751H28.7242C11.4523 119.751 0.249023 108.548 0.249023 91.2759V28.7242C0.249023 11.4523 11.4523 0.249023 28.7242 0.249023H91.2759Z" fill="white"/>
<path fill-rule="evenodd" clip-rule="evenodd" d="M8.18564 8.18564C3.27988 13.0914 0.497925 20.143 0.497925 28.7241V91.2759C0.497925 99.8569 3.27988 106.909 8.18564 111.814C13.0914 116.72 20.143 119.502 28.7241 119.502H91.2759C99.8569 119.502 106.909 116.72 111.814 111.814C116.72 106.909 119.502 99.8569 119.502 91.2759V28.7241C119.502 20.143 116.72 13.0914 111.814 8.18564C106.909 3.27988 99.8569 0.497925 91.2759 0.497925H28.7241C20.143 0.497925 13.0914 3.27988 8.18564 8.18564ZM7.83356 7.83356C12.8474 2.81971 20.0333 0 28.7241 0H91.2759C99.9667 0 107.153 2.81971 112.166 7.83356C117.18 12.8474 120 20.0333 120 28.7241V91.2759C120 99.9667 117.18 107.153 112.166 112.166C107.153 117.18 99.9667 120 91.2759 120H28.7241C20.0333 120 12.8474 117.18 7.83356 112.166C2.81971 107.153 0 99.9667 0 91.2759V28.7241C0 20.0333 2.81971 12.8474 7.83356 7.83356Z" fill="#A4A4A4"/>
<path fill-rule="evenodd" clip-rule="evenodd" d="M48.5733 22.3446C38.9153 25.6552 30.6858 32.8957 26.102 42.0586C24.5031 45.2197 23.3518 48.5731 22.6482 52.0545C20.9 60.6834 22.1152 69.889 26.0807 77.7491C28.6604 82.8751 32.3701 87.4459 36.8473 91.0128C41.09 94.3875 46.0148 96.9079 51.2596 98.2962C57.8687 100.069 64.9043 100.026 71.5562 98.5097C77.5684 97.1214 83.2608 94.238 87.802 90.0516C92.5989 85.6305 96.0315 79.8209 97.8437 73.5627C99.8261 66.7493 100.082 59.466 98.8462 52.4604C86.4162 52.4604 73.9654 52.4604 61.5358 52.4604C61.5358 57.6291 61.5358 62.7979 61.5358 67.9668C68.7419 67.9668 75.9481 67.9668 83.1543 67.9668C82.3228 72.922 79.3806 77.45 75.2232 80.248C72.6009 82.0208 69.5948 83.1528 66.4821 83.7082C63.3693 84.2421 60.1287 84.3062 57.016 83.6868C53.8393 83.046 50.8332 81.7217 48.1895 79.8636C43.9682 76.8947 40.7489 72.5589 39.1072 67.6677C37.4229 62.6911 37.4016 57.1592 39.1072 52.204C40.3011 48.7012 42.2626 45.476 44.8636 42.8275C48.0616 39.5383 52.219 37.1888 56.7175 36.2277C60.555 35.4161 64.6059 35.5656 68.3582 36.6975C71.5562 37.6587 74.4983 39.4315 76.9075 41.7382C79.338 39.3034 81.7685 36.8684 84.1989 34.4336C85.4781 33.1307 86.8213 31.8705 88.0579 30.5249C84.3695 27.1075 80.0202 24.3522 75.2872 22.6008C66.7592 19.4398 57.1652 19.3756 48.5733 22.3446Z" fill="white"/>
<path fill-rule="evenodd" clip-rule="evenodd" d="M48.5731 22.3446C57.1437 19.3756 66.759 19.4398 75.287 22.5795C80.0199 24.3309 84.3479 27.0648 88.0576 30.5036C86.821 31.8492 85.4779 33.1093 84.1986 34.4122C81.7682 36.8472 79.3377 39.282 76.9072 41.7169C74.4981 39.4102 71.5559 37.6588 68.3579 36.6763C64.6057 35.5443 60.5549 35.3734 56.7172 36.2063C52.2401 37.1675 48.0827 39.5169 44.8633 42.8062C42.2624 45.4334 40.3008 48.6799 39.107 52.1827C34.7791 48.808 30.4511 45.4547 26.1018 42.08C30.6856 32.8957 38.9151 25.6552 48.5731 22.3446Z" fill="#EA4335"/>
<path fill-rule="evenodd" clip-rule="evenodd" d="M22.6693 52.033C23.3728 48.5729 24.5241 45.1981 26.1232 42.0371C30.4511 45.4117 34.779 48.7651 39.1283 52.1397C37.4227 57.1164 37.4227 62.6482 39.1283 67.6035C34.8003 70.9781 30.4725 74.3529 26.1445 77.7062C22.1363 69.8674 20.9211 60.6619 22.6693 52.033Z" fill="#FBBC05"/>
<path fill-rule="evenodd" clip-rule="evenodd" d="M61.5357 52.439C73.9652 52.439 86.416 52.439 98.8461 52.439C100.082 59.4233 99.8051 66.7066 97.8435 73.5413C96.0314 79.7995 92.5989 85.6091 87.8019 90.0303C83.6019 86.7625 79.4018 83.4946 75.2018 80.2267C79.3591 77.4286 82.3013 72.9006 83.1328 67.9454C75.9267 67.9454 68.7205 67.9454 61.5144 67.9454C61.5357 62.7766 61.5357 57.6077 61.5357 52.439Z" fill="#4285F4"/>
<path fill-rule="evenodd" clip-rule="evenodd" d="M26.1018 77.7277C30.4298 74.3744 34.7577 70.9997 39.0856 67.625C40.7486 72.5162 43.9466 76.852 48.168 79.8209C50.8117 81.679 53.839 83.0033 56.9944 83.6441C60.1071 84.2849 63.3264 84.1994 66.4605 83.6655C69.5732 83.1101 72.5794 81.9781 75.2016 80.2053C79.4017 83.4732 83.6017 86.7411 87.8017 90.0089C83.2606 94.2166 77.5682 97.0787 71.5559 98.467C64.9041 99.9834 57.8685 100.026 51.2594 98.2535C46.0146 96.8652 41.0898 94.3662 36.847 90.9701C32.3912 87.4246 28.6816 82.8538 26.1018 77.7277Z" fill="#34A853"/>
</svg>
