<svg width="120" height="120" viewBox="0 0 120 120" fill="none" xmlns="http://www.w3.org/2000/svg">
<path fill-rule="evenodd" clip-rule="evenodd" d="M91.4062 0C108.75 0 120 11.25 120 28.5938V91.4062C120 108.75 108.75 120 91.4062 120H28.5938C11.25 120 0 108.75 0 91.4062V28.5938C0 11.25 11.25 0 28.5938 0H91.4062Z" fill="white"/>
<path d="M85.1999 63.9147H85.2214C85.2214 63.9147 77.1428 75.7647 70.3499 84.5718C64.4785 92.1789 62.7642 98.6932 62.2714 101.843C62.0785 103 61.1357 103.857 60 103.857C58.8642 103.857 57.9214 103 57.7285 101.843C57.2357 98.6932 55.5214 92.1789 49.65 84.5718C48.75 83.3932 47.8285 82.1718 46.9071 80.9289L69.0857 54.5718L86.9357 33.4004C88.9071 37.5361 89.9999 42.1647 89.9999 47.0718C89.9999 53.2861 88.2214 59.0504 85.1999 63.9147Z" fill="#48B564"/>
<path d="M69.0857 54.5713L46.9071 80.9284C40.8643 72.8284 34.7785 63.9141 34.7785 63.9141H34.8C34.1571 62.8856 33.5786 61.8356 33.0857 60.7427L50.9143 39.5713C49.2214 41.607 48.2143 44.2213 48.2143 47.0713C48.2143 53.5856 53.4857 58.857 60 58.857C63.6642 58.857 66.9428 57.1856 69.0857 54.5713Z" fill="#FCC60E"/>
<path d="M69.4286 17.5857L51.0643 39.4L37.0072 27.1429C42.4929 20.3286 50.7643 16 60 16C63.3 16 66.4715 16.5571 69.4286 17.5857Z" fill="#2C85EB"/>
<path d="M51.0643 39.3997L50.9143 39.5711L33.0857 60.7426C31.1143 56.6068 30 51.9783 30 47.0711C30 39.4854 32.6357 32.5211 37.0071 27.1426L51.0643 39.3997Z" fill="#ED5748"/>
<path d="M69.0857 54.5716C70.7786 52.5359 71.7857 49.9216 71.7857 47.0716C71.7857 40.5574 66.5143 35.2859 60 35.2859C56.3357 35.2859 53.0572 36.9574 50.9143 39.5716L69.4286 17.5859C77.1214 20.2002 83.4214 25.9645 86.9357 33.4002L69.0857 54.5716Z" fill="#5695F6"/>
</svg>
