<svg width="120" height="120" viewBox="0 0 120 120" fill="none" xmlns="http://www.w3.org/2000/svg">
<path d="M120 103.333C120 112.54 112.54 120 103.333 120H16.6667C7.46333 120 0 112.54 0 103.333V16.6667C0 7.46 7.46333 0 16.6667 0H103.333C112.54 0 120 7.46 120 16.6667V103.333Z" fill="#424242"/>
<path d="M83.3332 20H66.6665V98.3333C74.9998 98.3333 83.2865 100.04 83.3332 100C83.3798 99.96 83.3332 20 83.3332 20Z" fill="#B71C1C"/>
<path d="M36.6667 20H53.3334V98.3333C45.0001 98.3333 36.7134 100.04 36.6667 100C36.6201 99.96 36.6667 20 36.6667 20Z" fill="#B71C1C"/>
<path d="M53.3332 20H36.6665L66.6665 98.3333C74.9998 98.3333 83.2865 100.04 83.3332 100C83.3798 99.96 53.3332 20 53.3332 20Z" fill="#E53935"/>
</svg>
