<svg width="120" height="120" viewBox="0 0 120 120" fill="none" xmlns="http://www.w3.org/2000/svg">
<g clip-path="url(#clip0_1403_95)">
<path fill-rule="evenodd" clip-rule="evenodd" d="M94.0001 120H26.0001C22.5838 120.007 19.1998 119.339 16.0422 118.035C12.8847 116.731 10.0157 114.816 7.60005 112.4C5.18437 109.984 3.26948 107.115 1.96528 103.958C0.661075 100.8 -0.0067749 97.4163 5.1812e-05 94.0001V26.0001C-0.0067749 22.5838 0.661075 19.1998 1.96528 16.0422C3.26948 12.8847 5.18437 10.0157 7.60005 7.60005C10.0157 5.18437 12.8847 3.26948 16.0422 1.96528C19.1998 0.661075 22.5838 -0.0067749 26.0001 5.1812e-05H94.0001C97.4163 -0.0067749 100.8 0.661075 103.958 1.96528C107.115 3.26948 109.984 5.18437 112.4 7.60005C114.816 10.0157 116.731 12.8847 118.035 16.0422C119.339 19.1998 120.007 22.5838 120 26.0001V94.0001C120.007 97.4163 119.339 100.8 118.035 103.958C116.731 107.115 114.816 109.984 112.4 112.4C109.984 114.816 107.115 116.731 103.958 118.035C100.8 119.339 97.4163 120.007 94.0001 120Z" fill="white"/>
<mask id="mask0_1403_95" style="mask-type:luminance" maskUnits="userSpaceOnUse" x="0" y="0" width="121" height="121">
<path fill-rule="evenodd" clip-rule="evenodd" d="M94.0001 120H26.0001C22.5838 120.007 19.1998 119.339 16.0422 118.035C12.8847 116.731 10.0157 114.816 7.60005 112.4C5.18437 109.984 3.26948 107.115 1.96528 103.958C0.661075 100.8 -0.0067749 97.4163 5.1812e-05 94.0001V26.0001C-0.0067749 22.5838 0.661075 19.1998 1.96528 16.0422C3.26948 12.8847 5.18437 10.0157 7.60005 7.60005C10.0157 5.18437 12.8847 3.26948 16.0422 1.96528C19.1998 0.661075 22.5838 -0.0067749 26.0001 5.1812e-05H94.0001C97.4163 -0.0067749 100.8 0.661075 103.958 1.96528C107.115 3.26948 109.984 5.18437 112.4 7.60005C114.816 10.0157 116.731 12.8847 118.035 16.0422C119.339 19.1998 120.007 22.5838 120 26.0001V94.0001C120.007 97.4163 119.339 100.8 118.035 103.958C116.731 107.115 114.816 109.984 112.4 112.4C109.984 114.816 107.115 116.731 103.958 118.035C100.8 119.339 97.4163 120.007 94.0001 120Z" fill="white"/>
</mask>
<g mask="url(#mask0_1403_95)">
<path d="M142.008 -0.0119629H-17.992V29.988H142.008V-0.0119629Z" fill="url(#paint0_linear_1403_95)"/>
</g>
<mask id="mask1_1403_95" style="mask-type:luminance" maskUnits="userSpaceOnUse" x="0" y="0" width="121" height="121">
<path fill-rule="evenodd" clip-rule="evenodd" d="M94.0001 120H26.0001C22.5838 120.007 19.1998 119.339 16.0422 118.035C12.8847 116.731 10.0157 114.816 7.60005 112.4C5.18437 109.984 3.26948 107.115 1.96528 103.958C0.661075 100.8 -0.0067749 97.4163 5.1812e-05 94.0001V26.0001C-0.0067749 22.5838 0.661075 19.1998 1.96528 16.0422C3.26948 12.8847 5.18437 10.0157 7.60005 7.60005C10.0157 5.18437 12.8847 3.26948 16.0422 1.96528C19.1998 0.661075 22.5838 -0.0067749 26.0001 5.1812e-05H94.0001C97.4163 -0.0067749 100.8 0.661075 103.958 1.96528C107.115 3.26948 109.984 5.18437 112.4 7.60005C114.816 10.0157 116.731 12.8847 118.035 16.0422C119.339 19.1998 120.007 22.5838 120 26.0001V94.0001C120.007 97.4163 119.339 100.8 118.035 103.958C116.731 107.115 114.816 109.984 112.4 112.4C109.984 114.816 107.115 116.731 103.958 118.035C100.8 119.339 97.4163 120.007 94.0001 120Z" fill="white"/>
</mask>
<g mask="url(#mask1_1403_95)">
<mask id="mask2_1403_95" style="mask-type:luminance" maskUnits="userSpaceOnUse" x="0" y="-1" width="121" height="121">
<path fill-rule="evenodd" clip-rule="evenodd" d="M120.008 82.6199C120.008 84.0465 120.008 85.4731 120 86.9017C119.994 88.103 119.979 89.3042 119.946 90.5054C119.913 93.1341 119.679 95.7564 119.247 98.3495C118.799 100.948 117.96 103.463 116.76 105.811C115.55 108.161 113.975 110.305 112.095 112.162C110.207 114.027 108.038 115.585 105.668 116.777C103.288 117.965 100.746 118.793 98.1241 119.235C95.4993 119.662 92.8463 119.893 90.1872 119.926C85.0968 119.988 83.6537 119.988 82.2107 119.988H37.8082C32.2618 119.971 31.0467 119.959 29.8316 119.926C27.1725 119.893 24.5195 119.662 21.8948 119.235C19.2726 118.793 16.7305 117.965 14.3511 116.777C9.58738 114.385 5.70342 110.547 3.25629 105.811C2.05824 103.463 1.21999 100.947 0.769632 98.3495C0.33838 95.7563 0.105558 93.134 0.0731918 90.5054C0.0397318 89.3042 0.0250918 88.103 0.0188218 86.9017C0.00836182 85.4731 0.00836182 84.0465 0.00836182 82.6199V37.3559C0.00836182 35.9294 0.00836182 34.5007 0.0188218 33.0762C0.0250918 31.873 0.0397318 30.6717 0.0731918 29.4705C0.105558 26.8412 0.33838 24.2182 0.769632 21.6244C1.22 19.0273 2.05825 16.5127 3.25629 14.1648C5.70342 9.42932 9.58738 5.59047 14.3511 3.19881C16.7305 2.01141 19.2726 1.18299 21.8948 0.740527C24.5195 0.313453 27.1725 0.0826499 29.8316 0.0500371C34.922 -0.0119629 36.3651 -0.0119629 37.8082 -0.0119629H81.0269L65.6322 -0.00576289L82.2107 -0.0119629C87.7549 0.00457711 88.97 0.0170371 90.1872 0.0500371C92.8463 0.0826665 95.4993 0.313486 98.1241 0.740577C100.746 1.18304 103.288 2.01144 105.668 3.19884C108.039 4.39062 110.207 5.94786 112.095 7.8135C113.976 9.67064 115.551 11.8144 116.76 14.1649C117.96 16.5119 118.799 19.0268 119.247 21.6244C119.679 24.2182 119.913 26.8412 119.946 29.4706C119.979 30.6718 119.994 31.873 120 33.0763C120.008 34.5008 120.008 35.9294 120.008 37.356V82.6199Z" fill="white"/>
</mask>
<g mask="url(#mask2_1403_95)">
<path d="M120.008 58.988H0.00799561V60.988H120.008V58.988Z" fill="#C7C7CC"/>
</g>
<mask id="mask3_1403_95" style="mask-type:luminance" maskUnits="userSpaceOnUse" x="0" y="-1" width="121" height="121">
<path fill-rule="evenodd" clip-rule="evenodd" d="M120.008 82.6199C120.008 84.0465 120.008 85.4731 120 86.9017C119.994 88.103 119.979 89.3042 119.946 90.5054C119.913 93.1341 119.679 95.7564 119.247 98.3495C118.799 100.948 117.96 103.463 116.76 105.811C115.55 108.161 113.975 110.305 112.095 112.162C110.207 114.027 108.038 115.585 105.668 116.777C103.288 117.965 100.746 118.793 98.1241 119.235C95.4993 119.662 92.8463 119.893 90.1872 119.926C85.0968 119.988 83.6537 119.988 82.2107 119.988H37.8082C32.2618 119.971 31.0467 119.959 29.8316 119.926C27.1725 119.893 24.5195 119.662 21.8948 119.235C19.2726 118.793 16.7305 117.965 14.3511 116.777C9.58738 114.385 5.70342 110.547 3.25629 105.811C2.05824 103.463 1.21999 100.947 0.769632 98.3495C0.33838 95.7563 0.105558 93.134 0.0731918 90.5054C0.0397318 89.3042 0.0250918 88.103 0.0188218 86.9017C0.00836182 85.4731 0.00836182 84.0465 0.00836182 82.6199V37.3559C0.00836182 35.9294 0.00836182 34.5007 0.0188218 33.0762C0.0250918 31.873 0.0397318 30.6717 0.0731918 29.4705C0.105558 26.8412 0.33838 24.2182 0.769632 21.6244C1.22 19.0273 2.05825 16.5127 3.25629 14.1648C5.70342 9.42932 9.58738 5.59047 14.3511 3.19881C16.7305 2.01141 19.2726 1.18299 21.8948 0.740527C24.5195 0.313453 27.1725 0.0826499 29.8316 0.0500371C34.922 -0.0119629 36.3651 -0.0119629 37.8082 -0.0119629H81.0269L65.6322 -0.00576289L82.2107 -0.0119629C87.7549 0.00457711 88.97 0.0170371 90.1872 0.0500371C92.8463 0.0826665 95.4993 0.313486 98.1241 0.740577C100.746 1.18304 103.288 2.01144 105.668 3.19884C108.039 4.39062 110.207 5.94786 112.095 7.8135C113.976 9.67064 115.551 11.8144 116.76 14.1649C117.96 16.5119 118.799 19.0268 119.247 21.6244C119.679 24.2182 119.913 26.8412 119.946 29.4706C119.979 30.6718 119.994 31.873 120 33.0763C120.008 34.5008 120.008 35.9294 120.008 37.356V82.6199Z" fill="white"/>
</mask>
<g mask="url(#mask3_1403_95)">
<path d="M120.008 88.988H0.00799561V90.988H120.008V88.988Z" fill="#C7C7CC"/>
</g>
<path d="M7.5 38.288C8.49411 38.288 9.3 37.4821 9.3 36.488C9.3 35.4939 8.49411 34.688 7.5 34.688C6.50588 34.688 5.7 35.4939 5.7 36.488C5.7 37.4821 6.50588 38.288 7.5 38.288Z" fill="#C7C7CC"/>
<path d="M14.5 38.288C15.4941 38.288 16.3 37.4821 16.3 36.488C16.3 35.4939 15.4941 34.688 14.5 34.688C13.5059 34.688 12.7 35.4939 12.7 36.488C12.7 37.4821 13.5059 38.288 14.5 38.288Z" fill="#C7C7CC"/>
<path d="M21.5 38.288C22.4941 38.288 23.3 37.4821 23.3 36.488C23.3 35.4939 22.4941 34.688 21.5 34.688C20.5059 34.688 19.7 35.4939 19.7 36.488C19.7 37.4821 20.5059 38.288 21.5 38.288Z" fill="#C7C7CC"/>
<path d="M0.499997 38.288C1.49411 38.288 2.3 37.4821 2.3 36.488C2.3 35.4939 1.49411 34.688 0.499997 34.688C-0.494116 34.688 -1.3 35.4939 -1.3 36.488C-1.3 37.4821 -0.494116 38.288 0.499997 38.288Z" fill="#C7C7CC"/>
<path d="M35.5 38.288C36.4941 38.288 37.3 37.4821 37.3 36.488C37.3 35.4939 36.4941 34.688 35.5 34.688C34.5059 34.688 33.7 35.4939 33.7 36.488C33.7 37.4821 34.5059 38.288 35.5 38.288Z" fill="#C7C7CC"/>
<path d="M42.5 38.288C43.4941 38.288 44.3 37.4821 44.3 36.488C44.3 35.4939 43.4941 34.688 42.5 34.688C41.5059 34.688 40.7 35.4939 40.7 36.488C40.7 37.4821 41.5059 38.288 42.5 38.288Z" fill="#C7C7CC"/>
<path d="M49.5 38.288C50.4941 38.288 51.3 37.4821 51.3 36.488C51.3 35.4939 50.4941 34.688 49.5 34.688C48.5059 34.688 47.7 35.4939 47.7 36.488C47.7 37.4821 48.5059 38.288 49.5 38.288Z" fill="#C7C7CC"/>
<path d="M28.5 38.288C29.4941 38.288 30.3 37.4821 30.3 36.488C30.3 35.4939 29.4941 34.688 28.5 34.688C27.5059 34.688 26.7 35.4939 26.7 36.488C26.7 37.4821 27.5059 38.288 28.5 38.288Z" fill="#C7C7CC"/>
<path d="M63.5 38.288C64.4941 38.288 65.3 37.4821 65.3 36.488C65.3 35.4939 64.4941 34.688 63.5 34.688C62.5059 34.688 61.7 35.4939 61.7 36.488C61.7 37.4821 62.5059 38.288 63.5 38.288Z" fill="#C7C7CC"/>
<path d="M70.5 38.288C71.4941 38.288 72.3 37.4821 72.3 36.488C72.3 35.4939 71.4941 34.688 70.5 34.688C69.5059 34.688 68.7 35.4939 68.7 36.488C68.7 37.4821 69.5059 38.288 70.5 38.288Z" fill="#C7C7CC"/>
<path d="M77.5 38.288C78.4941 38.288 79.3 37.4821 79.3 36.488C79.3 35.4939 78.4941 34.688 77.5 34.688C76.5059 34.688 75.7 35.4939 75.7 36.488C75.7 37.4821 76.5059 38.288 77.5 38.288Z" fill="#C7C7CC"/>
<path d="M56.5 38.288C57.4941 38.288 58.3 37.4821 58.3 36.488C58.3 35.4939 57.4941 34.688 56.5 34.688C55.5059 34.688 54.7 35.4939 54.7 36.488C54.7 37.4821 55.5059 38.288 56.5 38.288Z" fill="#C7C7CC"/>
<path d="M91.5 38.288C92.4941 38.288 93.3 37.4821 93.3 36.488C93.3 35.4939 92.4941 34.688 91.5 34.688C90.5059 34.688 89.7 35.4939 89.7 36.488C89.7 37.4821 90.5059 38.288 91.5 38.288Z" fill="#C7C7CC"/>
<path d="M98.5 38.288C99.4941 38.288 100.3 37.4821 100.3 36.488C100.3 35.4939 99.4941 34.688 98.5 34.688C97.5059 34.688 96.7 35.4939 96.7 36.488C96.7 37.4821 97.5059 38.288 98.5 38.288Z" fill="#C7C7CC"/>
<path d="M105.5 38.288C106.494 38.288 107.3 37.4821 107.3 36.488C107.3 35.4939 106.494 34.688 105.5 34.688C104.506 34.688 103.7 35.4939 103.7 36.488C103.7 37.4821 104.506 38.288 105.5 38.288Z" fill="#C7C7CC"/>
<path d="M84.5 38.288C85.4941 38.288 86.3 37.4821 86.3 36.488C86.3 35.4939 85.4941 34.688 84.5 34.688C83.5059 34.688 82.7 35.4939 82.7 36.488C82.7 37.4821 83.5059 38.288 84.5 38.288Z" fill="#C7C7CC"/>
<path d="M112.5 38.288C113.494 38.288 114.3 37.4821 114.3 36.488C114.3 35.4939 113.494 34.688 112.5 34.688C111.506 34.688 110.7 35.4939 110.7 36.488C110.7 37.4821 111.506 38.288 112.5 38.288Z" fill="#C7C7CC"/>
<path d="M119.5 38.288C120.494 38.288 121.3 37.4821 121.3 36.488C121.3 35.4939 120.494 34.688 119.5 34.688C118.506 34.688 117.7 35.4939 117.7 36.488C117.7 37.4821 118.506 38.288 119.5 38.288Z" fill="#C7C7CC"/>
<path d="M120 29.988H0V32.988H120V29.988Z" fill="url(#paint1_linear_1403_95)"/>
</g>
</g>
<defs>
<linearGradient id="paint0_linear_1403_95" x1="61.98" y1="-0.0149629" x2="61.98" y2="29.985" gradientUnits="userSpaceOnUse">
<stop stop-color="#FFDF60"/>
<stop offset="1" stop-color="#FFCD01"/>
</linearGradient>
<linearGradient id="paint1_linear_1403_95" x1="60" y1="29.988" x2="60" y2="32.988" gradientUnits="userSpaceOnUse">
<stop stop-opacity="0.3"/>
<stop offset="1" stop-color="white" stop-opacity="0"/>
</linearGradient>
<clipPath id="clip0_1403_95">
<rect width="120" height="120" fill="white"/>
</clipPath>
</defs>
</svg>
