<svg width="120" height="120" viewBox="0 0 120 120" fill="none" xmlns="http://www.w3.org/2000/svg">
<g clip-path="url(#clip0_1402_29)">
<path fill-rule="evenodd" clip-rule="evenodd" d="M27.4178 0.583008H92.5823C99.6937 0.603515 106.508 3.45067 111.537 8.50247C116.565 13.5543 119.399 20.4001 119.42 27.5444V92.4654C119.397 99.6081 116.562 106.451 111.533 111.501C106.505 116.551 99.6921 119.397 92.5823 119.417H27.4178C20.308 119.397 13.4951 116.551 8.4668 111.501C3.43848 106.451 0.603286 99.6081 0.580322 92.4654V27.5444C0.600736 20.4001 3.43481 13.5543 8.4634 8.50247C13.492 3.45067 20.3064 0.603515 27.4178 0.583008Z" fill="white"/>
<path d="M27.4178 0H92.5822C99.8468 0.023059 106.807 2.93245 111.944 8.09302C117.081 13.2536 119.977 20.2462 120 27.5443V92.4654C119.98 99.7634 117.084 106.756 111.946 111.916C106.809 117.076 99.8467 119.982 92.5822 120H27.4178C20.1533 119.982 13.1913 117.076 8.05363 111.916C2.91595 106.756 0.020427 99.7634 0 92.4654V27.5443C0.0229531 20.2462 2.91898 13.2536 8.05584 8.09302C13.1927 2.93245 20.1532 0.023059 27.4178 0ZM92.5822 1.1659H27.4178C20.4586 1.1813 13.7889 3.96539 8.86804 8.90897C3.94717 13.8526 1.17587 20.5531 1.16054 27.5443V92.4654C1.17842 99.455 3.95085 106.153 8.87145 111.094C13.792 116.036 20.4603 118.819 27.4178 118.834H92.5822C99.5397 118.819 106.208 116.036 111.129 111.094C116.049 106.153 118.822 99.455 118.839 92.4654V27.5443C118.824 20.5531 116.053 13.8526 111.132 8.90897C106.211 3.96539 99.5414 1.1813 92.5822 1.1659Z" fill="#999999"/>
<path fill-rule="evenodd" clip-rule="evenodd" d="M59.9613 12.7374C69.2686 12.7298 78.3691 15.4954 86.1116 20.6845C93.8541 25.8737 99.8906 33.2532 103.458 41.8895C107.025 50.5258 107.962 60.0309 106.151 69.2024C104.34 78.374 99.8618 86.7999 93.2832 93.4142C86.7047 100.029 78.3212 104.534 69.1933 106.361C60.0654 108.188 50.6031 107.254 42.0036 103.678C33.404 100.102 26.0535 94.0432 20.8818 86.2693C15.7101 78.4954 12.9497 69.3551 12.9497 60.0049C12.9497 47.4755 17.9015 35.4587 26.7167 26.5955C35.532 17.7322 47.4895 12.7477 59.9613 12.7374Z" fill="#E60123"/>
<path fill-rule="evenodd" clip-rule="evenodd" d="M45.4546 104.931C44.6325 104.669 43.8202 104.377 43.0175 104.066L42.9401 103.386C42.5339 99.6746 42.1664 93.9811 43.1045 89.9296C43.9556 86.257 48.5881 66.6117 48.5881 66.6117C47.6536 64.4106 47.1859 62.0381 47.2147 59.6454C47.2147 53.097 50.9478 48.2391 55.6577 48.2391C59.6712 48.2391 61.5764 51.2315 61.5764 54.8264C61.5764 58.839 59.0233 64.8531 57.708 70.4397C56.5861 75.113 60.0194 78.9216 64.6132 78.9216C72.9207 78.941 79.3037 70.1288 79.3037 57.4302C79.3037 46.1793 71.2766 38.3484 59.8066 38.3484C46.5087 38.3484 38.6848 48.3751 38.6848 58.7224C38.7031 62.5647 39.9246 66.3038 42.1761 69.4098C42.3424 69.5891 42.4594 69.8088 42.5154 70.0474C42.5713 70.2859 42.5644 70.535 42.4952 70.77C42.1277 72.2663 41.325 75.4239 41.1896 76.0943C40.9865 76.9687 40.5029 77.1728 39.6325 76.7355C33.8298 74.0151 30.1548 65.4458 30.1548 58.5767C30.1548 43.7795 40.8414 30.1774 61.0155 30.1774C77.2341 30.1871 89.826 41.778 89.826 57.3233C89.826 73.5002 79.6906 86.4708 65.5997 86.4708C60.8995 86.4708 56.4217 84.003 54.9033 81.0785L51.9923 92.3003C50.8148 96.9618 48.5769 101.285 45.4546 104.931Z" fill="white"/>
</g>
<defs>
<clipPath id="clip0_1402_29">
<rect width="120" height="120" fill="white"/>
</clipPath>
</defs>
</svg>
