<svg width="120" height="120" viewBox="0 0 120 120" fill="none" xmlns="http://www.w3.org/2000/svg">
<g clip-path="url(#clip0_1403_82)">
<path d="M26.0001 5.17919e-05H94.0001C97.4163 -0.0067736 100.8 0.661078 103.958 1.96528C107.115 3.26949 109.984 5.18437 112.4 7.60005C114.816 10.0157 116.731 12.8847 118.035 16.0422C119.339 19.1998 120.007 22.5838 120 26.0001V94.0001C120.007 97.4163 119.339 100.8 118.035 103.958C116.731 107.115 114.816 109.984 112.4 112.4C109.984 114.816 107.115 116.731 103.958 118.035C100.8 119.339 97.4163 120.007 94.0001 120H26.0001C22.5838 120.007 19.1998 119.339 16.0422 118.035C12.8847 116.731 10.0157 114.816 7.60006 112.4C5.18438 109.984 3.26949 107.115 1.96528 103.958C0.66108 100.8 -0.0067723 97.4163 5.17719e-05 94.0001V26.0001C0.0202205 19.1106 2.76597 12.5091 7.63756 7.63756C12.5091 2.76597 19.1106 0.0202205 26.0001 5.17919e-05Z" fill="white"/>
<path d="M21 39C25.9706 39 30 34.9706 30 30C30 25.0294 25.9706 21 21 21C16.0294 21 12 25.0294 12 30C12 34.9706 16.0294 39 21 39Z" stroke="#196AFF"/>
<path d="M21 36C24.3137 36 27 33.3137 27 30C27 26.6863 24.3137 24 21 24C17.6863 24 15 26.6863 15 30C15 33.3137 17.6863 36 21 36Z" fill="#196AFF"/>
<path d="M21 69C25.9706 69 30 64.9706 30 60C30 55.0294 25.9706 51 21 51C16.0294 51 12 55.0294 12 60C12 64.9706 16.0294 69 21 69Z" stroke="#F22D22"/>
<path d="M21 66C24.3137 66 27 63.3137 27 60C27 56.6863 24.3137 54 21 54C17.6863 54 15 56.6863 15 60C15 63.3137 17.6863 66 21 66Z" fill="#F22D22"/>
<path d="M21 99C25.9706 99 30 94.9706 30 90C30 85.0294 25.9706 81 21 81C16.0294 81 12 85.0294 12 90C12 94.9706 16.0294 99 21 99Z" stroke="#FF9500"/>
<path d="M21 96C24.3137 96 27 93.3137 27 90C27 86.6863 24.3137 84 21 84C17.6863 84 15 86.6863 15 90C15 93.3137 17.6863 96 21 96Z" fill="#FF9500"/>
<path fill-rule="evenodd" clip-rule="evenodd" d="M44 29H104C104.133 28.992 104.267 29.0123 104.392 29.0597C104.517 29.1071 104.63 29.1805 104.725 29.275C104.82 29.3695 104.893 29.483 104.94 29.608C104.988 29.733 105.008 29.8666 105 30C105.008 30.1334 104.988 30.267 104.94 30.392C104.893 30.517 104.82 30.6305 104.725 30.725C104.63 30.8195 104.517 30.8929 104.392 30.9403C104.267 30.9877 104.133 31.0081 104 31H44C43.8666 31.0081 43.733 30.9877 43.608 30.9403C43.483 30.8929 43.3695 30.8195 43.275 30.725C43.1805 30.6305 43.1071 30.517 43.0597 30.392C43.0123 30.267 42.992 30.1334 43 30C43.0176 29.7406 43.1287 29.4964 43.3125 29.3125C43.4964 29.1287 43.7406 29.0176 44 29Z" fill="#C7C7CC"/>
<path fill-rule="evenodd" clip-rule="evenodd" d="M44 59H104C104.133 58.992 104.267 59.0123 104.392 59.0597C104.517 59.1071 104.63 59.1805 104.725 59.275C104.82 59.3695 104.893 59.483 104.94 59.608C104.988 59.733 105.008 59.8666 105 60C105.008 60.1334 104.988 60.267 104.94 60.392C104.893 60.517 104.82 60.6305 104.725 60.725C104.63 60.8195 104.517 60.8929 104.392 60.9403C104.267 60.9877 104.133 61.0081 104 61H44C43.8666 61.0081 43.733 60.9877 43.608 60.9403C43.483 60.8929 43.3695 60.8195 43.275 60.725C43.1805 60.6305 43.1071 60.517 43.0597 60.392C43.0123 60.267 42.992 60.1334 43 60C43.0176 59.7406 43.1287 59.4964 43.3125 59.3125C43.4964 59.1287 43.7406 59.0176 44 59ZM44 89H104C104.133 88.992 104.267 89.0123 104.392 89.0597C104.517 89.1071 104.63 89.1805 104.725 89.275C104.82 89.3695 104.893 89.483 104.94 89.608C104.988 89.733 105.008 89.8666 105 90C105.008 90.1334 104.988 90.267 104.94 90.392C104.893 90.517 104.82 90.6305 104.725 90.725C104.63 90.8195 104.517 90.8929 104.392 90.9403C104.267 90.9877 104.133 91.0081 104 91H44C43.8666 91.0081 43.733 90.9877 43.608 90.9403C43.483 90.8929 43.3695 90.8195 43.275 90.725C43.1805 90.6305 43.1071 90.517 43.0597 90.392C43.0123 90.267 42.992 90.1334 43 90C43.0176 89.7406 43.1287 89.4964 43.3125 89.3125C43.4964 89.1287 43.7406 89.0176 44 89Z" fill="#C7C7CC"/>
</g>
<defs>
<clipPath id="clip0_1403_82">
<rect width="120" height="120" fill="white"/>
</clipPath>
</defs>
</svg>
