<svg width="120" height="120" viewBox="0 0 120 120" fill="none" xmlns="http://www.w3.org/2000/svg">
<path fill-rule="evenodd" clip-rule="evenodd" d="M91.4062 0C108.75 0 120 11.25 120 28.5938V91.4062C120 108.75 108.75 120 91.4062 120H28.5938C11.25 120 0 108.75 0 91.4062V28.5938C0 11.25 11.25 0 28.5938 0H91.4062Z" fill="#141416"/>
<mask id="mask0_1402_51" style="mask-type:alpha" maskUnits="userSpaceOnUse" x="0" y="0" width="120" height="120">
<path fill-rule="evenodd" clip-rule="evenodd" d="M91.4062 0C108.75 0 120 11.25 120 28.5938V91.4062C120 108.75 108.75 120 91.4062 120H28.5938C11.25 120 0 108.75 0 91.4062V28.5938C0 11.25 11.25 0 28.5938 0H91.4062Z" fill="white"/>
</mask>
<g mask="url(#mask0_1402_51)">
<path fill-rule="evenodd" clip-rule="evenodd" d="M38 0V120H37V0H38Z" fill="#777778"/>
<path fill-rule="evenodd" clip-rule="evenodd" d="M15 0V120H14V0H15Z" fill="#777778"/>
<path fill-rule="evenodd" clip-rule="evenodd" d="M83 0V120H82V0H83Z" fill="#00AFFF"/>
<path fill-rule="evenodd" clip-rule="evenodd" d="M106 0V120H105V0H106Z" fill="#777778"/>
<path fill-rule="evenodd" clip-rule="evenodd" d="M61 0V120H60V0H61Z" fill="#777778"/>
<path fill-rule="evenodd" clip-rule="evenodd" d="M112.73 50.5394L122.465 39.6673L120.975 38.3331L111.006 49.467L105.662 62.7462L105.652 62.7751C105.604 62.9189 105.56 63.0283 105.521 63.1107C105.503 63.0899 105.484 63.0674 105.465 63.0434C105.419 62.9846 105.381 62.9307 105.356 62.8926C105.352 62.8869 105.349 62.8817 105.346 62.877C105.342 62.8714 105.339 62.8664 105.336 62.8622L99.3724 51.3015C99.0411 50.5976 98.6304 50.0657 98.1156 49.7444C97.5674 49.4023 97.0016 49.3619 96.5223 49.4705C96.0732 49.5722 95.7216 49.7973 95.5039 49.9651C95.39 50.0528 95.299 50.1355 95.2343 50.1985C95.2213 50.2112 95.2092 50.2232 95.1982 50.2344L91.8394 52.7807L91.7909 52.8291C91.2302 53.3899 90.8166 53.668 90.5387 53.7993C90.3264 53.8995 90.2113 53.9065 90.1709 53.9047L85.8531 42.8935L85.8197 42.8339C85.148 41.6335 84.4323 40.8212 83.6133 40.4755C82.6808 40.0818 81.8602 40.3817 81.3 40.8299C80.7831 41.2435 80.4291 41.8155 80.219 42.2148C80.1082 42.4256 80.024 42.6145 79.967 42.7519C79.9383 42.8211 79.9161 42.8782 79.9004 42.9199C79.8926 42.9407 79.8863 42.9578 79.8817 42.9706L79.876 42.9866L79.8741 42.9921L79.8736 42.9935L79.873 42.9952L75.1267 56.6327L75.1138 56.6919C75.0068 57.1846 74.8383 57.5047 74.6442 57.7354C74.4474 57.9693 74.1802 58.1639 73.8 58.3417C73.4104 58.5239 72.935 58.6738 72.3391 58.8346C72.1266 58.892 71.8878 58.9534 71.634 59.0187C71.2232 59.1243 70.773 59.2401 70.3317 59.365C68.7689 59.8073 67.6684 60.4347 66.9445 60.9727C66.5835 61.2411 66.3181 61.4857 66.1368 61.6716C66.0462 61.7645 65.9766 61.8427 65.9266 61.9019C65.9148 61.9158 65.9041 61.9287 65.8945 61.9405C65.8837 61.9537 65.8742 61.9655 65.8661 61.9758L65.8464 62.0011L65.8392 62.0106L65.8349 62.0163L65.8343 62.0172C65.834 62.0176 65.8337 62.018 66.638 62.6122L65.8343 62.0172L65.7854 62.0834L65.7483 62.1557L66.638 62.6122C65.7483 62.1557 65.7484 62.1556 65.7483 62.1557L65.7475 62.1573L65.5594 62.5247C65.4389 62.7605 65.2661 63.0993 65.0564 63.5116C64.6372 64.3359 64.0707 65.4548 63.4819 66.6318C62.3193 68.9561 61.0264 71.5925 60.651 72.5751C60.551 72.8365 60.457 72.8694 60.4516 72.8718C60.4182 72.8869 60.3301 72.9084 60.1538 72.8739C59.9809 72.8401 59.7983 72.7664 59.6451 72.6888C59.5721 72.6518 59.5136 72.618 59.4756 72.5948C59.4567 72.5833 59.4434 72.5748 59.4364 72.5702L59.4333 72.5683L59.4318 72.5673L59.4308 72.5666L59.407 72.5501L52.5767 68.5097L46.939 52.151C46.8274 51.5491 46.6957 51.0565 46.5343 50.6741C46.3846 50.3194 46.1251 49.8513 45.6339 49.625C45.0169 49.3407 44.4706 49.6041 44.1752 49.8428C43.897 50.0676 43.6894 50.3727 43.5416 50.6258C43.2344 51.1518 42.9806 51.8171 42.8118 52.3094C42.7245 52.5638 42.6544 52.7887 42.6059 52.9504C42.583 53.0268 42.5648 53.0896 42.5518 53.1352L42.4622 53.3298C42.383 53.5025 42.2682 53.7534 42.1258 54.0673C41.8411 54.6949 41.4455 55.5747 41.0022 56.5842C40.1176 58.5985 39.0346 61.1474 38.2628 63.2413C37.916 64.1828 37.564 64.6554 37.3041 64.8844C37.0684 65.0921 36.8899 65.1187 36.7648 65.1142C36.6075 65.1086 36.4382 65.0458 36.2837 64.9553C36.2111 64.9127 36.1535 64.871 36.1168 64.8421C36.0988 64.828 36.0868 64.8177 36.0815 64.8131C36.0817 64.8133 36.0812 64.8129 36.0815 64.8131L36.0614 64.794L32.6857 62.0167C32.0415 61.4305 31.349 61.1187 30.6338 61.1057C29.9232 61.0928 29.3412 61.3777 28.92 61.6913C28.5017 62.0028 28.1913 62.3785 27.9927 62.656C27.8908 62.7983 27.8119 62.924 27.7572 63.0165C27.7314 63.0601 27.7106 63.0969 27.6951 63.1252L27.6753 63.1546C27.6446 63.2 27.5985 63.2678 27.5381 63.3556C27.4171 63.531 27.239 63.7857 27.0129 64.0988C26.5601 64.7256 25.9173 65.5828 25.1574 66.5046C23.6107 68.3809 21.676 70.4035 19.9231 71.3808C18.2157 72.3329 16.4811 72.4711 15.1489 72.3616C14.4844 72.3069 13.9302 72.1913 13.5464 72.0907C13.3549 72.0405 13.2073 71.9944 13.1111 71.9623C13.0835 71.9531 13.0601 71.9451 13.0412 71.9384C9.83011 70.1166 6.59822 69.1672 4.17131 68.6718C2.94634 68.4217 1.91999 68.286 1.19572 68.2126C0.833403 68.1759 0.546148 68.1548 0.346824 68.1428C0.247146 68.1367 0.169406 68.133 0.115211 68.1307C0.0881115 68.1296 0.0668934 68.1288 0.0517573 68.1283L0.0336372 68.1277L0.0280436 68.1276L0.0261216 68.1275C0.0258122 68.1275 0.0247858 68.1275 4.38783e-05 69.1272C-0.024698 70.1269 -0.0249344 70.1269 -0.0251465 70.1269L-0.0146621 70.1272L0.0313115 70.129C0.0736759 70.1307 0.13918 70.1339 0.22624 70.1391C0.400393 70.1496 0.660591 70.1687 0.994181 70.2025C1.66172 70.2701 2.621 70.3965 3.77128 70.6314C6.07647 71.1019 9.12294 72.0024 12.1218 73.7164L12.1836 73.7517L12.2498 73.7779L12.618 72.8482C12.2498 73.7779 12.2494 73.7777 12.2498 73.7779L12.2534 73.7794L12.2586 73.7814L12.2732 73.787C12.2848 73.7914 12.3003 73.7972 12.3195 73.8043C12.3579 73.8183 12.411 73.8372 12.4781 73.8595C12.612 73.9042 12.8018 73.9631 13.0394 74.0253C13.5135 74.1496 14.1838 74.289 14.985 74.3548C16.584 74.4863 18.7454 74.3274 20.897 73.1276C23.0041 71.9529 25.1409 69.669 26.7007 67.7768C27.4941 66.8143 28.1632 65.9218 28.6341 65.2699C28.8698 64.9436 29.0565 64.6768 29.1849 64.4905C29.2491 64.3973 29.2987 64.3243 29.3327 64.2739L29.3718 64.2158L29.3823 64.2001L29.3861 64.1944C29.3862 64.1943 29.3865 64.1937 28.553 63.6412L29.3861 64.1944L29.4181 64.1461L29.4417 64.0998L29.4468 64.0904C29.4526 64.0797 29.4632 64.0607 29.4783 64.0351C29.5088 63.9836 29.5564 63.9076 29.6191 63.8199C29.7499 63.6373 29.9215 63.4391 30.1144 63.2955C30.3042 63.1542 30.4624 63.103 30.5974 63.1054C30.7196 63.1076 30.9705 63.1558 31.3526 63.5077L31.3731 63.5267L34.7429 66.2992C34.75 66.3055 34.7579 66.3125 34.7666 66.3201C34.7955 66.3453 34.834 66.3777 34.8813 66.4149C34.9753 66.4887 35.108 66.5845 35.273 66.6811C35.5939 66.869 36.0902 67.0914 36.6935 67.1129C37.329 67.1356 38.0063 66.9312 38.6262 66.3851C39.2219 65.8603 39.7257 65.056 40.1393 63.9331C40.8895 61.898 41.9525 59.3944 42.8334 57.3884C43.2728 56.3878 43.6649 55.5156 43.9471 54.8936C44.0882 54.5827 44.2017 54.3345 44.2799 54.1642L44.3696 53.9693L44.3999 53.9036L44.4359 53.826L44.4579 53.7448L44.4585 53.7428L44.4612 53.733L44.4732 53.6905C44.484 53.6525 44.5003 53.5959 44.5217 53.5247C44.5645 53.382 44.6266 53.1827 44.7036 52.9583C44.7742 52.7524 44.8532 52.5376 44.9369 52.332C44.9528 52.4103 44.9687 52.4935 44.9846 52.582L44.9983 52.6579L50.9254 69.8567L58.3367 74.2407L58.3452 74.2464C58.3535 74.2517 58.3628 74.2577 58.373 74.2642C58.3911 74.2757 58.4122 74.2889 58.4361 74.3035C58.5108 74.3489 58.6149 74.4089 58.7415 74.473C58.9874 74.5976 59.3517 74.7549 59.7698 74.8367C60.1845 74.9178 60.7315 74.9396 61.2738 74.695C61.844 74.4379 62.266 73.9514 62.5191 73.2892C62.8498 72.4238 64.0833 69.9002 65.2706 67.5266C65.8569 66.3546 66.4212 65.24 66.8392 64.4181C67.0481 64.0072 67.2204 63.6697 67.3403 63.4349L67.4786 63.1646C67.5002 63.1401 67.5301 63.1075 67.5687 63.0679C67.681 62.9527 67.8671 62.7789 68.1376 62.5779C68.6767 62.1772 69.5592 61.6622 70.8763 61.2894C71.3092 61.1669 71.6978 61.0672 72.0804 60.9691C72.339 60.9028 72.595 60.8371 72.8602 60.7655C73.4781 60.5988 74.0927 60.4127 74.6471 60.1534C75.2109 59.8898 75.7416 59.5377 76.1748 59.0228C76.5986 58.5189 76.8876 57.9083 77.0545 57.1783L81.7624 43.6512L81.7629 43.6497L81.7633 43.6484L81.7723 43.6242C81.7809 43.6013 81.795 43.5648 81.8144 43.5181C81.8535 43.4238 81.9124 43.2917 81.9891 43.1459C82.1541 42.8321 82.3535 42.5484 82.5496 42.3915C82.7024 42.2692 82.7544 42.2838 82.8355 42.318C83.0266 42.3987 83.4532 42.717 84.0416 43.7524L88.3759 54.8055L88.3923 54.8396L89.293 54.4052C88.3923 54.8396 88.3927 54.8404 88.3931 54.8412L88.3957 54.8465L88.3994 54.8541L88.4082 54.8712C88.4113 54.8773 88.4148 54.8838 88.4185 54.8906C88.4223 54.8977 88.4264 54.9051 88.4308 54.9129C88.4482 54.9438 88.4706 54.9812 88.4985 55.023C88.5539 55.106 88.6337 55.2111 88.7426 55.32C88.963 55.5406 89.3114 55.7844 89.8031 55.872C90.7833 56.0468 91.8868 55.546 93.1555 54.2927L96.5533 51.7168L96.6127 51.6485C96.6129 51.6483 96.6132 51.648 96.6134 51.6477C96.6137 51.6474 96.6139 51.6472 96.6143 51.6468C96.617 51.6439 96.6225 51.6384 96.6303 51.6307C96.6503 51.6112 96.6828 51.5815 96.7243 51.5495C96.8173 51.4779 96.9038 51.4348 96.9641 51.4211C96.9941 51.4143 97.009 51.4114 97.0568 51.4412C97.1333 51.489 97.3312 51.6568 97.5689 52.1661L97.5772 52.1841L103.587 63.833L103.599 63.8547L104.464 63.3522C103.599 63.8547 103.599 63.8543 103.599 63.8547L103.6 63.8561L103.603 63.8615L103.61 63.8718L103.628 63.9016C103.642 63.9254 103.662 63.957 103.687 63.9947C103.737 64.0695 103.807 64.1711 103.896 64.2834C104.059 64.4902 104.342 64.809 104.721 65.0269C105.128 65.2614 105.771 65.4354 106.425 65.0484C106.973 64.7238 107.309 64.1193 107.54 63.4374L112.73 50.5394Z" fill="white"/>
<path fill-rule="evenodd" clip-rule="evenodd" d="M3.65227e-05 69.1271C3.65227e-05 69.1271 6.38404 69.2851 12.618 72.8481C12.618 72.8481 16.551 74.4061 20.41 72.2541C24.27 70.1021 28.553 63.6411 28.553 63.6411C28.553 63.6411 29.965 60.8701 32.03 62.7721L35.398 65.5431C35.398 65.5431 37.68 67.7161 39.201 63.5871C40.723 59.4581 43.493 53.4821 43.493 53.4821C43.493 53.4821 45.0999 47.569 45.9689 52.405L51.751 69.1831L58.868 73.3931C58.868 73.3931 60.879 74.7791 61.585 72.9321C62.291 71.0841 66.638 62.6121 66.638 62.6121C66.638 62.6121 67.724 61.1421 70.604 60.3271C73.483 59.5121 75.548 59.4041 76.091 56.9041L80.818 43.3221C80.818 43.3221 82.393 38.7581 84.947 43.3221L89.293 54.4051C89.293 54.4051 90.053 55.9811 92.498 53.5361L95.867 50.9821C95.867 50.9821 97.334 49.2981 98.475 51.7431L104.464 63.3521C104.464 63.3521 105.767 65.5941 106.601 63.0911L111.868 50.0031L121.72 39.0001L121.568 123.254L-0.0922852 123.208L3.65227e-05 69.1271Z" fill="url(#paint0_linear_1402_51)"/>
<path d="M82.4999 42.4999C85.2613 42.4999 87.4999 40.2613 87.4999 37.4999C87.4999 34.7385 85.2613 32.4999 82.4999 32.4999C79.7385 32.4999 77.4999 34.7385 77.4999 37.4999C77.4999 40.2613 79.7385 42.4999 82.4999 42.4999Z" fill="#00AFFF"/>
<path fill-rule="evenodd" clip-rule="evenodd" d="M77 37.5C77 34.4625 79.4625 32 82.5 32C85.5375 32 88 34.4625 88 37.5C88 40.5375 85.5375 43 82.5 43C79.4625 43 77 40.5375 77 37.5ZM82.5 33C80.0147 33 78 35.0147 78 37.5C78 39.9853 80.0147 42 82.5 42C84.9853 42 87 39.9853 87 37.5C87 35.0147 84.9853 33 82.5 33Z" fill="#141416"/>
</g>
<defs>
<linearGradient id="paint0_linear_1402_51" x1="-0.0922852" y1="39.0001" x2="-0.0922852" y2="123.254" gradientUnits="userSpaceOnUse">
<stop stop-color="#EEEEEE" stop-opacity="0.265427"/>
<stop offset="1" stop-color="#D8D8D8" stop-opacity="0.01"/>
</linearGradient>
</defs>
</svg>
