<svg width="120" height="120" viewBox="0 0 120 120" fill="none" xmlns="http://www.w3.org/2000/svg">
<path fill-rule="evenodd" clip-rule="evenodd" d="M91.4062 0C108.75 0 120 11.25 120 28.5938V91.4062C120 108.75 108.75 120 91.4062 120H28.5938C11.25 120 0 108.75 0 91.4062V28.5938C0 11.25 11.25 0 28.5938 0H91.4062Z" fill="url(#paint0_linear_1404_263)"/>
<mask id="mask0_1404_263" style="mask-type:alpha" maskUnits="userSpaceOnUse" x="0" y="0" width="120" height="120">
<path fill-rule="evenodd" clip-rule="evenodd" d="M91.4062 0C108.75 0 120 11.25 120 28.5938V91.4062C120 108.75 108.75 120 91.4062 120H28.5938C11.25 120 0 108.75 0 91.4062V28.5938C0 11.25 11.25 0 28.5938 0H91.4062Z" fill="white"/>
</mask>
<g mask="url(#mask0_1404_263)">
<path fill-rule="evenodd" clip-rule="evenodd" d="M83.4493 84.0977L84.1671 83.4014L84.5749 83.8209C84.8408 84.0941 85.2305 84.494 85.7255 85.0007C86.7154 86.0142 88.1265 87.4547 89.8106 89.1628C93.2241 92.6249 97.5572 97.3722 101.04 102.451C104.51 107.512 107.194 112.984 107.194 117.879H106.194C106.194 113.302 103.663 108.044 100.215 103.017C96.7806 98.008 92.494 93.3087 89.0985 89.8649C87.4132 88.1555 86.001 86.7139 85.0101 85.6995C84.5147 85.1923 84.1246 84.792 83.8583 84.5183L83.4493 84.0977Z" fill="#108E96"/>
<path fill-rule="evenodd" clip-rule="evenodd" d="M101.277 100.288C96.3423 96.7863 91.9612 92.6855 88.7687 89.5131L89.4735 88.8037C92.6512 91.9613 96.9871 96.0176 101.855 99.4727C106.731 102.933 112.098 105.759 117.339 106.508L117.197 107.498C111.725 106.716 106.204 103.785 101.277 100.288Z" fill="#108E96"/>
<path fill-rule="evenodd" clip-rule="evenodd" d="M35.8331 83.4014L36.5508 84.0977L36.1419 84.5183C35.8756 84.792 35.4855 85.1923 34.99 85.6995C33.9992 86.7139 32.587 88.1555 30.9016 89.8649C27.5062 93.3087 23.2196 98.008 19.785 103.017C16.3379 108.044 13.8064 113.302 13.8064 117.879H12.8064C12.8064 112.984 15.4901 107.512 18.9603 102.451C22.4431 97.3722 26.7761 92.6249 30.1896 89.1628C31.8737 87.4547 33.2847 86.0142 34.2747 85.0007C34.7697 84.494 35.1594 84.0941 35.4253 83.8209L35.8331 83.4014Z" fill="#108E96"/>
<path fill-rule="evenodd" clip-rule="evenodd" d="M18.1446 99.4727C23.0129 96.0176 27.3489 91.9613 30.5265 88.8037L31.2314 89.5131C28.0388 92.6855 23.6577 96.7863 18.7233 100.288C13.7963 103.785 8.27467 106.716 2.80251 107.498L2.66113 106.508C7.90208 105.759 13.2689 102.933 18.1446 99.4727Z" fill="#108E96"/>
<path fill-rule="evenodd" clip-rule="evenodd" d="M101.04 17.5487C97.5572 22.6278 93.2241 27.375 89.8106 30.8372C88.1265 32.5452 86.7154 33.9858 85.7255 34.9992C85.2305 35.5059 84.8408 35.9058 84.5749 36.1791L84.1674 36.5982L83.4493 35.9022L83.8583 35.4816C84.1246 35.208 84.5147 34.8076 85.0101 34.3004C86.001 33.2861 87.4132 31.8444 89.0985 30.1351C92.494 26.6912 96.7806 21.9921 100.215 16.9831C103.663 11.9559 106.194 6.69781 106.194 2.12061H107.194C107.194 7.01613 104.51 12.4878 101.04 17.5487Z" fill="#108E96"/>
<path fill-rule="evenodd" clip-rule="evenodd" d="M101.855 20.5269C96.9871 23.9821 92.6512 28.0385 89.4735 31.1961L88.7687 30.4868C91.9612 27.3144 96.3423 23.2135 101.277 19.7114C106.204 16.2145 111.725 13.2834 117.197 12.502L117.339 13.4919C112.098 14.2403 106.731 17.0665 101.855 20.5269Z" fill="#108E96"/>
<path fill-rule="evenodd" clip-rule="evenodd" d="M19.785 16.9831C23.2196 21.9921 27.5062 26.6912 30.9016 30.1351C32.587 31.8444 33.9992 33.2861 34.99 34.3004C35.4855 34.8076 35.8756 35.208 36.1419 35.4816L36.5504 35.9018L35.8331 36.5986L35.8315 36.5969L35.4253 36.1791C35.1594 35.9058 34.7697 35.5059 34.2747 34.9992C33.2847 33.9858 31.8737 32.5452 30.1896 30.8372C26.7761 27.375 22.4431 22.6278 18.9603 17.5487C15.4901 12.4878 12.8064 7.01613 12.8064 2.12061H13.8064C13.8064 6.69781 16.3379 11.9559 19.785 16.9831Z" fill="#108E96"/>
<path fill-rule="evenodd" clip-rule="evenodd" d="M18.7233 19.7114C23.6577 23.2135 28.0388 27.3144 31.2314 30.4868L30.5265 31.1961C27.3488 28.0385 23.0129 23.9821 18.1446 20.5269C13.2689 17.0665 7.90207 14.2404 2.66113 13.4919L2.80251 12.502C8.27466 13.2834 13.7963 16.2145 18.7233 19.7114Z" fill="#108E96"/>
<path fill-rule="evenodd" clip-rule="evenodd" d="M45.8456 0.314521C45.8071 2.65047 45.04 6.00776 42.3092 10.3662C39.7327 14.4787 35.1028 19.0842 28.9035 25.2509C28.3303 25.8211 27.7436 26.4047 27.1439 27.0025C26.0334 28.1094 24.9992 29.1445 24.0316 30.113C20.9192 33.2282 18.4955 35.6541 16.4348 37.5644C13.7252 40.0763 11.5846 41.7534 9.2462 42.9796L8.78179 42.094L9.24619 42.9796C6.42132 44.4609 3.7862 45.3055 1.85475 45.7806C0.888152 46.0183 0.0951566 46.1641 -0.460724 46.2509C-0.738749 46.2944 -0.957719 46.3231 -1.10972 46.3411C-1.18573 46.3501 -1.24502 46.3565 -1.28661 46.3607L-1.3356 46.3655L-1.34991 46.3668L-1.35448 46.3672L-1.35611 46.3674L-1.35676 46.3674C-1.35705 46.3675 -1.35731 46.3675 -1.44235 45.3711C-1.5274 44.3747 -1.52762 44.3748 -1.52783 44.3748L-1.52154 44.3742L-1.48879 44.371C-1.45816 44.3679 -1.41011 44.3627 -1.34562 44.3551C-1.21661 44.3397 -1.02191 44.3143 -0.769293 44.2749C-0.2639 44.196 0.472236 44.061 1.37707 43.8385C3.18849 43.3929 5.66543 42.599 8.31737 41.2084C10.4273 40.1019 12.4175 38.5614 15.0751 36.0977C17.1052 34.2158 19.4906 31.8283 22.5936 28.7225C23.5656 27.7497 24.608 26.7063 25.732 25.586C26.3052 25.0146 26.8647 24.4578 27.4104 23.9148C33.7082 17.6478 38.1669 13.2109 40.6144 9.30438L41.4618 9.8353L40.6144 9.30437C43.186 5.19993 43.8144 2.19358 43.8458 0.281603C43.8616 -0.677517 43.7276 -1.37666 43.6011 -1.81777C43.5377 -2.03889 43.4757 -2.19665 43.4344 -2.29103C43.4137 -2.33825 43.3982 -2.36966 43.3902 -2.38526C43.3866 -2.39219 43.3845 -2.396 43.3842 -2.39668L43.3859 -2.39364L43.3881 -2.38984L43.3895 -2.38738L43.3903 -2.38602C43.3907 -2.38529 43.3911 -2.38456 44.2528 -2.892C45.1145 -3.39945 45.115 -3.39867 45.1154 -3.39789L45.1164 -3.39623L45.1185 -3.3926L45.1234 -3.38411L45.1356 -3.36224C45.1449 -3.34547 45.1562 -3.32433 45.1693 -3.29883C45.1955 -3.24782 45.2287 -3.17935 45.2664 -3.09344C45.3417 -2.92156 45.4344 -2.68004 45.5236 -2.36915C45.7023 -1.74621 45.8647 -0.850322 45.8456 0.314521Z" fill="#108E96"/>
<path fill-rule="evenodd" clip-rule="evenodd" d="M76.5585 0.281603C76.59 2.19358 77.2184 5.19993 79.7899 9.30437C82.2374 13.2109 86.6961 17.6477 92.9939 23.9147C93.5396 24.4578 94.0992 25.0146 94.6724 25.586C95.7962 26.7062 96.8386 27.7495 97.8105 28.7222C100.914 31.8281 103.299 34.2157 105.329 36.0977C107.987 38.5614 109.977 40.1019 112.087 41.2084C114.739 42.599 117.216 43.3929 119.027 43.8385C119.932 44.061 120.668 44.196 121.174 44.2749C121.426 44.3143 121.621 44.3397 121.75 44.3551C121.787 44.3594 121.819 44.363 121.844 44.3658C121.864 44.3679 121.88 44.3696 121.893 44.371L121.926 44.3742L121.932 44.3748C121.932 44.3748 121.932 44.3747 121.847 45.3711C121.762 46.3675 121.762 46.3675 121.761 46.3674L121.755 46.3668L121.74 46.3655L121.691 46.3607C121.65 46.3565 121.59 46.3501 121.514 46.3411C121.362 46.3231 121.143 46.2944 120.865 46.251C120.309 46.1642 119.516 46.0183 118.55 45.7806C116.618 45.3055 113.983 44.4609 111.159 42.9797C108.82 41.7534 106.679 40.0763 103.969 37.5644C101.909 35.654 99.4849 33.228 96.3724 30.1126C95.4049 29.1443 94.3708 28.1093 93.2605 27.0025C92.6607 26.4047 92.074 25.8211 91.5008 25.2508C85.3015 19.0842 80.6716 14.4787 78.0951 10.3662C75.3644 6.00776 74.5972 2.65046 74.5588 0.314521C74.5396 -0.850322 74.7021 -1.74621 74.8807 -2.36915C74.9699 -2.68004 75.0627 -2.92156 75.138 -3.09344C75.1756 -3.17935 75.2088 -3.24782 75.235 -3.29883C75.2481 -3.32433 75.2595 -3.34547 75.2687 -3.36224L75.281 -3.38411L75.2858 -3.3926L75.2879 -3.39623L75.2889 -3.39789C75.2894 -3.39867 75.2898 -3.39945 76.1515 -2.892C77.0132 -2.38456 77.0136 -2.38529 77.0141 -2.38602L77.0149 -2.38738L77.0163 -2.38984L77.0185 -2.39364L77.0203 -2.39678C77.0203 -2.3969 77.0181 -2.39381 77.0141 -2.38602C77.0061 -2.37042 76.9906 -2.33825 76.97 -2.29103C76.9286 -2.19665 76.8666 -2.03889 76.8032 -1.81777C76.6767 -1.37666 76.5427 -0.677517 76.5585 0.281603Z" fill="#108E96"/>
<path fill-rule="evenodd" clip-rule="evenodd" d="M-1.52784 75.625C-1.52763 75.625 -1.5274 75.625 -1.44234 74.6287C-1.35727 73.6323 -1.35701 73.6323 -1.35673 73.6323L-1.35444 73.6325L-1.34987 73.6329L-1.33556 73.6342L-1.28658 73.639C-1.24499 73.6433 -1.1857 73.6496 -1.10969 73.6587C-0.957687 73.6767 -0.738718 73.7054 -0.460694 73.7488C0.0951853 73.8356 0.888179 73.9815 1.85477 74.2192C3.78622 74.6943 6.42134 75.5389 9.2462 77.0202C11.5846 78.2465 13.7252 79.9236 16.4348 82.4355C18.4954 84.3457 20.919 86.7714 24.0312 89.8864C24.9989 90.855 26.0332 91.8902 27.1439 92.9973C27.7402 93.5916 28.3236 94.1719 28.8937 94.739C35.098 100.91 39.7313 105.519 42.3093 109.634C45.04 113.993 45.8071 117.35 45.8456 119.686C45.8647 120.85 45.7023 121.746 45.5236 122.369C45.4345 122.68 45.3417 122.922 45.2664 123.093C45.2287 123.179 45.1955 123.248 45.1693 123.299C45.1562 123.324 45.1449 123.345 45.1356 123.362L45.1234 123.384L45.1185 123.393L45.1164 123.396L45.1154 123.398C45.115 123.399 45.1145 123.399 44.2528 122.892C43.3912 122.384 43.3907 122.385 43.3903 122.386L43.3895 122.387L43.3881 122.39L43.3859 122.394L43.3841 122.397C43.3841 122.397 43.3863 122.394 43.3903 122.386C43.3983 122.37 43.4137 122.338 43.4344 122.291C43.4757 122.197 43.5377 122.039 43.6011 121.818C43.7276 121.377 43.8616 120.678 43.8458 119.719C43.8144 117.807 43.186 114.8 40.6144 110.696C38.1655 106.787 33.7031 102.347 27.3997 96.0742C26.8574 95.5346 26.3014 94.9814 25.732 94.4138C24.6079 93.2933 23.5653 92.2499 22.5932 91.2769C19.4904 88.1714 17.1051 85.784 15.0751 83.9022C12.4175 81.4385 10.4273 79.8979 8.3174 78.7915C5.66544 77.4009 3.18849 76.6069 1.37707 76.1613C0.472235 75.9388 -0.263903 75.8038 -0.769296 75.7249C-1.02191 75.6854 -1.21661 75.66 -1.34562 75.6447C-1.41012 75.637 -1.45817 75.6319 -1.4888 75.6288L-1.52154 75.6256L-1.52784 75.625ZM-1.52784 75.625C-1.52833 75.6249 -1.52792 75.625 -1.52784 75.625Z" fill="#108E96"/>
<path fill-rule="evenodd" clip-rule="evenodd" d="M121.761 73.6323C121.762 73.6323 121.762 73.6323 121.847 74.6287C121.932 75.625 121.932 75.625 121.933 75.625L121.926 75.6256L121.893 75.6288C121.863 75.6319 121.815 75.637 121.75 75.6447C121.621 75.66 121.427 75.6854 121.174 75.7249C120.668 75.8038 119.932 75.9388 119.027 76.1614C117.216 76.6069 114.739 77.4009 112.087 78.7915L112.087 78.7915C109.977 79.8979 107.987 81.4385 105.329 83.9022C103.299 85.7841 100.914 88.1715 97.8108 91.2772C96.8388 92.2501 95.7964 93.2934 94.6724 94.4138L94.6724 94.4138C94.1029 94.9814 93.547 95.5346 93.0046 96.0743C86.7012 102.347 82.2388 106.787 79.7899 110.696L78.9456 110.167L79.7899 110.696C77.2184 114.8 76.59 117.807 76.5585 119.719C76.5427 120.678 76.6767 121.377 76.8032 121.818C76.8666 122.039 76.9286 122.197 76.9699 122.291C76.9906 122.338 77.0062 122.37 77.0142 122.385C77.0182 122.393 77.0203 122.397 77.0202 122.397L77.0185 122.394L77.0163 122.39L77.0148 122.387L77.014 122.386C77.0136 122.385 77.0132 122.384 76.1515 122.892C75.2899 123.399 75.2894 123.399 75.2889 123.398L75.288 123.396L75.2859 123.393L75.281 123.384L75.2687 123.362C75.2595 123.345 75.2481 123.324 75.2351 123.299C75.2089 123.248 75.1756 123.179 75.138 123.093C75.0627 122.922 74.9699 122.68 74.8807 122.369C74.7021 121.746 74.5396 120.85 74.5588 119.686C74.5972 117.35 75.3644 113.993 78.0951 109.634C80.673 105.519 85.3064 100.91 91.5106 94.7391C92.0808 94.1719 92.6642 93.5916 93.2605 92.9973L93.9664 93.7056L93.2605 92.9973C94.371 91.8904 95.4051 90.8553 96.3727 89.8868C99.4851 86.7716 101.909 84.3457 103.969 82.4354C106.679 79.9236 108.82 78.2465 111.159 77.0203M121.761 73.6323L121.761 73.6324ZM121.761 73.6324L121.759 73.6325ZM121.759 73.6325L121.755 73.6329ZM121.755 73.6329L121.74 73.6342ZM121.74 73.6342L121.691 73.639ZM121.691 73.639C121.65 73.6433 121.59 73.6496 121.514 73.6587ZM121.514 73.6587C121.362 73.6767 121.143 73.7054 120.865 73.7488ZM120.865 73.7488C120.309 73.8356 119.516 73.9815 118.55 74.2192ZM118.55 74.2192C116.618 74.6943 113.983 75.5389 111.159 77.0202Z" fill="#108E96"/>
<path opacity="0.4" d="M59 59.5H59.5V59V0.5H60.5V59V59.5H61H119.5V60.5H61H60.5V61V119.5H59.5V61V60.5H59H0.5V59.5H59Z" fill="#D8D8D8"/>
<path opacity="0.4" fill-rule="evenodd" clip-rule="evenodd" d="M59 0H61V59H120V61H61V120H59V61H0V59H59V0Z" fill="#108E96"/>
</g>
<g filter="url(#filter0_d_1404_263)">
<path fill-rule="evenodd" clip-rule="evenodd" d="M60 96C79.8823 96 96 79.8823 96 60C96 40.1177 79.8823 24 60 24C40.1177 24 24 40.1177 24 60C24 79.8823 40.1177 96 60 96Z" fill="white"/>
<mask id="mask1_1404_263" style="mask-type:alpha" maskUnits="userSpaceOnUse" x="24" y="24" width="72" height="72">
<path fill-rule="evenodd" clip-rule="evenodd" d="M60 96C79.8823 96 96 79.8823 96 60C96 40.1177 79.8823 24 60 24C40.1177 24 24 40.1177 24 60C24 79.8823 40.1177 96 60 96Z" fill="white"/>
</mask>
<g mask="url(#mask1_1404_263)">
<path fill-rule="evenodd" clip-rule="evenodd" d="M23 58H50V62H23V58ZM50 51.5033C50 50.673 50.6654 50 51.5033 50H68.4967C69.327 50 70 50.6654 70 51.5033V68.4967C70 69.327 69.3346 70 68.4967 70H51.5033C50.673 70 50 69.3346 50 68.4967V51.5033Z" fill="#103B49"/>
</g>
</g>
<defs>
<filter id="filter0_d_1404_263" x="19" y="19" width="82" height="82" filterUnits="userSpaceOnUse" color-interpolation-filters="sRGB">
<feFlood flood-opacity="0" result="BackgroundImageFix"/>
<feColorMatrix in="SourceAlpha" type="matrix" values="0 0 0 0 0 0 0 0 0 0 0 0 0 0 0 0 0 0 127 0" result="hardAlpha"/>
<feOffset/>
<feGaussianBlur stdDeviation="2.5"/>
<feColorMatrix type="matrix" values="0 0 0 0 0.0281916 0 0 0 0 0.122561 0 0 0 0 0.154018 0 0 0 1 0"/>
<feBlend mode="normal" in2="BackgroundImageFix" result="effect1_dropShadow_1404_263"/>
<feBlend mode="normal" in="SourceGraphic" in2="effect1_dropShadow_1404_263" result="shape"/>
</filter>
<linearGradient id="paint0_linear_1404_263" x1="0" y1="0" x2="0" y2="120" gradientUnits="userSpaceOnUse">
<stop stop-color="#0E3643"/>
<stop offset="1" stop-color="#0B2D39"/>
</linearGradient>
</defs>
</svg>
