<svg width="120" height="120" viewBox="0 0 120 120" fill="none" xmlns="http://www.w3.org/2000/svg">
<g clip-path="url(#clip0_1404_178)">
<path fill-rule="evenodd" clip-rule="evenodd" d="M27.4178 0.583008H92.5823C99.6937 0.603515 106.508 3.45067 111.537 8.50247C116.565 13.5543 119.399 20.4001 119.42 27.5444V92.4654C119.397 99.6081 116.562 106.451 111.533 111.501C106.505 116.551 99.6921 119.397 92.5823 119.417H27.4178C20.308 119.397 13.4951 116.551 8.4668 111.501C3.43848 106.451 0.603286 99.6081 0.580322 92.4654V27.5444C0.600736 20.4001 3.43481 13.5543 8.4634 8.50247C13.492 3.45067 20.3064 0.603515 27.4178 0.583008Z" fill="white"/>
<path d="M27.4178 0H92.5822C99.8468 0.023059 106.807 2.93245 111.944 8.09302C117.081 13.2536 119.977 20.2462 120 27.5443V92.4654C119.98 99.7634 117.084 106.756 111.946 111.916C106.809 117.076 99.8467 119.982 92.5822 120H27.4178C20.1533 119.982 13.1913 117.076 8.05363 111.916C2.91595 106.756 0.020427 99.7634 0 92.4654V27.5443C0.0229531 20.2462 2.91898 13.2536 8.05584 8.09302C13.1927 2.93245 20.1532 0.023059 27.4178 0ZM92.5822 1.1659H27.4178C20.4586 1.1813 13.7889 3.96539 8.86804 8.90897C3.94717 13.8526 1.17587 20.5531 1.16054 27.5443V92.4654C1.17842 99.455 3.95085 106.153 8.87145 111.094C13.792 116.036 20.4603 118.819 27.4178 118.834H92.5822C99.5397 118.819 106.208 116.036 111.129 111.094C116.049 106.153 118.822 99.455 118.839 92.4654V27.5443C118.824 20.5531 116.053 13.8526 111.132 8.90897C106.211 3.96539 99.5414 1.1813 92.5822 1.1659Z" fill="#999999"/>
<path fill-rule="evenodd" clip-rule="evenodd" d="M101.46 43.0023C101.46 43.0023 100.638 37.1728 98.0947 34.5593C94.8742 31.1782 91.2572 31.1587 89.6131 30.9547C77.7756 30.1191 59.9613 30.1191 59.9613 30.1191C59.9613 30.1191 42.1953 30.1191 30.3481 30.9838C28.6943 31.1879 25.087 31.2073 21.8665 34.5884C19.323 37.1631 18.5106 43.0315 18.5106 43.0315C17.9866 47.6023 17.7057 52.1979 17.6692 56.7988V63.2501C17.7062 67.8509 17.987 72.4465 18.5106 77.0174C18.5106 77.0174 19.3423 82.8469 21.8665 85.4604C25.087 88.8415 29.323 88.7346 31.2185 89.0941C37.9883 89.7451 59.9999 89.9394 59.9999 89.9394C59.9999 89.9394 77.7949 89.9394 89.6324 89.0553C91.2862 88.8609 94.8936 88.8415 98.1141 85.4604C100.658 82.8857 101.489 77.0174 101.489 77.0174C102.014 72.4433 102.294 67.8445 102.331 63.2403V56.7696C102.281 52.1654 101.994 47.5669 101.47 42.9926L101.46 43.0023Z" fill="#FF0000"/>
<path fill-rule="evenodd" clip-rule="evenodd" d="M51.2283 71.0322V47.1313L74.0909 59.1304L51.2283 71.0322Z" fill="white"/>
</g>
<defs>
<clipPath id="clip0_1404_178">
<rect width="120" height="120" fill="white"/>
</clipPath>
</defs>
</svg>
