<svg width="320" height="170" viewBox="0 0 320 170" fill="none" xmlns="http://www.w3.org/2000/svg">
<rect x="0.5" y="0.5" width="319" height="169" rx="11.5" fill="url(#paint0_linear_27_33)" stroke="url(#paint1_linear_27_33)"/>
<path d="M21.116 24.4C21.572 24.224 22.016 24 22.448 23.728C22.88 23.448 23.276 23.1 23.636 22.684H24.428V31H23.312V24.232C23.216 24.32 23.096 24.412 22.952 24.508C22.816 24.604 22.664 24.696 22.496 24.784C22.336 24.872 22.164 24.956 21.98 25.036C21.804 25.116 21.632 25.184 21.464 25.24L21.116 24.4Z" fill="#5B5B5B"/>
<path d="M40.872 27.412L45.132 29.164L44.82 30.088L39.636 27.892V26.932L44.82 24.736L45.132 25.66L40.872 27.412ZM51.7014 30.82C51.4454 30.884 51.1054 30.952 50.6814 31.024C50.2654 31.096 49.7814 31.132 49.2294 31.132C48.7494 31.132 48.3454 31.064 48.0174 30.928C47.6894 30.784 47.4254 30.584 47.2254 30.328C47.0254 30.072 46.8814 29.772 46.7934 29.428C46.7054 29.076 46.6614 28.688 46.6614 28.264V24.76H47.7774V28.024C47.7774 28.784 47.8974 29.328 48.1374 29.656C48.3774 29.984 48.7814 30.148 49.3494 30.148C49.4694 30.148 49.5934 30.144 49.7214 30.136C49.8494 30.128 49.9694 30.12 50.0814 30.112C50.1934 30.096 50.2934 30.084 50.3814 30.076C50.4774 30.06 50.5454 30.044 50.5854 30.028V24.76H51.7014V30.82ZM55.4961 31.12C54.8081 31.104 54.3201 30.956 54.0321 30.676C53.7441 30.396 53.6001 29.96 53.6001 29.368V21.88L54.7161 21.688V29.188C54.7161 29.372 54.7321 29.524 54.7641 29.644C54.7961 29.764 54.8481 29.86 54.9201 29.932C54.9921 30.004 55.0881 30.06 55.2081 30.1C55.3281 30.132 55.4761 30.16 55.6521 30.184L55.4961 31.12ZM56.5813 25.66L56.8933 24.736L62.0773 26.932V27.892L56.8933 30.088L56.5813 29.164L60.8413 27.412L56.5813 25.66Z" fill="#7E8BFB"/>
<path d="M22.388 121.888C23.596 121.936 24.48 122.2 25.04 122.68C25.608 123.16 25.892 123.812 25.892 124.636C25.892 125.004 25.828 125.344 25.7 125.656C25.58 125.968 25.392 126.236 25.136 126.46C24.888 126.684 24.572 126.86 24.188 126.988C23.804 127.116 23.348 127.18 22.82 127.18C22.612 127.18 22.4 127.164 22.184 127.132C21.968 127.1 21.768 127.06 21.584 127.012C21.4 126.964 21.236 126.916 21.092 126.868C20.948 126.82 20.844 126.78 20.78 126.748L20.996 125.776C21.132 125.84 21.352 125.924 21.656 126.028C21.968 126.132 22.348 126.184 22.796 126.184C23.156 126.184 23.456 126.144 23.696 126.064C23.944 125.984 24.144 125.876 24.296 125.74C24.448 125.604 24.556 125.448 24.62 125.272C24.692 125.088 24.728 124.896 24.728 124.696C24.728 124.392 24.676 124.124 24.572 123.892C24.468 123.652 24.284 123.452 24.02 123.292C23.756 123.132 23.404 123.012 22.964 122.932C22.524 122.844 21.968 122.8 21.296 122.8C21.344 122.408 21.38 122.04 21.404 121.696C21.436 121.352 21.464 121.016 21.488 120.688C21.512 120.36 21.532 120.036 21.548 119.716C21.564 119.388 21.58 119.044 21.596 118.684H25.604V119.632H22.568C22.56 119.752 22.548 119.916 22.532 120.124C22.516 120.324 22.5 120.536 22.484 120.76C22.468 120.976 22.452 121.188 22.436 121.396C22.42 121.604 22.404 121.768 22.388 121.888Z" fill="#5B5B5B"/>
<path d="M40.872 123.412L45.132 125.164L44.82 126.088L39.636 123.892V122.932L44.82 120.736L45.132 121.66L40.872 123.412ZM46.6254 129.22H45.4854L49.5534 117.604H50.6694L46.6254 129.22ZM56.3069 126.82C56.0509 126.884 55.7109 126.952 55.2869 127.024C54.8709 127.096 54.3869 127.132 53.8349 127.132C53.3549 127.132 52.9509 127.064 52.6229 126.928C52.2949 126.784 52.0309 126.584 51.8309 126.328C51.6309 126.072 51.4869 125.772 51.3989 125.428C51.3109 125.076 51.2669 124.688 51.2669 124.264V120.76H52.3829V124.024C52.3829 124.784 52.5029 125.328 52.7429 125.656C52.9829 125.984 53.3869 126.148 53.9549 126.148C54.0749 126.148 54.1989 126.144 54.3269 126.136C54.4549 126.128 54.5749 126.12 54.6869 126.112C54.7989 126.096 54.8989 126.084 54.9869 126.076C55.0829 126.06 55.1509 126.044 55.1909 126.028V120.76H56.3069V126.82ZM60.1015 127.12C59.4135 127.104 58.9255 126.956 58.6375 126.676C58.3495 126.396 58.2055 125.96 58.2055 125.368V117.88L59.3215 117.688V125.188C59.3215 125.372 59.3375 125.524 59.3695 125.644C59.4015 125.764 59.4535 125.86 59.5255 125.932C59.5975 126.004 59.6935 126.06 59.8135 126.1C59.9335 126.132 60.0815 126.16 60.2575 126.184L60.1015 127.12ZM61.1868 121.66L61.4988 120.736L66.6828 122.932V123.892L61.4988 126.088L61.1868 125.164L65.4468 123.412L61.1868 121.66Z" fill="#7E8BFB"/>
<path d="M25.604 48.808C25.604 49.096 25.544 49.376 25.424 49.648C25.312 49.912 25.16 50.176 24.968 50.44C24.776 50.696 24.56 50.952 24.32 51.208C24.08 51.456 23.84 51.7 23.6 51.94C23.464 52.076 23.304 52.236 23.12 52.42C22.944 52.604 22.776 52.796 22.616 52.996C22.456 53.196 22.32 53.388 22.208 53.572C22.104 53.756 22.052 53.916 22.052 54.052H25.88V55H20.84C20.832 54.952 20.828 54.904 20.828 54.856C20.828 54.808 20.828 54.764 20.828 54.724C20.828 54.348 20.888 54 21.008 53.68C21.136 53.352 21.3 53.044 21.5 52.756C21.7 52.468 21.924 52.196 22.172 51.94C22.42 51.684 22.664 51.436 22.904 51.196C23.104 51.004 23.292 50.816 23.468 50.632C23.652 50.44 23.812 50.252 23.948 50.068C24.092 49.876 24.204 49.68 24.284 49.48C24.372 49.28 24.416 49.068 24.416 48.844C24.416 48.604 24.376 48.4 24.296 48.232C24.224 48.064 24.124 47.924 23.996 47.812C23.868 47.7 23.716 47.62 23.54 47.572C23.372 47.516 23.192 47.488 23 47.488C22.768 47.488 22.556 47.52 22.364 47.584C22.172 47.648 22 47.724 21.848 47.812C21.696 47.892 21.568 47.98 21.464 48.076C21.36 48.164 21.28 48.232 21.224 48.28L20.672 47.488C20.744 47.408 20.852 47.312 20.996 47.2C21.14 47.08 21.312 46.968 21.512 46.864C21.712 46.76 21.936 46.672 22.184 46.6C22.432 46.528 22.7 46.492 22.988 46.492C23.86 46.492 24.512 46.696 24.944 47.104C25.384 47.504 25.604 48.072 25.604 48.808Z" fill="#5B5B5B"/>
<path d="M52.872 51.412L57.132 53.164L56.82 54.088L51.636 51.892V50.932L56.82 48.736L57.132 49.66L52.872 51.412ZM60.6054 55.12C59.9174 55.104 59.4294 54.956 59.1414 54.676C58.8534 54.396 58.7094 53.96 58.7094 53.368V45.88L59.8254 45.688V53.188C59.8254 53.372 59.8414 53.524 59.8734 53.644C59.9054 53.764 59.9574 53.86 60.0294 53.932C60.1014 54.004 60.1974 54.06 60.3174 54.1C60.4374 54.132 60.5854 54.16 60.7614 54.184L60.6054 55.12ZM63.1307 55H62.0147V48.76H63.1307V55ZM62.5667 47.632C62.3667 47.632 62.1947 47.568 62.0507 47.44C61.9147 47.304 61.8467 47.124 61.8467 46.9C61.8467 46.676 61.9147 46.5 62.0507 46.372C62.1947 46.236 62.3667 46.168 62.5667 46.168C62.7667 46.168 62.9347 46.236 63.0707 46.372C63.2147 46.5 63.2867 46.676 63.2867 46.9C63.2867 47.124 63.2147 47.304 63.0707 47.44C62.9347 47.568 62.7667 47.632 62.5667 47.632ZM64.7258 49.66L65.0378 48.736L70.2218 50.932V51.892L65.0378 54.088L64.7258 53.164L68.9858 51.412L64.7258 49.66ZM160.696 51.412L164.956 53.164L164.644 54.088L159.46 51.892V50.932L164.644 48.736L164.956 49.66L160.696 51.412ZM169.227 57.22H168.087L172.155 45.604H173.271L169.227 57.22ZM175.812 55.12C175.124 55.104 174.636 54.956 174.348 54.676C174.06 54.396 173.916 53.96 173.916 53.368V45.88L175.032 45.688V53.188C175.032 53.372 175.048 53.524 175.08 53.644C175.112 53.764 175.164 53.86 175.236 53.932C175.308 54.004 175.404 54.06 175.524 54.1C175.644 54.132 175.792 54.16 175.968 54.184L175.812 55.12ZM178.338 55H177.222V48.76H178.338V55ZM177.774 47.632C177.574 47.632 177.402 47.568 177.258 47.44C177.122 47.304 177.054 47.124 177.054 46.9C177.054 46.676 177.122 46.5 177.258 46.372C177.402 46.236 177.574 46.168 177.774 46.168C177.974 46.168 178.142 46.236 178.278 46.372C178.422 46.5 178.494 46.676 178.494 46.9C178.494 47.124 178.422 47.304 178.278 47.44C178.142 47.568 177.974 47.632 177.774 47.632ZM179.933 49.66L180.245 48.736L185.429 50.932V51.892L180.245 54.088L179.933 53.164L184.193 51.412L179.933 49.66Z" fill="#7E8BFB"/>
<path d="M73.8273 54.172C75.0433 54.172 75.6513 53.756 75.6513 52.924C75.6513 52.668 75.5953 52.452 75.4833 52.276C75.3793 52.092 75.2353 51.936 75.0513 51.808C74.8673 51.672 74.6553 51.556 74.4153 51.46C74.1833 51.364 73.9353 51.268 73.6713 51.172C73.3673 51.068 73.0793 50.952 72.8073 50.824C72.5353 50.688 72.2993 50.532 72.0993 50.356C71.8993 50.172 71.7393 49.956 71.6193 49.708C71.5073 49.46 71.4513 49.16 71.4513 48.808C71.4513 48.08 71.6993 47.512 72.1953 47.104C72.6913 46.696 73.3753 46.492 74.2473 46.492C74.7513 46.492 75.2073 46.548 75.6153 46.66C76.0313 46.764 76.3353 46.88 76.5273 47.008L76.1553 47.956C75.9873 47.852 75.7353 47.752 75.3993 47.656C75.0713 47.552 74.6873 47.5 74.2473 47.5C74.0233 47.5 73.8153 47.524 73.6233 47.572C73.4313 47.62 73.2633 47.692 73.1193 47.788C72.9753 47.884 72.8593 48.008 72.7713 48.16C72.6913 48.304 72.6513 48.476 72.6513 48.676C72.6513 48.9 72.6953 49.088 72.7833 49.24C72.8713 49.392 72.9953 49.528 73.1553 49.648C73.3153 49.76 73.4993 49.864 73.7073 49.96C73.9233 50.056 74.1593 50.152 74.4153 50.248C74.7753 50.392 75.1033 50.536 75.3993 50.68C75.7033 50.824 75.9633 50.996 76.1793 51.196C76.4033 51.396 76.5753 51.636 76.6953 51.916C76.8153 52.188 76.8753 52.52 76.8753 52.912C76.8753 53.64 76.6073 54.2 76.0713 54.592C75.5433 54.984 74.7953 55.18 73.8273 55.18C73.4993 55.18 73.1953 55.156 72.9153 55.108C72.6433 55.068 72.3993 55.02 72.1833 54.964C71.9673 54.9 71.7793 54.836 71.6193 54.772C71.4673 54.7 71.3473 54.64 71.2593 54.592L71.6073 53.632C71.7913 53.736 72.0713 53.852 72.4473 53.98C72.8233 54.108 73.2833 54.172 73.8273 54.172ZM77.862 51.892C77.862 51.34 77.942 50.86 78.102 50.452C78.262 50.036 78.474 49.692 78.738 49.42C79.002 49.148 79.306 48.944 79.65 48.808C79.994 48.672 80.346 48.604 80.706 48.604C81.546 48.604 82.19 48.868 82.638 49.396C83.086 49.916 83.31 50.712 83.31 51.784C83.31 51.832 83.31 51.896 83.31 51.976C83.31 52.048 83.306 52.116 83.298 52.18H79.026C79.074 52.828 79.262 53.32 79.59 53.656C79.918 53.992 80.43 54.16 81.126 54.16C81.518 54.16 81.846 54.128 82.11 54.064C82.382 53.992 82.586 53.924 82.722 53.86L82.878 54.796C82.742 54.868 82.502 54.944 82.158 55.024C81.822 55.104 81.438 55.144 81.006 55.144C80.462 55.144 79.99 55.064 79.59 54.904C79.198 54.736 78.874 54.508 78.618 54.22C78.362 53.932 78.17 53.592 78.042 53.2C77.922 52.8 77.862 52.364 77.862 51.892ZM82.146 51.28C82.154 50.776 82.026 50.364 81.762 50.044C81.506 49.716 81.15 49.552 80.694 49.552C80.438 49.552 80.21 49.604 80.01 49.708C79.818 49.804 79.654 49.932 79.518 50.092C79.382 50.252 79.274 50.436 79.194 50.644C79.122 50.852 79.074 51.064 79.05 51.28H82.146ZM84.9131 48.94C85.1691 48.876 85.5051 48.808 85.9211 48.736C86.3451 48.664 86.8331 48.628 87.3851 48.628C87.7851 48.628 88.1211 48.684 88.3931 48.796C88.6651 48.9 88.8931 49.056 89.0771 49.264C89.1331 49.224 89.2211 49.168 89.3411 49.096C89.4611 49.024 89.6091 48.956 89.7851 48.892C89.9611 48.82 90.1571 48.76 90.3731 48.712C90.5891 48.656 90.8211 48.628 91.0691 48.628C91.5491 48.628 91.9411 48.7 92.2451 48.844C92.5491 48.98 92.7851 49.176 92.9531 49.432C93.1291 49.688 93.2451 49.992 93.3011 50.344C93.3651 50.696 93.3971 51.08 93.3971 51.496V55H92.2811V51.736C92.2811 51.368 92.2611 51.052 92.2211 50.788C92.1891 50.524 92.1211 50.304 92.0171 50.128C91.9211 49.952 91.7851 49.824 91.6091 49.744C91.4411 49.656 91.2211 49.612 90.9491 49.612C90.5731 49.612 90.2611 49.664 90.0131 49.768C89.7731 49.864 89.6091 49.952 89.5211 50.032C89.5851 50.24 89.6331 50.468 89.6651 50.716C89.6971 50.964 89.7131 51.224 89.7131 51.496V55H88.5971V51.736C88.5971 51.368 88.5771 51.052 88.5371 50.788C88.4971 50.524 88.4251 50.304 88.3211 50.128C88.2251 49.952 88.0891 49.824 87.9131 49.744C87.7451 49.656 87.5291 49.612 87.2651 49.612C87.1531 49.612 87.0331 49.616 86.9051 49.624C86.7771 49.632 86.6531 49.644 86.5331 49.66C86.4211 49.668 86.3171 49.68 86.2211 49.696C86.1251 49.712 86.0611 49.724 86.0291 49.732V55H84.9131V48.94ZM97.3611 54.196C97.6251 54.196 97.8571 54.192 98.0571 54.184C98.2651 54.168 98.4371 54.144 98.5731 54.112V52.252C98.4931 52.212 98.3611 52.18 98.1771 52.156C98.0011 52.124 97.7851 52.108 97.5291 52.108C97.3611 52.108 97.1811 52.12 96.9891 52.144C96.8051 52.168 96.6331 52.22 96.4731 52.3C96.3211 52.372 96.1931 52.476 96.0891 52.612C95.9851 52.74 95.9331 52.912 95.9331 53.128C95.9331 53.528 96.0611 53.808 96.3171 53.968C96.5731 54.12 96.9211 54.196 97.3611 54.196ZM97.2651 48.604C97.7131 48.604 98.0891 48.664 98.3931 48.784C98.7051 48.896 98.9531 49.06 99.1371 49.276C99.3291 49.484 99.4651 49.736 99.5451 50.032C99.6251 50.32 99.6651 50.64 99.6651 50.992V54.892C99.5691 54.908 99.4331 54.932 99.2571 54.964C99.0891 54.988 98.8971 55.012 98.6811 55.036C98.4651 55.06 98.2291 55.08 97.9731 55.096C97.7251 55.12 97.4771 55.132 97.2291 55.132C96.8771 55.132 96.5531 55.096 96.2571 55.024C95.9611 54.952 95.7051 54.84 95.4891 54.688C95.2731 54.528 95.1051 54.32 94.9851 54.064C94.8651 53.808 94.8051 53.5 94.8051 53.14C94.8051 52.796 94.8731 52.5 95.0091 52.252C95.1531 52.004 95.3451 51.804 95.5851 51.652C95.8251 51.5 96.1051 51.388 96.4251 51.316C96.7451 51.244 97.0811 51.208 97.4331 51.208C97.5451 51.208 97.6611 51.216 97.7811 51.232C97.9011 51.24 98.0131 51.256 98.1171 51.28C98.2291 51.296 98.3251 51.312 98.4051 51.328C98.4851 51.344 98.5411 51.356 98.5731 51.364V51.052C98.5731 50.868 98.5531 50.688 98.5131 50.512C98.4731 50.328 98.4011 50.168 98.2971 50.032C98.1931 49.888 98.0491 49.776 97.8651 49.696C97.6891 49.608 97.4571 49.564 97.1691 49.564C96.8011 49.564 96.4771 49.592 96.1971 49.648C95.9251 49.696 95.7211 49.748 95.5851 49.804L95.4531 48.88C95.5971 48.816 95.8371 48.756 96.1731 48.7C96.5091 48.636 96.8731 48.604 97.2651 48.604ZM101.519 48.94C101.775 48.876 102.115 48.808 102.539 48.736C102.963 48.664 103.451 48.628 104.003 48.628C104.499 48.628 104.911 48.7 105.239 48.844C105.567 48.98 105.827 49.176 106.019 49.432C106.219 49.68 106.359 49.98 106.439 50.332C106.519 50.684 106.559 51.072 106.559 51.496V55H105.443V51.736C105.443 51.352 105.415 51.024 105.359 50.752C105.311 50.48 105.227 50.26 105.107 50.092C104.987 49.924 104.827 49.804 104.627 49.732C104.427 49.652 104.179 49.612 103.883 49.612C103.763 49.612 103.639 49.616 103.511 49.624C103.383 49.632 103.259 49.644 103.139 49.66C103.027 49.668 102.923 49.68 102.827 49.696C102.739 49.712 102.675 49.724 102.635 49.732V55H101.519V48.94ZM109.453 48.76H111.817V49.696H109.453V52.576C109.453 52.888 109.477 53.148 109.525 53.356C109.573 53.556 109.645 53.716 109.741 53.836C109.837 53.948 109.957 54.028 110.101 54.076C110.245 54.124 110.413 54.148 110.605 54.148C110.941 54.148 111.209 54.112 111.409 54.04C111.617 53.96 111.761 53.904 111.841 53.872L112.057 54.796C111.945 54.852 111.749 54.92 111.469 55C111.189 55.088 110.869 55.132 110.509 55.132C110.085 55.132 109.733 55.08 109.453 54.976C109.181 54.864 108.961 54.7 108.793 54.484C108.625 54.268 108.505 54.004 108.433 53.692C108.369 53.372 108.337 53.004 108.337 52.588V47.02L109.453 46.828V48.76ZM114.353 55H113.237V48.76H114.353V55ZM113.789 47.632C113.589 47.632 113.417 47.568 113.273 47.44C113.137 47.304 113.069 47.124 113.069 46.9C113.069 46.676 113.137 46.5 113.273 46.372C113.417 46.236 113.589 46.168 113.789 46.168C113.989 46.168 114.157 46.236 114.293 46.372C114.437 46.5 114.509 46.676 114.509 46.9C114.509 47.124 114.437 47.304 114.293 47.44C114.157 47.568 113.989 47.632 113.789 47.632ZM118.985 55.144C118.481 55.144 118.037 55.064 117.653 54.904C117.277 54.744 116.957 54.52 116.693 54.232C116.437 53.944 116.245 53.604 116.117 53.212C115.989 52.812 115.925 52.372 115.925 51.892C115.925 51.412 115.993 50.972 116.129 50.572C116.273 50.172 116.473 49.828 116.729 49.54C116.985 49.244 117.297 49.016 117.665 48.856C118.041 48.688 118.457 48.604 118.913 48.604C119.193 48.604 119.473 48.628 119.753 48.676C120.033 48.724 120.301 48.8 120.557 48.904L120.305 49.852C120.137 49.772 119.941 49.708 119.717 49.66C119.501 49.612 119.269 49.588 119.021 49.588C118.397 49.588 117.917 49.784 117.581 50.176C117.253 50.568 117.089 51.14 117.089 51.892C117.089 52.228 117.125 52.536 117.197 52.816C117.277 53.096 117.397 53.336 117.557 53.536C117.725 53.736 117.937 53.892 118.193 54.004C118.449 54.108 118.761 54.16 119.129 54.16C119.425 54.16 119.693 54.132 119.933 54.076C120.173 54.02 120.361 53.96 120.497 53.896L120.653 54.832C120.589 54.872 120.497 54.912 120.377 54.952C120.257 54.984 120.121 55.012 119.969 55.036C119.817 55.068 119.653 55.092 119.477 55.108C119.309 55.132 119.145 55.144 118.985 55.144ZM129.932 46.684H131.096V55H129.932V51.16H125.864V55H124.7V46.684H125.864V50.152H129.932V46.684ZM138.717 46.684V47.692H136.101V55H134.937V47.692H132.321V46.684H138.717ZM143.678 53.848C143.598 53.656 143.49 53.412 143.354 53.116C143.226 52.82 143.086 52.5 142.934 52.156C142.782 51.812 142.618 51.46 142.442 51.1C142.274 50.732 142.114 50.388 141.962 50.068C141.81 49.74 141.666 49.448 141.53 49.192C141.402 48.936 141.298 48.74 141.218 48.604C141.13 49.548 141.058 50.572 141.002 51.676C140.946 52.772 140.898 53.88 140.858 55H139.718C139.75 54.28 139.786 53.556 139.826 52.828C139.866 52.092 139.91 51.372 139.958 50.668C140.014 49.956 140.07 49.264 140.126 48.592C140.19 47.92 140.258 47.284 140.33 46.684H141.35C141.566 47.036 141.798 47.452 142.046 47.932C142.294 48.412 142.542 48.916 142.79 49.444C143.038 49.964 143.278 50.488 143.51 51.016C143.742 51.536 143.954 52.012 144.146 52.444C144.338 52.012 144.55 51.536 144.782 51.016C145.014 50.488 145.254 49.964 145.502 49.444C145.75 48.916 145.998 48.412 146.246 47.932C146.494 47.452 146.726 47.036 146.942 46.684H147.962C148.234 49.364 148.438 52.136 148.574 55H147.434C147.394 53.88 147.346 52.772 147.29 51.676C147.234 50.572 147.162 49.548 147.074 48.604C146.994 48.74 146.886 48.936 146.75 49.192C146.622 49.448 146.482 49.74 146.33 50.068C146.178 50.388 146.014 50.732 145.838 51.1C145.67 51.46 145.51 51.812 145.358 52.156C145.206 52.5 145.062 52.82 144.926 53.116C144.798 53.412 144.694 53.656 144.614 53.848H143.678ZM155.403 53.992V55H150.399V46.684H151.563V53.992H155.403ZM158.151 54.352C158.151 54.568 158.079 54.756 157.935 54.916C157.791 55.076 157.595 55.156 157.347 55.156C157.099 55.156 156.903 55.076 156.759 54.916C156.615 54.756 156.543 54.568 156.543 54.352C156.543 54.136 156.615 53.948 156.759 53.788C156.903 53.628 157.099 53.548 157.347 53.548C157.595 53.548 157.791 53.628 157.935 53.788C158.079 53.948 158.151 54.136 158.151 54.352Z" fill="white"/>
<path d="M22.712 78.184C23.424 78.184 23.932 78.044 24.236 77.764C24.548 77.484 24.704 77.108 24.704 76.636C24.704 76.332 24.64 76.076 24.512 75.868C24.384 75.66 24.216 75.496 24.008 75.376C23.8 75.248 23.556 75.16 23.276 75.112C23.004 75.056 22.724 75.028 22.436 75.028H22.148V74.116H22.544C22.744 74.116 22.948 74.096 23.156 74.056C23.372 74.016 23.568 73.944 23.744 73.84C23.92 73.736 24.064 73.596 24.176 73.42C24.288 73.236 24.344 73.008 24.344 72.736C24.344 72.512 24.304 72.32 24.224 72.16C24.144 72 24.036 71.868 23.9 71.764C23.772 71.66 23.62 71.588 23.444 71.548C23.276 71.5 23.096 71.476 22.904 71.476C22.52 71.476 22.192 71.532 21.92 71.644C21.656 71.756 21.432 71.872 21.248 71.992L20.816 71.14C20.912 71.076 21.032 71.008 21.176 70.936C21.328 70.856 21.496 70.784 21.68 70.72C21.864 70.656 22.06 70.604 22.268 70.564C22.484 70.516 22.708 70.492 22.94 70.492C23.38 70.492 23.76 70.548 24.08 70.66C24.4 70.764 24.664 70.916 24.872 71.116C25.08 71.308 25.236 71.54 25.34 71.812C25.444 72.076 25.496 72.364 25.496 72.676C25.496 73.108 25.372 73.48 25.124 73.792C24.876 74.096 24.576 74.328 24.224 74.488C24.44 74.552 24.648 74.644 24.848 74.764C25.048 74.884 25.22 75.036 25.364 75.22C25.516 75.404 25.636 75.616 25.724 75.856C25.82 76.096 25.868 76.364 25.868 76.66C25.868 77.02 25.804 77.356 25.676 77.668C25.556 77.972 25.364 78.236 25.1 78.46C24.844 78.684 24.52 78.86 24.128 78.988C23.736 79.116 23.272 79.18 22.736 79.18C22.528 79.18 22.312 79.164 22.088 79.132C21.872 79.1 21.668 79.06 21.476 79.012C21.284 78.964 21.116 78.916 20.972 78.868C20.828 78.82 20.724 78.78 20.66 78.748L20.876 77.776C21.012 77.84 21.236 77.924 21.548 78.028C21.868 78.132 22.256 78.184 22.712 78.184Z" fill="#5B5B5B"/>
<path d="M52.872 75.412L57.132 77.164L56.82 78.088L51.636 75.892V74.932L56.82 72.736L57.132 73.66L52.872 75.412ZM60.6054 79.12C59.9174 79.104 59.4294 78.956 59.1414 78.676C58.8534 78.396 58.7094 77.96 58.7094 77.368V69.88L59.8254 69.688V77.188C59.8254 77.372 59.8414 77.524 59.8734 77.644C59.9054 77.764 59.9574 77.86 60.0294 77.932C60.1014 78.004 60.1974 78.06 60.3174 78.1C60.4374 78.132 60.5854 78.16 60.7614 78.184L60.6054 79.12ZM63.1307 79H62.0147V72.76H63.1307V79ZM62.5667 71.632C62.3667 71.632 62.1947 71.568 62.0507 71.44C61.9147 71.304 61.8467 71.124 61.8467 70.9C61.8467 70.676 61.9147 70.5 62.0507 70.372C62.1947 70.236 62.3667 70.168 62.5667 70.168C62.7667 70.168 62.9347 70.236 63.0707 70.372C63.2147 70.5 63.2867 70.676 63.2867 70.9C63.2867 71.124 63.2147 71.304 63.0707 71.44C62.9347 71.568 62.7667 71.632 62.5667 71.632ZM64.7258 73.66L65.0378 72.736L70.2218 74.932V75.892L65.0378 78.088L64.7258 77.164L68.9858 75.412L64.7258 73.66ZM157.028 75.412L161.288 77.164L160.976 78.088L155.792 75.892V74.932L160.976 72.736L161.288 73.66L157.028 75.412ZM165.559 81.22H164.419L168.487 69.604H169.603L165.559 81.22ZM172.145 79.12C171.457 79.104 170.969 78.956 170.681 78.676C170.393 78.396 170.249 77.96 170.249 77.368V69.88L171.365 69.688V77.188C171.365 77.372 171.381 77.524 171.413 77.644C171.445 77.764 171.497 77.86 171.569 77.932C171.641 78.004 171.737 78.06 171.857 78.1C171.977 78.132 172.125 78.16 172.301 78.184L172.145 79.12ZM174.67 79H173.554V72.76H174.67V79ZM174.106 71.632C173.906 71.632 173.734 71.568 173.59 71.44C173.454 71.304 173.386 71.124 173.386 70.9C173.386 70.676 173.454 70.5 173.59 70.372C173.734 70.236 173.906 70.168 174.106 70.168C174.306 70.168 174.474 70.236 174.61 70.372C174.754 70.5 174.826 70.676 174.826 70.9C174.826 71.124 174.754 71.304 174.61 71.44C174.474 71.568 174.306 71.632 174.106 71.632ZM176.265 73.66L176.577 72.736L181.761 74.932V75.892L176.577 78.088L176.265 77.164L180.525 75.412L176.265 73.66Z" fill="#7E8BFB"/>
<path d="M76.9713 74.908H78.1353V78.796C78.0393 78.828 77.8993 78.864 77.7153 78.904C77.5393 78.944 77.3313 78.984 77.0913 79.024C76.8593 79.064 76.6033 79.096 76.3233 79.12C76.0433 79.152 75.7593 79.168 75.4713 79.168C74.8873 79.168 74.3553 79.072 73.8753 78.88C73.3953 78.688 72.9833 78.408 72.6393 78.04C72.2953 77.672 72.0273 77.22 71.8353 76.684C71.6513 76.148 71.5593 75.532 71.5593 74.836C71.5593 74.14 71.6633 73.524 71.8713 72.988C72.0873 72.444 72.3753 71.988 72.7353 71.62C73.0953 71.252 73.5153 70.972 73.9953 70.78C74.4833 70.588 75.0033 70.492 75.5553 70.492C75.9313 70.492 76.2633 70.516 76.5513 70.564C76.8473 70.612 77.0993 70.668 77.3073 70.732C77.5153 70.796 77.6833 70.86 77.8113 70.924C77.9473 70.988 78.0393 71.036 78.0873 71.068L77.7153 72.04C77.4833 71.888 77.1753 71.764 76.7913 71.668C76.4073 71.564 76.0153 71.512 75.6153 71.512C75.1913 71.512 74.8033 71.588 74.4513 71.74C74.1073 71.892 73.8113 72.112 73.5633 72.4C73.3233 72.688 73.1353 73.04 72.9993 73.456C72.8633 73.864 72.7953 74.324 72.7953 74.836C72.7953 75.332 72.8513 75.784 72.9633 76.192C73.0833 76.6 73.2593 76.952 73.4913 77.248C73.7313 77.536 74.0233 77.76 74.3673 77.92C74.7193 78.08 75.1313 78.16 75.6033 78.16C75.9393 78.16 76.2233 78.144 76.4553 78.112C76.6953 78.072 76.8673 78.036 76.9713 78.004V74.908ZM85.3938 75.88C85.3938 76.376 85.3218 76.824 85.1778 77.224C85.0338 77.624 84.8298 77.968 84.5658 78.256C84.3098 78.544 84.0018 78.768 83.6418 78.928C83.2818 79.08 82.8898 79.156 82.4658 79.156C82.0418 79.156 81.6498 79.08 81.2898 78.928C80.9298 78.768 80.6178 78.544 80.3538 78.256C80.0978 77.968 79.8978 77.624 79.7538 77.224C79.6098 76.824 79.5378 76.376 79.5378 75.88C79.5378 75.392 79.6098 74.948 79.7538 74.548C79.8978 74.14 80.0978 73.792 80.3538 73.504C80.6178 73.216 80.9298 72.996 81.2898 72.844C81.6498 72.684 82.0418 72.604 82.4658 72.604C82.8898 72.604 83.2818 72.684 83.6418 72.844C84.0018 72.996 84.3098 73.216 84.5658 73.504C84.8298 73.792 85.0338 74.14 85.1778 74.548C85.3218 74.948 85.3938 75.392 85.3938 75.88ZM84.2298 75.88C84.2298 75.176 84.0698 74.62 83.7498 74.212C83.4378 73.796 83.0098 73.588 82.4658 73.588C81.9218 73.588 81.4898 73.796 81.1698 74.212C80.8578 74.62 80.7018 75.176 80.7018 75.88C80.7018 76.584 80.8578 77.144 81.1698 77.56C81.4898 77.968 81.9218 78.172 82.4658 78.172C83.0098 78.172 83.4378 77.968 83.7498 77.56C84.0698 77.144 84.2298 76.584 84.2298 75.88ZM92.4719 75.88C92.4719 76.376 92.3999 76.824 92.2559 77.224C92.1119 77.624 91.9079 77.968 91.6439 78.256C91.3879 78.544 91.0799 78.768 90.7199 78.928C90.3599 79.08 89.9679 79.156 89.5439 79.156C89.1199 79.156 88.7279 79.08 88.3679 78.928C88.0079 78.768 87.6959 78.544 87.4319 78.256C87.1759 77.968 86.9759 77.624 86.8319 77.224C86.6879 76.824 86.6159 76.376 86.6159 75.88C86.6159 75.392 86.6879 74.948 86.8319 74.548C86.9759 74.14 87.1759 73.792 87.4319 73.504C87.6959 73.216 88.0079 72.996 88.3679 72.844C88.7279 72.684 89.1199 72.604 89.5439 72.604C89.9679 72.604 90.3599 72.684 90.7199 72.844C91.0799 72.996 91.3879 73.216 91.6439 73.504C91.9079 73.792 92.1119 74.14 92.2559 74.548C92.3999 74.948 92.4719 75.392 92.4719 75.88ZM91.3079 75.88C91.3079 75.176 91.1479 74.62 90.8279 74.212C90.5159 73.796 90.0879 73.588 89.5439 73.588C88.9999 73.588 88.5679 73.796 88.2479 74.212C87.9359 74.62 87.7799 75.176 87.7799 75.88C87.7799 76.584 87.9359 77.144 88.2479 77.56C88.5679 77.968 88.9999 78.172 89.5439 78.172C90.0879 78.172 90.5159 77.968 90.8279 77.56C91.1479 77.144 91.3079 76.584 91.3079 75.88ZM98.074 74.08C97.938 73.968 97.742 73.86 97.486 73.756C97.23 73.652 96.95 73.6 96.646 73.6C96.326 73.6 96.05 73.66 95.818 73.78C95.594 73.892 95.41 74.052 95.266 74.26C95.122 74.46 95.018 74.7 94.954 74.98C94.89 75.26 94.858 75.56 94.858 75.88C94.858 76.608 95.038 77.172 95.398 77.572C95.758 77.964 96.238 78.16 96.838 78.16C97.142 78.16 97.394 78.148 97.594 78.124C97.802 78.092 97.962 78.06 98.074 78.028V74.08ZM98.074 69.88L99.19 69.688V78.82C98.934 78.892 98.606 78.964 98.206 79.036C97.806 79.108 97.346 79.144 96.826 79.144C96.346 79.144 95.914 79.068 95.53 78.916C95.146 78.764 94.818 78.548 94.546 78.268C94.274 77.988 94.062 77.648 93.91 77.248C93.766 76.84 93.694 76.384 93.694 75.88C93.694 75.4 93.754 74.96 93.874 74.56C94.002 74.16 94.186 73.816 94.426 73.528C94.666 73.24 94.958 73.016 95.302 72.856C95.654 72.696 96.054 72.616 96.502 72.616C96.862 72.616 97.178 72.664 97.45 72.76C97.73 72.856 97.938 72.948 98.074 73.036V69.88ZM106.166 70.6C107.334 70.6 108.23 70.824 108.854 71.272C109.486 71.712 109.802 72.372 109.802 73.252C109.802 73.732 109.714 74.144 109.538 74.488C109.37 74.824 109.122 75.1 108.794 75.316C108.474 75.524 108.082 75.676 107.618 75.772C107.154 75.868 106.63 75.916 106.046 75.916H105.122V79H103.958V70.804C104.286 70.724 104.65 70.672 105.05 70.648C105.458 70.616 105.83 70.6 106.166 70.6ZM106.262 71.62C105.766 71.62 105.386 71.632 105.122 71.656V74.92H105.998C106.398 74.92 106.758 74.896 107.078 74.848C107.398 74.792 107.666 74.704 107.882 74.584C108.106 74.456 108.278 74.284 108.398 74.068C108.518 73.852 108.578 73.576 108.578 73.24C108.578 72.92 108.514 72.656 108.386 72.448C108.266 72.24 108.098 72.076 107.882 71.956C107.674 71.828 107.43 71.74 107.15 71.692C106.87 71.644 106.574 71.62 106.262 71.62ZM113.491 72.628C113.587 72.628 113.695 72.636 113.815 72.652C113.943 72.66 114.067 72.676 114.187 72.7C114.307 72.716 114.415 72.736 114.511 72.76C114.615 72.776 114.691 72.792 114.739 72.808L114.547 73.78C114.459 73.748 114.311 73.712 114.103 73.672C113.903 73.624 113.643 73.6 113.323 73.6C113.115 73.6 112.907 73.624 112.699 73.672C112.499 73.712 112.367 73.74 112.303 73.756V79H111.187V73.024C111.451 72.928 111.779 72.84 112.171 72.76C112.563 72.672 113.003 72.628 113.491 72.628ZM117.927 78.196C118.191 78.196 118.423 78.192 118.623 78.184C118.831 78.168 119.003 78.144 119.139 78.112V76.252C119.059 76.212 118.927 76.18 118.743 76.156C118.567 76.124 118.351 76.108 118.095 76.108C117.927 76.108 117.747 76.12 117.555 76.144C117.371 76.168 117.199 76.22 117.039 76.3C116.887 76.372 116.759 76.476 116.655 76.612C116.551 76.74 116.499 76.912 116.499 77.128C116.499 77.528 116.627 77.808 116.883 77.968C117.139 78.12 117.487 78.196 117.927 78.196ZM117.831 72.604C118.279 72.604 118.655 72.664 118.959 72.784C119.271 72.896 119.519 73.06 119.703 73.276C119.895 73.484 120.031 73.736 120.111 74.032C120.191 74.32 120.231 74.64 120.231 74.992V78.892C120.135 78.908 119.999 78.932 119.823 78.964C119.655 78.988 119.463 79.012 119.247 79.036C119.031 79.06 118.795 79.08 118.539 79.096C118.291 79.12 118.043 79.132 117.795 79.132C117.443 79.132 117.119 79.096 116.823 79.024C116.527 78.952 116.271 78.84 116.055 78.688C115.839 78.528 115.671 78.32 115.551 78.064C115.431 77.808 115.371 77.5 115.371 77.14C115.371 76.796 115.439 76.5 115.575 76.252C115.719 76.004 115.911 75.804 116.151 75.652C116.391 75.5 116.671 75.388 116.991 75.316C117.311 75.244 117.647 75.208 117.999 75.208C118.111 75.208 118.227 75.216 118.347 75.232C118.467 75.24 118.579 75.256 118.683 75.28C118.795 75.296 118.891 75.312 118.971 75.328C119.051 75.344 119.107 75.356 119.139 75.364V75.052C119.139 74.868 119.119 74.688 119.079 74.512C119.039 74.328 118.967 74.168 118.863 74.032C118.759 73.888 118.615 73.776 118.431 73.696C118.255 73.608 118.023 73.564 117.735 73.564C117.367 73.564 117.043 73.592 116.763 73.648C116.491 73.696 116.287 73.748 116.151 73.804L116.019 72.88C116.163 72.816 116.403 72.756 116.739 72.7C117.075 72.636 117.439 72.604 117.831 72.604ZM124.797 79.144C124.293 79.144 123.849 79.064 123.465 78.904C123.089 78.744 122.769 78.52 122.505 78.232C122.249 77.944 122.057 77.604 121.929 77.212C121.801 76.812 121.737 76.372 121.737 75.892C121.737 75.412 121.805 74.972 121.941 74.572C122.085 74.172 122.285 73.828 122.541 73.54C122.797 73.244 123.109 73.016 123.477 72.856C123.853 72.688 124.269 72.604 124.725 72.604C125.005 72.604 125.285 72.628 125.565 72.676C125.845 72.724 126.113 72.8 126.369 72.904L126.117 73.852C125.949 73.772 125.753 73.708 125.529 73.66C125.313 73.612 125.081 73.588 124.833 73.588C124.209 73.588 123.729 73.784 123.393 74.176C123.065 74.568 122.901 75.14 122.901 75.892C122.901 76.228 122.937 76.536 123.009 76.816C123.089 77.096 123.209 77.336 123.369 77.536C123.537 77.736 123.749 77.892 124.005 78.004C124.261 78.108 124.573 78.16 124.941 78.16C125.237 78.16 125.505 78.132 125.745 78.076C125.985 78.02 126.173 77.96 126.309 77.896L126.465 78.832C126.401 78.872 126.309 78.912 126.189 78.952C126.069 78.984 125.933 79.012 125.781 79.036C125.629 79.068 125.465 79.092 125.289 79.108C125.121 79.132 124.957 79.144 124.797 79.144ZM128.707 72.76H131.071V73.696H128.707V76.576C128.707 76.888 128.731 77.148 128.779 77.356C128.827 77.556 128.899 77.716 128.995 77.836C129.091 77.948 129.211 78.028 129.355 78.076C129.499 78.124 129.667 78.148 129.859 78.148C130.195 78.148 130.463 78.112 130.663 78.04C130.871 77.96 131.015 77.904 131.095 77.872L131.311 78.796C131.199 78.852 131.003 78.92 130.723 79C130.443 79.088 130.123 79.132 129.763 79.132C129.339 79.132 128.987 79.08 128.707 78.976C128.435 78.864 128.215 78.7 128.047 78.484C127.879 78.268 127.759 78.004 127.687 77.692C127.623 77.372 127.591 77.004 127.591 76.588V71.02L128.707 70.828V72.76ZM133.607 79H132.491V72.76H133.607V79ZM133.043 71.632C132.843 71.632 132.671 71.568 132.527 71.44C132.391 71.304 132.323 71.124 132.323 70.9C132.323 70.676 132.391 70.5 132.527 70.372C132.671 70.236 132.843 70.168 133.043 70.168C133.243 70.168 133.411 70.236 133.547 70.372C133.691 70.5 133.763 70.676 133.763 70.9C133.763 71.124 133.691 71.304 133.547 71.44C133.411 71.568 133.243 71.632 133.043 71.632ZM138.238 79.144C137.734 79.144 137.29 79.064 136.906 78.904C136.53 78.744 136.21 78.52 135.946 78.232C135.69 77.944 135.498 77.604 135.37 77.212C135.242 76.812 135.178 76.372 135.178 75.892C135.178 75.412 135.246 74.972 135.382 74.572C135.526 74.172 135.726 73.828 135.982 73.54C136.238 73.244 136.55 73.016 136.918 72.856C137.294 72.688 137.71 72.604 138.166 72.604C138.446 72.604 138.726 72.628 139.006 72.676C139.286 72.724 139.554 72.8 139.81 72.904L139.558 73.852C139.39 73.772 139.194 73.708 138.97 73.66C138.754 73.612 138.522 73.588 138.274 73.588C137.65 73.588 137.17 73.784 136.834 74.176C136.506 74.568 136.342 75.14 136.342 75.892C136.342 76.228 136.378 76.536 136.45 76.816C136.53 77.096 136.65 77.336 136.81 77.536C136.978 77.736 137.19 77.892 137.446 78.004C137.702 78.108 138.014 78.16 138.382 78.16C138.678 78.16 138.946 78.132 139.186 78.076C139.426 78.02 139.614 77.96 139.75 77.896L139.906 78.832C139.842 78.872 139.75 78.912 139.63 78.952C139.51 78.984 139.374 79.012 139.222 79.036C139.07 79.068 138.906 79.092 138.73 79.108C138.562 79.132 138.398 79.144 138.238 79.144ZM140.757 75.892C140.757 75.34 140.837 74.86 140.997 74.452C141.157 74.036 141.369 73.692 141.633 73.42C141.897 73.148 142.201 72.944 142.545 72.808C142.889 72.672 143.241 72.604 143.601 72.604C144.441 72.604 145.085 72.868 145.533 73.396C145.981 73.916 146.205 74.712 146.205 75.784C146.205 75.832 146.205 75.896 146.205 75.976C146.205 76.048 146.201 76.116 146.193 76.18H141.921C141.969 76.828 142.157 77.32 142.485 77.656C142.813 77.992 143.325 78.16 144.021 78.16C144.413 78.16 144.741 78.128 145.005 78.064C145.277 77.992 145.481 77.924 145.617 77.86L145.773 78.796C145.637 78.868 145.397 78.944 145.053 79.024C144.717 79.104 144.333 79.144 143.901 79.144C143.357 79.144 142.885 79.064 142.485 78.904C142.093 78.736 141.769 78.508 141.513 78.22C141.257 77.932 141.065 77.592 140.937 77.2C140.817 76.8 140.757 76.364 140.757 75.892ZM145.041 75.28C145.049 74.776 144.921 74.364 144.657 74.044C144.401 73.716 144.045 73.552 143.589 73.552C143.333 73.552 143.105 73.604 142.905 73.708C142.713 73.804 142.549 73.932 142.413 74.092C142.277 74.252 142.169 74.436 142.089 74.644C142.017 74.852 141.969 75.064 141.945 75.28H145.041ZM149.26 78.196C149.716 78.196 150.052 78.136 150.268 78.016C150.492 77.896 150.604 77.704 150.604 77.44C150.604 77.168 150.496 76.952 150.28 76.792C150.064 76.632 149.708 76.452 149.212 76.252C148.972 76.156 148.74 76.06 148.516 75.964C148.3 75.86 148.112 75.74 147.952 75.604C147.792 75.468 147.664 75.304 147.568 75.112C147.472 74.92 147.424 74.684 147.424 74.404C147.424 73.852 147.628 73.416 148.036 73.096C148.444 72.768 149 72.604 149.704 72.604C149.88 72.604 150.056 72.616 150.232 72.64C150.408 72.656 150.572 72.68 150.724 72.712C150.876 72.736 151.008 72.764 151.12 72.796C151.24 72.828 151.332 72.856 151.396 72.88L151.192 73.84C151.072 73.776 150.884 73.712 150.628 73.648C150.372 73.576 150.064 73.54 149.704 73.54C149.392 73.54 149.12 73.604 148.888 73.732C148.656 73.852 148.54 74.044 148.54 74.308C148.54 74.444 148.564 74.564 148.612 74.668C148.668 74.772 148.748 74.868 148.852 74.956C148.964 75.036 149.1 75.112 149.26 75.184C149.42 75.256 149.612 75.332 149.836 75.412C150.132 75.524 150.396 75.636 150.628 75.748C150.86 75.852 151.056 75.976 151.216 76.12C151.384 76.264 151.512 76.44 151.6 76.648C151.688 76.848 151.732 77.096 151.732 77.392C151.732 77.968 151.516 78.404 151.084 78.7C150.66 78.996 150.052 79.144 149.26 79.144C148.708 79.144 148.276 79.096 147.964 79C147.652 78.912 147.44 78.844 147.328 78.796L147.532 77.836C147.66 77.884 147.864 77.956 148.144 78.052C148.424 78.148 148.796 78.196 149.26 78.196ZM154.483 78.352C154.483 78.568 154.411 78.756 154.267 78.916C154.123 79.076 153.927 79.156 153.679 79.156C153.431 79.156 153.235 79.076 153.091 78.916C152.947 78.756 152.875 78.568 152.875 78.352C152.875 78.136 152.947 77.948 153.091 77.788C153.235 77.628 153.431 77.548 153.679 77.548C153.927 77.548 154.123 77.628 154.267 77.788C154.411 77.948 154.483 78.136 154.483 78.352Z" fill="white"/>
<path d="M20.48 100.12C20.632 99.768 20.84 99.36 21.104 98.896C21.368 98.424 21.664 97.94 21.992 97.444C22.328 96.948 22.684 96.46 23.06 95.98C23.444 95.5 23.828 95.068 24.212 94.684H25.28V99.964H26.264V100.876H25.28V103H24.2V100.876H20.48V100.12ZM24.2 96.004C23.96 96.26 23.716 96.548 23.468 96.868C23.228 97.18 22.992 97.508 22.76 97.852C22.528 98.196 22.308 98.548 22.1 98.908C21.9 99.268 21.72 99.62 21.56 99.964H24.2V96.004Z" fill="#5B5B5B"/>
<path d="M52.872 99.412L57.132 101.164L56.82 102.088L51.636 99.892V98.932L56.82 96.736L57.132 97.66L52.872 99.412ZM60.6054 103.12C59.9174 103.104 59.4294 102.956 59.1414 102.676C58.8534 102.396 58.7094 101.96 58.7094 101.368V93.88L59.8254 93.688V101.188C59.8254 101.372 59.8414 101.524 59.8734 101.644C59.9054 101.764 59.9574 101.86 60.0294 101.932C60.1014 102.004 60.1974 102.06 60.3174 102.1C60.4374 102.132 60.5854 102.16 60.7614 102.184L60.6054 103.12ZM63.1307 103H62.0147V96.76H63.1307V103ZM62.5667 95.632C62.3667 95.632 62.1947 95.568 62.0507 95.44C61.9147 95.304 61.8467 95.124 61.8467 94.9C61.8467 94.676 61.9147 94.5 62.0507 94.372C62.1947 94.236 62.3667 94.168 62.5667 94.168C62.7667 94.168 62.9347 94.236 63.0707 94.372C63.2147 94.5 63.2867 94.676 63.2867 94.9C63.2867 95.124 63.2147 95.304 63.0707 95.44C62.9347 95.568 62.7667 95.632 62.5667 95.632ZM64.7258 97.66L65.0378 96.736L70.2218 98.932V99.892L65.0378 102.088L64.7258 101.164L68.9858 99.412L64.7258 97.66ZM184.708 99.412L188.968 101.164L188.656 102.088L183.472 99.892V98.932L188.656 96.736L188.968 97.66L184.708 99.412ZM193.239 105.22H192.099L196.167 93.604H197.283L193.239 105.22ZM199.824 103.12C199.136 103.104 198.648 102.956 198.36 102.676C198.072 102.396 197.928 101.96 197.928 101.368V93.88L199.044 93.688V101.188C199.044 101.372 199.06 101.524 199.092 101.644C199.124 101.764 199.176 101.86 199.248 101.932C199.32 102.004 199.416 102.06 199.536 102.1C199.656 102.132 199.804 102.16 199.98 102.184L199.824 103.12ZM202.349 103H201.233V96.76H202.349V103ZM201.785 95.632C201.585 95.632 201.413 95.568 201.269 95.44C201.133 95.304 201.065 95.124 201.065 94.9C201.065 94.676 201.133 94.5 201.269 94.372C201.413 94.236 201.585 94.168 201.785 94.168C201.985 94.168 202.153 94.236 202.289 94.372C202.433 94.5 202.505 94.676 202.505 94.9C202.505 95.124 202.433 95.304 202.289 95.44C202.153 95.568 201.985 95.632 201.785 95.632ZM203.945 97.66L204.257 96.736L209.441 98.932V99.892L204.257 102.088L203.945 101.164L208.205 99.412L203.945 97.66Z" fill="#7E8BFB"/>
<path d="M73.8273 102.172C75.0433 102.172 75.6513 101.756 75.6513 100.924C75.6513 100.668 75.5953 100.452 75.4833 100.276C75.3793 100.092 75.2353 99.936 75.0513 99.808C74.8673 99.672 74.6553 99.556 74.4153 99.46C74.1833 99.364 73.9353 99.268 73.6713 99.172C73.3673 99.068 73.0793 98.952 72.8073 98.824C72.5353 98.688 72.2993 98.532 72.0993 98.356C71.8993 98.172 71.7393 97.956 71.6193 97.708C71.5073 97.46 71.4513 97.16 71.4513 96.808C71.4513 96.08 71.6993 95.512 72.1953 95.104C72.6913 94.696 73.3753 94.492 74.2473 94.492C74.7513 94.492 75.2073 94.548 75.6153 94.66C76.0313 94.764 76.3353 94.88 76.5273 95.008L76.1553 95.956C75.9873 95.852 75.7353 95.752 75.3993 95.656C75.0713 95.552 74.6873 95.5 74.2473 95.5C74.0233 95.5 73.8153 95.524 73.6233 95.572C73.4313 95.62 73.2633 95.692 73.1193 95.788C72.9753 95.884 72.8593 96.008 72.7713 96.16C72.6913 96.304 72.6513 96.476 72.6513 96.676C72.6513 96.9 72.6953 97.088 72.7833 97.24C72.8713 97.392 72.9953 97.528 73.1553 97.648C73.3153 97.76 73.4993 97.864 73.7073 97.96C73.9233 98.056 74.1593 98.152 74.4153 98.248C74.7753 98.392 75.1033 98.536 75.3993 98.68C75.7033 98.824 75.9633 98.996 76.1793 99.196C76.4033 99.396 76.5753 99.636 76.6953 99.916C76.8153 100.188 76.8753 100.52 76.8753 100.912C76.8753 101.64 76.6073 102.2 76.0713 102.592C75.5433 102.984 74.7953 103.18 73.8273 103.18C73.4993 103.18 73.1953 103.156 72.9153 103.108C72.6433 103.068 72.3993 103.02 72.1833 102.964C71.9673 102.9 71.7793 102.836 71.6193 102.772C71.4673 102.7 71.3473 102.64 71.2593 102.592L71.6073 101.632C71.7913 101.736 72.0713 101.852 72.4473 101.98C72.8233 102.108 73.2833 102.172 73.8273 102.172ZM79.254 96.76H81.618V97.696H79.254V100.576C79.254 100.888 79.278 101.148 79.326 101.356C79.374 101.556 79.446 101.716 79.542 101.836C79.638 101.948 79.758 102.028 79.902 102.076C80.046 102.124 80.214 102.148 80.406 102.148C80.742 102.148 81.01 102.112 81.21 102.04C81.418 101.96 81.562 101.904 81.642 101.872L81.858 102.796C81.746 102.852 81.55 102.92 81.27 103C80.99 103.088 80.67 103.132 80.31 103.132C79.886 103.132 79.534 103.08 79.254 102.976C78.982 102.864 78.762 102.7 78.594 102.484C78.426 102.268 78.306 102.004 78.234 101.692C78.17 101.372 78.138 101.004 78.138 100.588V95.02L79.254 94.828V96.76ZM85.3421 96.628C85.4381 96.628 85.5461 96.636 85.6661 96.652C85.7941 96.66 85.9181 96.676 86.0381 96.7C86.1581 96.716 86.2661 96.736 86.3621 96.76C86.4661 96.776 86.5421 96.792 86.5901 96.808L86.3981 97.78C86.3101 97.748 86.1621 97.712 85.9541 97.672C85.7541 97.624 85.4941 97.6 85.1741 97.6C84.9661 97.6 84.7581 97.624 84.5501 97.672C84.3501 97.712 84.2181 97.74 84.1541 97.756V103H83.0381V97.024C83.3021 96.928 83.6301 96.84 84.0221 96.76C84.4141 96.672 84.8541 96.628 85.3421 96.628ZM93.175 99.88C93.175 100.376 93.103 100.824 92.959 101.224C92.815 101.624 92.611 101.968 92.347 102.256C92.091 102.544 91.783 102.768 91.423 102.928C91.063 103.08 90.671 103.156 90.247 103.156C89.823 103.156 89.431 103.08 89.071 102.928C88.711 102.768 88.399 102.544 88.135 102.256C87.879 101.968 87.679 101.624 87.535 101.224C87.391 100.824 87.319 100.376 87.319 99.88C87.319 99.392 87.391 98.948 87.535 98.548C87.679 98.14 87.879 97.792 88.135 97.504C88.399 97.216 88.711 96.996 89.071 96.844C89.431 96.684 89.823 96.604 90.247 96.604C90.671 96.604 91.063 96.684 91.423 96.844C91.783 96.996 92.091 97.216 92.347 97.504C92.611 97.792 92.815 98.14 92.959 98.548C93.103 98.948 93.175 99.392 93.175 99.88ZM92.011 99.88C92.011 99.176 91.851 98.62 91.531 98.212C91.219 97.796 90.791 97.588 90.247 97.588C89.703 97.588 89.271 97.796 88.951 98.212C88.639 98.62 88.483 99.176 88.483 99.88C88.483 100.584 88.639 101.144 88.951 101.56C89.271 101.968 89.703 102.172 90.247 102.172C90.791 102.172 91.219 101.968 91.531 101.56C91.851 101.144 92.011 100.584 92.011 99.88ZM94.7452 96.94C95.0012 96.876 95.3412 96.808 95.7652 96.736C96.1892 96.664 96.6772 96.628 97.2292 96.628C97.7252 96.628 98.1372 96.7 98.4652 96.844C98.7932 96.98 99.0532 97.176 99.2452 97.432C99.4452 97.68 99.5852 97.98 99.6652 98.332C99.7452 98.684 99.7852 99.072 99.7852 99.496V103H98.6692V99.736C98.6692 99.352 98.6412 99.024 98.5852 98.752C98.5372 98.48 98.4532 98.26 98.3332 98.092C98.2132 97.924 98.0532 97.804 97.8532 97.732C97.6532 97.652 97.4052 97.612 97.1092 97.612C96.9892 97.612 96.8652 97.616 96.7372 97.624C96.6092 97.632 96.4852 97.644 96.3652 97.66C96.2532 97.668 96.1492 97.68 96.0532 97.696C95.9652 97.712 95.9012 97.724 95.8612 97.732V103H94.7452V96.94ZM105.548 102.376C105.452 102.44 105.264 102.524 104.984 102.628C104.712 102.724 104.392 102.772 104.024 102.772C103.648 102.772 103.292 102.712 102.956 102.592C102.628 102.472 102.34 102.288 102.092 102.04C101.844 101.784 101.648 101.468 101.504 101.092C101.36 100.716 101.288 100.268 101.288 99.748C101.288 99.292 101.356 98.876 101.492 98.5C101.628 98.116 101.824 97.788 102.08 97.516C102.344 97.236 102.664 97.02 103.04 96.868C103.416 96.708 103.84 96.628 104.312 96.628C104.832 96.628 105.284 96.668 105.668 96.748C106.06 96.82 106.388 96.888 106.652 96.952V102.52C106.652 103.48 106.404 104.176 105.908 104.608C105.412 105.04 104.66 105.256 103.652 105.256C103.26 105.256 102.888 105.224 102.536 105.16C102.192 105.096 101.892 105.02 101.636 104.932L101.84 103.96C102.064 104.048 102.336 104.124 102.656 104.188C102.984 104.26 103.324 104.296 103.676 104.296C104.34 104.296 104.816 104.164 105.104 103.9C105.4 103.636 105.548 103.216 105.548 102.64V102.376ZM105.536 97.744C105.424 97.712 105.272 97.684 105.08 97.66C104.896 97.628 104.644 97.612 104.324 97.612C103.724 97.612 103.26 97.808 102.932 98.2C102.612 98.592 102.452 99.112 102.452 99.76C102.452 100.12 102.496 100.428 102.584 100.684C102.68 100.94 102.804 101.152 102.956 101.32C103.116 101.488 103.296 101.612 103.496 101.692C103.704 101.772 103.916 101.812 104.132 101.812C104.428 101.812 104.7 101.772 104.948 101.692C105.196 101.604 105.392 101.504 105.536 101.392V97.744ZM115.419 100.324C115.419 100.724 115.375 101.096 115.287 101.44C115.207 101.784 115.059 102.088 114.843 102.352C114.635 102.608 114.351 102.812 113.991 102.964C113.639 103.108 113.195 103.18 112.659 103.18C112.387 103.18 112.135 103.156 111.903 103.108C111.679 103.068 111.475 103.016 111.291 102.952C111.107 102.88 110.947 102.808 110.811 102.736C110.675 102.656 110.567 102.58 110.487 102.508L110.943 101.584C111.111 101.704 111.327 101.832 111.591 101.968C111.863 102.096 112.199 102.16 112.599 102.16C113.175 102.16 113.595 102.016 113.859 101.728C114.123 101.432 114.255 100.928 114.255 100.216V94.684H115.419V100.324ZM119.355 102.172C120.571 102.172 121.179 101.756 121.179 100.924C121.179 100.668 121.123 100.452 121.011 100.276C120.907 100.092 120.763 99.936 120.579 99.808C120.395 99.672 120.183 99.556 119.943 99.46C119.711 99.364 119.463 99.268 119.199 99.172C118.895 99.068 118.607 98.952 118.335 98.824C118.063 98.688 117.827 98.532 117.627 98.356C117.427 98.172 117.267 97.956 117.147 97.708C117.035 97.46 116.979 97.16 116.979 96.808C116.979 96.08 117.227 95.512 117.723 95.104C118.219 94.696 118.903 94.492 119.775 94.492C120.279 94.492 120.735 94.548 121.143 94.66C121.559 94.764 121.863 94.88 122.055 95.008L121.683 95.956C121.515 95.852 121.263 95.752 120.927 95.656C120.599 95.552 120.215 95.5 119.775 95.5C119.551 95.5 119.343 95.524 119.151 95.572C118.959 95.62 118.791 95.692 118.647 95.788C118.503 95.884 118.387 96.008 118.299 96.16C118.219 96.304 118.179 96.476 118.179 96.676C118.179 96.9 118.223 97.088 118.311 97.24C118.399 97.392 118.523 97.528 118.683 97.648C118.843 97.76 119.027 97.864 119.235 97.96C119.451 98.056 119.687 98.152 119.943 98.248C120.303 98.392 120.631 98.536 120.927 98.68C121.231 98.824 121.491 98.996 121.707 99.196C121.931 99.396 122.103 99.636 122.223 99.916C122.343 100.188 122.403 100.52 122.403 100.912C122.403 101.64 122.135 102.2 121.599 102.592C121.071 102.984 120.323 103.18 119.355 103.18C119.027 103.18 118.723 103.156 118.443 103.108C118.171 103.068 117.927 103.02 117.711 102.964C117.495 102.9 117.307 102.836 117.147 102.772C116.995 102.7 116.875 102.64 116.787 102.592L117.135 101.632C117.319 101.736 117.599 101.852 117.975 101.98C118.351 102.108 118.811 102.172 119.355 102.172ZM126.107 100.792C126.107 100.48 126.155 100.204 126.251 99.964C126.347 99.716 126.475 99.496 126.635 99.304C126.803 99.104 126.995 98.932 127.211 98.788C127.427 98.636 127.651 98.504 127.883 98.392C127.291 97.8 126.995 97.188 126.995 96.556C126.995 96.236 127.047 95.948 127.151 95.692C127.263 95.436 127.411 95.22 127.595 95.044C127.787 94.868 128.011 94.732 128.267 94.636C128.531 94.54 128.819 94.492 129.131 94.492C129.451 94.492 129.735 94.54 129.983 94.636C130.239 94.732 130.451 94.86 130.619 95.02C130.795 95.18 130.927 95.372 131.015 95.596C131.103 95.82 131.147 96.056 131.147 96.304C131.147 96.584 131.099 96.836 131.003 97.06C130.915 97.284 130.791 97.488 130.631 97.672C130.479 97.856 130.303 98.024 130.103 98.176C129.903 98.328 129.691 98.464 129.467 98.584L131.411 100.564C131.683 100.06 131.859 99.5 131.939 98.884L132.863 99.004C132.831 99.332 132.747 99.692 132.611 100.084C132.483 100.468 132.299 100.852 132.059 101.236C132.339 101.54 132.595 101.84 132.827 102.136C133.067 102.432 133.263 102.72 133.415 103H132.239C132.143 102.84 132.023 102.676 131.879 102.508C131.743 102.34 131.599 102.172 131.447 102.004C131.119 102.332 130.739 102.6 130.307 102.808C129.875 103.008 129.379 103.108 128.819 103.108C128.299 103.108 127.867 103.036 127.523 102.892C127.179 102.74 126.899 102.552 126.683 102.328C126.475 102.096 126.327 101.844 126.239 101.572C126.151 101.3 126.107 101.04 126.107 100.792ZM127.223 100.768C127.223 100.912 127.251 101.068 127.307 101.236C127.363 101.404 127.455 101.56 127.583 101.704C127.711 101.84 127.875 101.956 128.075 102.052C128.283 102.14 128.539 102.184 128.843 102.184C129.235 102.184 129.595 102.112 129.923 101.968C130.259 101.824 130.555 101.62 130.811 101.356L128.471 98.992C128.327 99.064 128.179 99.148 128.027 99.244C127.883 99.34 127.751 99.46 127.631 99.604C127.511 99.74 127.411 99.904 127.331 100.096C127.259 100.288 127.223 100.512 127.223 100.768ZM130.139 96.34C130.139 96.068 130.047 95.84 129.863 95.656C129.687 95.464 129.443 95.368 129.131 95.368C128.779 95.368 128.507 95.476 128.315 95.692C128.131 95.9 128.039 96.16 128.039 96.472C128.039 96.992 128.311 97.5 128.855 97.996C129.031 97.908 129.195 97.812 129.347 97.708C129.507 97.604 129.643 97.484 129.755 97.348C129.875 97.212 129.967 97.064 130.031 96.904C130.103 96.736 130.139 96.548 130.139 96.34ZM142.912 94.684V95.692H140.296V103H139.132V95.692H136.516V94.684H142.912ZM146.073 102.172C147.289 102.172 147.897 101.756 147.897 100.924C147.897 100.668 147.841 100.452 147.729 100.276C147.625 100.092 147.481 99.936 147.297 99.808C147.113 99.672 146.901 99.556 146.661 99.46C146.429 99.364 146.181 99.268 145.917 99.172C145.613 99.068 145.325 98.952 145.053 98.824C144.781 98.688 144.545 98.532 144.345 98.356C144.145 98.172 143.985 97.956 143.865 97.708C143.753 97.46 143.697 97.16 143.697 96.808C143.697 96.08 143.945 95.512 144.441 95.104C144.937 94.696 145.621 94.492 146.493 94.492C146.997 94.492 147.453 94.548 147.861 94.66C148.277 94.764 148.581 94.88 148.773 95.008L148.401 95.956C148.233 95.852 147.981 95.752 147.645 95.656C147.317 95.552 146.933 95.5 146.493 95.5C146.269 95.5 146.061 95.524 145.869 95.572C145.677 95.62 145.509 95.692 145.365 95.788C145.221 95.884 145.105 96.008 145.017 96.16C144.937 96.304 144.897 96.476 144.897 96.676C144.897 96.9 144.941 97.088 145.029 97.24C145.117 97.392 145.241 97.528 145.401 97.648C145.561 97.76 145.745 97.864 145.953 97.96C146.169 98.056 146.405 98.152 146.661 98.248C147.021 98.392 147.349 98.536 147.645 98.68C147.949 98.824 148.209 98.996 148.425 99.196C148.649 99.396 148.821 99.636 148.941 99.916C149.061 100.188 149.121 100.52 149.121 100.912C149.121 101.64 148.853 102.2 148.317 102.592C147.789 102.984 147.041 103.18 146.073 103.18C145.745 103.18 145.441 103.156 145.161 103.108C144.889 103.068 144.645 103.02 144.429 102.964C144.213 102.9 144.025 102.836 143.865 102.772C143.713 102.7 143.593 102.64 143.505 102.592L143.853 101.632C144.037 101.736 144.317 101.852 144.693 101.98C145.069 102.108 145.529 102.172 146.073 102.172ZM155.237 102.172C156.453 102.172 157.061 101.756 157.061 100.924C157.061 100.668 157.005 100.452 156.893 100.276C156.789 100.092 156.645 99.936 156.461 99.808C156.277 99.672 156.065 99.556 155.825 99.46C155.593 99.364 155.345 99.268 155.081 99.172C154.777 99.068 154.489 98.952 154.217 98.824C153.945 98.688 153.709 98.532 153.509 98.356C153.309 98.172 153.149 97.956 153.029 97.708C152.917 97.46 152.861 97.16 152.861 96.808C152.861 96.08 153.109 95.512 153.605 95.104C154.101 94.696 154.785 94.492 155.657 94.492C156.161 94.492 156.617 94.548 157.025 94.66C157.441 94.764 157.745 94.88 157.937 95.008L157.565 95.956C157.397 95.852 157.145 95.752 156.809 95.656C156.481 95.552 156.097 95.5 155.657 95.5C155.433 95.5 155.225 95.524 155.033 95.572C154.841 95.62 154.673 95.692 154.529 95.788C154.385 95.884 154.269 96.008 154.181 96.16C154.101 96.304 154.061 96.476 154.061 96.676C154.061 96.9 154.105 97.088 154.193 97.24C154.281 97.392 154.405 97.528 154.565 97.648C154.725 97.76 154.909 97.864 155.117 97.96C155.333 98.056 155.569 98.152 155.825 98.248C156.185 98.392 156.513 98.536 156.809 98.68C157.113 98.824 157.373 98.996 157.589 99.196C157.813 99.396 157.985 99.636 158.105 99.916C158.225 100.188 158.285 100.52 158.285 100.912C158.285 101.64 158.017 102.2 157.481 102.592C156.953 102.984 156.205 103.18 155.237 103.18C154.909 103.18 154.605 103.156 154.325 103.108C154.053 103.068 153.809 103.02 153.593 102.964C153.377 102.9 153.189 102.836 153.029 102.772C152.877 102.7 152.757 102.64 152.669 102.592L153.017 101.632C153.201 101.736 153.481 101.852 153.857 101.98C154.233 102.108 154.693 102.172 155.237 102.172ZM161.876 99.568C162.116 99.752 162.368 99.98 162.632 100.252C162.904 100.524 163.168 100.82 163.424 101.14C163.688 101.452 163.936 101.772 164.168 102.1C164.4 102.42 164.596 102.72 164.756 103H163.448C163.28 102.72 163.084 102.436 162.86 102.148C162.644 101.852 162.416 101.572 162.176 101.308C161.936 101.036 161.692 100.788 161.444 100.564C161.196 100.34 160.96 100.152 160.736 100V103H159.62V93.88L160.736 93.688V99.376C160.928 99.184 161.14 98.972 161.372 98.74C161.604 98.508 161.832 98.272 162.056 98.032C162.28 97.792 162.492 97.564 162.692 97.348C162.892 97.124 163.064 96.928 163.208 96.76H164.516C164.332 96.96 164.132 97.18 163.916 97.42C163.7 97.66 163.476 97.904 163.244 98.152C163.012 98.392 162.776 98.636 162.536 98.884C162.304 99.124 162.084 99.352 161.876 99.568ZM167.006 103H165.89V96.76H167.006V103ZM166.442 95.632C166.242 95.632 166.07 95.568 165.926 95.44C165.79 95.304 165.722 95.124 165.722 94.9C165.722 94.676 165.79 94.5 165.926 94.372C166.07 94.236 166.242 94.168 166.442 94.168C166.642 94.168 166.81 94.236 166.946 94.372C167.09 94.5 167.162 94.676 167.162 94.9C167.162 95.124 167.09 95.304 166.946 95.44C166.81 95.568 166.642 95.632 166.442 95.632ZM170.797 103.12C170.109 103.104 169.621 102.956 169.333 102.676C169.045 102.396 168.901 101.96 168.901 101.368V93.88L170.017 93.688V101.188C170.017 101.372 170.033 101.524 170.065 101.644C170.097 101.764 170.149 101.86 170.221 101.932C170.293 102.004 170.389 102.06 170.509 102.1C170.629 102.132 170.777 102.16 170.953 102.184L170.797 103.12ZM174.078 103.12C173.39 103.104 172.902 102.956 172.614 102.676C172.326 102.396 172.182 101.96 172.182 101.368V93.88L173.298 93.688V101.188C173.298 101.372 173.314 101.524 173.346 101.644C173.378 101.764 173.43 101.86 173.502 101.932C173.574 102.004 173.67 102.06 173.79 102.1C173.91 102.132 174.058 102.16 174.234 102.184L174.078 103.12ZM176.939 102.196C177.395 102.196 177.731 102.136 177.947 102.016C178.171 101.896 178.283 101.704 178.283 101.44C178.283 101.168 178.175 100.952 177.959 100.792C177.743 100.632 177.387 100.452 176.891 100.252C176.651 100.156 176.419 100.06 176.195 99.964C175.979 99.86 175.791 99.74 175.631 99.604C175.471 99.468 175.343 99.304 175.247 99.112C175.151 98.92 175.103 98.684 175.103 98.404C175.103 97.852 175.307 97.416 175.715 97.096C176.123 96.768 176.679 96.604 177.383 96.604C177.559 96.604 177.735 96.616 177.911 96.64C178.087 96.656 178.251 96.68 178.403 96.712C178.555 96.736 178.687 96.764 178.799 96.796C178.919 96.828 179.011 96.856 179.075 96.88L178.871 97.84C178.751 97.776 178.563 97.712 178.307 97.648C178.051 97.576 177.743 97.54 177.383 97.54C177.071 97.54 176.799 97.604 176.567 97.732C176.335 97.852 176.219 98.044 176.219 98.308C176.219 98.444 176.243 98.564 176.291 98.668C176.347 98.772 176.427 98.868 176.531 98.956C176.643 99.036 176.779 99.112 176.939 99.184C177.099 99.256 177.291 99.332 177.515 99.412C177.811 99.524 178.075 99.636 178.307 99.748C178.539 99.852 178.735 99.976 178.895 100.12C179.063 100.264 179.191 100.44 179.279 100.648C179.367 100.848 179.411 101.096 179.411 101.392C179.411 101.968 179.195 102.404 178.763 102.7C178.339 102.996 177.731 103.144 176.939 103.144C176.387 103.144 175.955 103.096 175.643 103C175.331 102.912 175.119 102.844 175.007 102.796L175.211 101.836C175.339 101.884 175.543 101.956 175.823 102.052C176.103 102.148 176.475 102.196 176.939 102.196ZM182.163 102.352C182.163 102.568 182.091 102.756 181.947 102.916C181.803 103.076 181.607 103.156 181.359 103.156C181.111 103.156 180.915 103.076 180.771 102.916C180.627 102.756 180.555 102.568 180.555 102.352C180.555 102.136 180.627 101.948 180.771 101.788C180.915 101.628 181.111 101.548 181.359 101.548C181.607 101.548 181.803 101.628 181.947 101.788C182.091 101.948 182.163 102.136 182.163 102.352Z" fill="white"/>
<defs>
<linearGradient id="paint0_linear_27_33" x1="-14.5" y1="-20.5789" x2="358.895" y2="222.772" gradientUnits="userSpaceOnUse">
<stop stop-color="#1A1A1A"/>
<stop offset="1" stop-color="#2D2D2D"/>
</linearGradient>
<linearGradient id="paint1_linear_27_33" x1="1.48663e-06" y1="-7.15789" x2="353.68" y2="223.077" gradientUnits="userSpaceOnUse">
<stop stop-color="#313131"/>
<stop offset="1" stop-color="#313131" stop-opacity="0.37"/>
</linearGradient>
</defs>
</svg>
